{"glyphs":{"0":{"ha":913,"x_min":61,"x_max":882,"o":"m 382 -14 q 145 60 229 -14 q 61 272 61 135 q 69 358 61 313 q 125 617 90 486 q 561 986 217 986 q 797 910 711 986 q 882 699 882 835 q 875 617 882 653 q 819 358 853 483 q 667 80 774 174 q 382 -14 561 -14 m 394 149 q 538 201 482 149 q 619 365 593 254 q 672 610 651 489 q 681 693 681 658 q 649 793 681 761 q 549 826 618 825 q 407 772 461 825 q 325 610 353 719 q 272 365 293 486 q 264 279 264 318 q 295 181 264 213 q 394 149 326 149 z "},"1":{"ha":640,"x_min":82,"x_max":657,"o":"m 293 0 q 270 10 278 0 q 265 33 263 19 l 415 736 l 179 581 q 157 574 169 574 q 133 588 142 574 l 85 674 q 82 686 82 682 q 88 706 82 696 q 104 721 94 715 l 467 963 q 483 970 476 968 q 500 972 489 972 l 626 972 q 649 963 642 972 q 654 939 657 953 l 461 33 q 447 9 458 18 q 421 0 435 0 l 293 0 z "},"2":{"ha":861,"x_min":-1,"x_max":863,"o":"m 28 0 q 6 10 13 0 q 1 33 -1 19 l 17 106 q 67 171 28 146 l 328 386 q 567 563 497 500 q 650 686 638 626 q 654 728 654 710 q 626 801 654 775 q 539 826 597 826 q 423 785 471 826 q 351 679 375 744 q 301 647 335 647 l 176 647 q 157 656 164 647 q 153 676 150 664 q 231 830 172 758 q 378 945 289 901 q 574 989 467 989 q 789 927 715 989 q 863 764 863 865 q 854 694 863 731 q 767 527 836 603 q 571 364 699 451 l 336 168 l 729 168 q 751 158 744 168 q 756 133 758 149 l 735 33 q 720 9 732 18 q 693 0 708 0 l 28 0 z "},"3":{"ha":876,"x_min":32,"x_max":901,"o":"m 363 -14 q 176 19 250 -14 q 67 103 101 51 q 32 213 32 154 q 35 244 32 225 q 48 265 38 257 q 71 274 58 274 l 199 274 q 235 246 229 274 q 397 147 243 147 q 538 186 482 147 q 610 297 594 225 q 614 336 614 318 q 467 435 614 435 l 324 435 q 301 444 310 435 q 296 468 293 453 l 308 528 q 338 569 317 556 l 636 811 l 239 811 q 217 821 224 811 q 213 844 210 831 l 232 938 q 247 963 235 953 q 274 972 258 972 l 871 972 q 894 963 886 972 q 899 938 901 953 l 881 853 q 854 814 875 829 l 563 568 l 579 567 q 754 506 690 557 q 818 358 818 454 q 810 288 818 325 q 726 128 790 196 q 568 23 663 60 q 363 -14 474 -14 z "},"4":{"ha":917,"x_min":4,"x_max":864,"o":"m 474 0 q 451 10 458 0 q 446 33 443 19 l 485 211 l 32 211 q 11 221 18 211 q 6 244 4 231 l 26 340 q 47 379 32 364 l 582 949 q 638 972 603 972 l 803 972 q 825 963 818 972 q 829 939 832 953 l 710 376 l 833 376 q 856 367 849 376 q 861 343 864 358 l 839 244 q 826 221 838 231 q 799 211 814 211 l 675 211 l 636 33 q 622 9 633 18 q 597 0 611 0 l 474 0 m 249 371 l 522 371 l 604 758 l 249 371 z "},"5":{"ha":863,"x_min":17,"x_max":857,"o":"m 349 -15 q 169 17 244 -15 q 56 106 94 50 q 17 229 17 161 q 19 264 17 239 q 31 285 21 276 q 54 293 42 293 l 186 293 q 213 286 203 293 q 222 265 222 279 q 262 176 224 206 q 361 146 300 146 q 503 193 440 146 q 582 324 565 240 q 588 369 588 357 q 551 460 588 428 q 446 492 514 492 q 375 481 404 492 q 313 450 346 469 q 285 435 299 442 q 261 429 272 429 l 131 429 q 110 440 117 429 q 108 463 104 450 l 256 933 q 274 962 261 951 q 304 972 288 972 l 826 972 q 849 963 840 972 q 854 939 857 954 l 833 844 q 819 820 831 829 q 793 811 807 811 l 392 811 l 322 586 q 400 620 357 607 q 510 633 443 633 q 653 602 589 633 q 753 513 717 571 q 790 379 790 456 q 783 313 790 351 q 640 71 750 157 q 349 -15 529 -15 z "},"6":{"ha":872,"x_min":50,"x_max":836,"o":"m 374 -14 q 199 20 272 -14 q 88 115 126 54 q 50 253 50 175 q 58 328 50 289 q 222 597 85 450 l 550 944 q 574 965 563 957 q 604 972 586 972 l 736 972 q 754 963 749 972 q 757 942 760 954 q 749 924 756 935 l 496 656 q 557 661 519 661 q 701 626 638 660 q 800 533 764 592 q 836 399 836 474 q 829 331 836 360 q 747 158 810 236 q 586 33 683 79 q 374 -14 489 -14 m 407 147 q 548 195 485 147 q 629 328 611 243 q 635 372 635 358 q 592 472 635 436 q 482 507 549 507 q 340 459 404 507 q 258 328 276 411 q 254 285 254 306 q 297 183 254 219 q 407 147 340 147 z "},"7":{"ha":757,"x_min":108,"x_max":854,"o":"m 133 0 q 115 9 121 0 q 111 31 108 18 q 117 43 114 39 l 611 806 l 176 806 q 154 815 161 806 q 150 839 147 825 l 171 938 q 185 963 174 953 q 213 972 197 972 l 824 972 q 847 963 839 972 q 851 938 854 953 l 832 850 q 806 790 825 819 l 315 33 q 263 0 289 0 l 133 0 z "},"8":{"ha":910,"x_min":36,"x_max":871,"o":"m 379 -14 q 196 19 274 -14 q 77 108 118 51 q 36 238 36 165 q 42 289 36 253 q 109 426 57 367 q 235 517 161 485 q 182 584 201 544 q 163 672 163 624 q 167 719 163 694 q 297 913 190 840 q 560 986 403 986 q 724 957 653 986 q 833 876 794 928 q 871 757 871 824 q 867 711 871 735 q 818 599 854 646 q 721 517 782 551 q 792 440 767 488 q 818 333 818 392 q 813 279 818 303 q 674 65 785 144 q 379 -14 563 -14 m 483 578 q 627 624 567 579 q 688 739 688 668 q 651 813 688 786 q 550 840 614 840 q 405 794 464 840 q 346 676 346 749 q 381 604 346 631 q 483 578 417 578 m 389 132 q 502 156 449 132 q 588 223 556 181 q 619 317 619 265 q 578 406 619 374 q 464 438 536 438 q 351 415 404 438 q 266 350 299 392 q 233 253 233 308 q 275 164 233 196 q 389 132 317 132 z "},"9":{"ha":858,"x_min":110,"x_max":882,"o":"m 186 0 q 167 9 174 0 q 164 31 161 18 q 175 49 165 39 l 438 329 q 379 324 415 324 q 239 360 300 326 q 144 451 178 393 q 110 581 110 508 q 117 649 110 619 q 195 813 136 736 q 349 938 254 890 q 563 986 443 986 q 800 913 718 986 q 882 725 882 840 q 874 654 882 690 q 833 547 861 597 q 774 461 804 497 q 688 365 743 425 l 372 28 q 348 8 360 15 q 319 0 336 0 l 186 0 m 456 474 q 594 522 532 474 q 672 649 656 569 q 676 689 676 669 q 636 789 676 753 q 531 825 596 825 q 393 777 454 825 q 315 649 332 729 q 311 606 311 626 q 351 509 311 544 q 456 474 392 474 z "},"\u0000":{"ha":0,"x_min":0,"x_max":0,"o":""},"\r":{"ha":322,"x_min":0,"x_max":0,"o":""}," ":{"ha":322,"x_min":0,"x_max":0,"o":""},"A":{"ha":969,"x_min":-62,"x_max":874,"o":"m -37 0 q -56 7 -49 0 q -62 25 -62 14 q -58 42 -62 33 l 465 938 q 522 972 486 972 l 685 972 q 726 938 721 972 l 871 42 q 865 11 874 22 q 840 0 856 0 l 719 0 q 682 32 686 0 l 651 194 l 240 194 l 139 26 q 94 0 124 0 l -37 0 m 324 356 l 638 356 l 571 783 l 324 356 z "},"Á":{"ha":969,"x_min":-62,"x_max":915,"o":"m -37 0 q -56 7 -49 0 q -62 25 -62 14 q -58 42 -62 33 l 465 938 q 522 972 486 972 l 685 972 q 726 938 721 972 l 871 42 q 865 11 874 22 q 840 0 856 0 l 719 0 q 682 32 686 0 l 651 194 l 240 194 l 139 26 q 94 0 124 0 l -37 0 m 324 356 l 638 356 l 571 783 l 324 356 m 549 1042 q 531 1061 528 1042 q 540 1081 531 1071 l 686 1219 q 713 1240 701 1235 q 743 1246 725 1246 l 893 1246 q 911 1239 906 1246 q 915 1222 917 1232 q 903 1201 913 1210 l 700 1060 q 674 1046 686 1050 q 646 1042 663 1042 l 549 1042 z "},"Ă":{"ha":969,"x_min":-62,"x_max":871,"o":"m -37 0 q -56 7 -49 0 q -62 25 -62 14 q -58 42 -62 33 l 465 938 q 522 972 486 972 l 685 972 q 726 938 721 972 l 871 42 q 865 11 874 22 q 840 0 856 0 l 719 0 q 682 32 686 0 l 651 194 l 240 194 l 139 26 q 94 0 124 0 l -37 0 m 324 356 l 638 356 l 571 783 l 324 356 m 621 1031 q 494 1072 539 1031 q 449 1176 449 1113 q 453 1215 449 1194 q 464 1234 456 1226 q 485 1242 472 1242 l 554 1242 q 572 1234 567 1242 q 575 1215 578 1226 q 572 1186 572 1196 q 628 1129 572 1129 q 690 1153 667 1129 q 722 1215 713 1178 q 733 1234 725 1226 q 754 1242 742 1242 l 824 1242 q 842 1234 836 1242 q 844 1215 847 1226 q 621 1031 806 1031 z "},"Â":{"ha":969,"x_min":-62,"x_max":871,"o":"m -37 0 q -56 7 -49 0 q -62 25 -62 14 q -58 42 -62 33 l 465 938 q 522 972 486 972 l 685 972 q 726 938 721 972 l 871 42 q 865 11 874 22 q 840 0 856 0 l 719 0 q 682 32 686 0 l 651 194 l 240 194 l 139 26 q 94 0 124 0 l -37 0 m 324 356 l 638 356 l 571 783 l 324 356 m 386 1042 q 373 1047 378 1042 q 369 1060 368 1051 q 382 1079 369 1071 l 551 1224 q 579 1242 568 1238 q 604 1246 590 1246 l 688 1246 q 710 1242 701 1246 q 731 1224 719 1238 l 839 1079 q 843 1060 846 1071 q 835 1047 842 1051 q 821 1042 829 1042 l 768 1042 q 731 1051 746 1042 l 631 1125 l 499 1051 q 460 1042 478 1042 l 386 1042 z "},"Ä":{"ha":969,"x_min":-62,"x_max":878,"o":"m -37 0 q -56 7 -49 0 q -62 25 -62 14 q -58 42 -62 33 l 465 938 q 522 972 486 972 l 685 972 q 726 938 721 972 l 871 42 q 865 11 874 22 q 840 0 856 0 l 719 0 q 682 32 686 0 l 651 194 l 240 194 l 139 26 q 94 0 124 0 l -37 0 m 324 356 l 638 356 l 571 783 l 324 356 m 408 1042 q 388 1050 394 1042 q 385 1072 382 1058 l 407 1175 q 420 1198 410 1189 q 444 1207 431 1207 l 547 1207 q 568 1198 561 1207 q 572 1175 575 1189 l 550 1072 q 536 1050 547 1058 q 511 1042 525 1042 l 408 1042 m 713 1042 q 692 1050 699 1042 q 689 1072 686 1058 l 710 1175 q 724 1198 713 1189 q 749 1207 735 1207 l 851 1207 q 872 1198 865 1207 q 876 1175 879 1189 l 854 1072 q 840 1050 851 1058 q 815 1042 829 1042 l 713 1042 z "},"À":{"ha":969,"x_min":-62,"x_max":871,"o":"m -37 0 q -56 7 -49 0 q -62 25 -62 14 q -58 42 -62 33 l 465 938 q 522 972 486 972 l 685 972 q 726 938 721 972 l 871 42 q 865 11 874 22 q 840 0 856 0 l 719 0 q 682 32 686 0 l 651 194 l 240 194 l 139 26 q 94 0 124 0 l -37 0 m 324 356 l 638 356 l 571 783 l 324 356 m 579 1042 q 553 1046 563 1042 q 533 1060 543 1050 l 393 1200 q 388 1214 388 1206 q 397 1237 388 1228 q 419 1246 406 1246 l 564 1246 q 591 1240 582 1246 q 610 1219 600 1235 l 694 1082 q 697 1068 697 1074 q 690 1049 697 1057 q 671 1042 682 1042 l 579 1042 z "},"Ā":{"ha":969,"x_min":-62,"x_max":871,"o":"m -37 0 q -56 7 -49 0 q -62 25 -62 14 q -58 42 -62 33 l 465 938 q 522 972 486 972 l 685 972 q 726 938 721 972 l 871 42 q 865 11 874 22 q 840 0 856 0 l 719 0 q 682 32 686 0 l 651 194 l 240 194 l 139 26 q 94 0 124 0 l -37 0 m 324 356 l 638 356 l 571 783 l 324 356 m 419 1042 q 399 1050 406 1042 q 396 1072 393 1058 l 411 1151 q 425 1174 414 1165 q 450 1182 436 1182 l 829 1182 q 849 1174 843 1182 q 853 1151 856 1165 l 838 1072 q 824 1050 835 1058 q 799 1042 813 1042 l 419 1042 z "},"Ą":{"ha":964,"x_min":-46,"x_max":883,"o":"m 739 -306 q 614 -265 657 -306 q 571 -154 571 -224 q 578 -94 571 -129 q 620 -4 589 -40 q 696 44 651 32 q 683 65 683 50 l 661 194 l 250 194 l 150 26 q 104 0 131 0 l -19 0 q -39 8 -32 0 q -43 29 -46 17 l -37 42 l 488 938 q 544 972 506 972 l 697 972 q 728 963 718 972 q 739 938 738 953 l 883 42 q 882 29 883 32 q 869 8 881 17 q 847 0 858 0 l 806 0 q 727 -35 758 -1 q 696 -119 696 -69 q 715 -170 696 -151 q 769 -189 733 -189 l 788 -189 q 810 -199 803 -189 q 814 -222 817 -208 l 803 -272 q 788 -296 800 -286 q 763 -306 776 -306 l 739 -306 m 333 356 l 646 356 l 581 783 l 333 356 z "},"Å":{"ha":969,"x_min":-62,"x_max":871,"o":"m -37 0 q -56 7 -49 0 q -62 25 -62 14 q -58 42 -62 33 l 465 938 q 522 972 486 972 l 685 972 q 726 938 721 972 l 871 42 q 865 11 874 22 q 840 0 856 0 l 719 0 q 682 32 686 0 l 651 194 l 240 194 l 139 26 q 94 0 124 0 l -37 0 m 324 356 l 638 356 l 571 783 l 324 356 m 611 1028 q 538 1053 567 1028 q 508 1119 508 1079 q 511 1143 508 1126 q 564 1226 522 1193 q 656 1260 606 1260 q 731 1234 701 1260 q 760 1167 760 1208 q 757 1143 760 1160 q 704 1060 746 1093 q 611 1028 663 1028 m 622 1101 q 660 1117 644 1101 q 676 1154 676 1132 q 668 1176 676 1168 q 644 1185 660 1185 q 606 1169 622 1185 q 590 1132 590 1154 q 599 1110 590 1118 q 622 1101 608 1101 z "},"Ã":{"ha":969,"x_min":-62,"x_max":871,"o":"m -37 0 q -56 7 -49 0 q -62 25 -62 14 q -58 42 -62 33 l 465 938 q 522 972 486 972 l 685 972 q 726 938 721 972 l 871 42 q 865 11 874 22 q 840 0 856 0 l 719 0 q 682 32 686 0 l 651 194 l 240 194 l 139 26 q 94 0 124 0 l -37 0 m 324 356 l 638 356 l 571 783 l 324 356 m 701 1035 q 658 1042 675 1035 q 613 1063 640 1049 q 583 1078 594 1074 q 558 1083 572 1083 q 532 1077 542 1083 q 513 1060 522 1071 q 483 1042 497 1042 l 418 1042 q 403 1049 408 1042 q 399 1065 397 1056 q 425 1133 404 1097 q 481 1194 446 1169 q 560 1219 515 1219 q 607 1212 588 1219 q 649 1190 626 1204 q 668 1180 651 1189 q 703 1171 685 1171 q 749 1194 728 1171 q 779 1213 764 1213 l 843 1213 q 860 1206 854 1213 q 863 1189 865 1199 q 836 1121 857 1157 q 781 1060 815 1085 q 701 1035 746 1035 z "},"Æ":{"ha":1351,"x_min":-54,"x_max":1392,"o":"m -28 0 q -54 26 -54 0 q -49 46 -54 39 l 474 938 q 528 972 492 972 l 1361 972 q 1384 963 1376 972 q 1389 938 1392 953 l 1368 844 q 1353 820 1365 829 q 1328 811 1342 811 l 889 811 l 836 568 l 1244 568 q 1267 558 1260 568 q 1272 533 1275 549 l 1253 446 q 1238 422 1250 431 q 1213 413 1226 413 l 804 413 l 750 161 l 1200 161 q 1222 151 1215 161 q 1226 128 1229 142 l 1207 33 q 1192 9 1204 18 q 1167 0 1181 0 l 560 0 q 537 10 544 0 q 532 33 529 19 l 568 194 l 249 194 l 147 26 q 101 0 132 0 l -28 0 m 331 356 l 601 356 l 697 806 l 590 806 l 331 356 z "},"Ǽ":{"ha":1351,"x_min":-54,"x_max":1390,"o":"m -28 0 q -54 26 -54 0 q -49 46 -54 39 l 474 938 q 528 972 492 972 l 1361 972 q 1384 963 1376 972 q 1389 938 1392 953 l 1368 844 q 1353 820 1365 829 q 1328 811 1342 811 l 889 811 l 836 568 l 1244 568 q 1267 558 1260 568 q 1272 533 1275 549 l 1253 446 q 1238 422 1250 431 q 1213 413 1226 413 l 804 413 l 750 161 l 1200 161 q 1222 151 1215 161 q 1226 128 1229 142 l 1207 33 q 1192 9 1204 18 q 1167 0 1181 0 l 560 0 q 537 10 544 0 q 532 33 529 19 l 568 194 l 249 194 l 147 26 q 101 0 132 0 l -28 0 m 331 356 l 601 356 l 697 806 l 590 806 l 331 356 m 797 1042 q 779 1061 776 1042 q 789 1081 779 1071 l 935 1219 q 962 1240 950 1235 q 992 1246 974 1246 l 1142 1246 q 1160 1239 1154 1246 q 1164 1222 1165 1232 q 1151 1201 1161 1210 l 949 1060 q 923 1046 935 1050 q 894 1042 911 1042 l 797 1042 z "},"B":{"ha":957,"x_min":25,"x_max":936,"o":"m 54 0 q 33 10 40 0 q 28 33 25 19 l 219 938 q 234 963 222 953 q 260 972 246 972 l 653 972 q 861 915 786 972 q 936 761 936 858 q 931 706 936 732 q 869 581 915 629 q 772 510 824 532 q 842 442 815 486 q 868 340 868 397 q 863 288 868 311 q 740 77 833 154 q 482 0 647 0 l 54 0 m 550 574 q 681 619 631 574 q 732 735 732 664 q 617 824 732 824 l 392 824 l 339 574 l 550 574 m 476 149 q 574 174 531 149 q 640 240 617 199 q 664 328 664 281 q 538 429 664 429 l 307 429 l 247 149 l 476 149 z "},"C":{"ha":950,"x_min":58,"x_max":954,"o":"m 411 -14 q 151 63 244 -14 q 58 281 58 140 q 65 363 58 326 q 118 610 82 463 q 280 888 163 790 q 589 986 397 986 q 781 952 699 986 q 909 856 864 918 q 954 714 954 794 q 950 663 954 690 q 939 642 947 650 q 918 633 931 633 l 782 633 q 756 641 764 633 q 747 668 747 649 q 576 825 757 825 q 413 771 479 825 q 318 603 346 717 q 268 369 289 489 q 261 300 261 325 q 424 147 261 147 q 569 183 508 147 q 668 304 631 219 q 688 331 678 324 q 714 339 697 339 l 850 339 q 869 331 863 339 q 874 310 876 322 q 719 75 836 164 q 411 -14 601 -14 z "},"Ć":{"ha":950,"x_min":58,"x_max":954,"o":"m 411 -14 q 151 63 244 -14 q 58 281 58 140 q 65 363 58 326 q 118 610 82 463 q 280 888 163 790 q 589 986 397 986 q 781 952 699 986 q 909 856 864 918 q 954 714 954 794 q 950 663 954 690 q 939 642 947 650 q 918 633 931 633 l 782 633 q 756 641 764 633 q 747 668 747 649 q 576 825 757 825 q 413 771 479 825 q 318 603 346 717 q 268 369 289 489 q 261 300 261 325 q 424 147 261 147 q 569 183 508 147 q 668 304 631 219 q 688 331 678 324 q 714 339 697 339 l 850 339 q 869 331 863 339 q 874 310 876 322 q 719 75 836 164 q 411 -14 601 -14 m 553 1042 q 535 1061 532 1042 q 544 1081 535 1071 l 690 1219 q 717 1240 706 1235 q 747 1246 729 1246 l 897 1246 q 915 1239 910 1246 q 919 1222 921 1232 q 907 1201 917 1210 l 704 1060 q 678 1046 690 1050 q 650 1042 667 1042 l 553 1042 z "},"Č":{"ha":950,"x_min":58,"x_max":954,"o":"m 411 -14 q 151 63 244 -14 q 58 281 58 140 q 65 363 58 326 q 118 610 82 463 q 280 888 163 790 q 589 986 397 986 q 781 952 699 986 q 909 856 864 918 q 954 714 954 794 q 950 663 954 690 q 939 642 947 650 q 918 633 931 633 l 782 633 q 756 641 764 633 q 747 668 747 649 q 576 825 757 825 q 413 771 479 825 q 318 603 346 717 q 268 369 289 489 q 261 300 261 325 q 424 147 261 147 q 569 183 508 147 q 668 304 631 219 q 688 331 678 324 q 714 339 697 339 l 850 339 q 869 331 863 339 q 874 310 876 322 q 719 75 836 164 q 411 -14 601 -14 m 576 1042 q 553 1046 563 1042 q 535 1064 544 1050 l 425 1207 q 421 1228 418 1218 q 428 1240 422 1235 q 444 1246 435 1246 l 497 1246 q 533 1236 518 1246 l 633 1163 l 765 1236 q 806 1246 786 1246 l 878 1246 q 894 1228 897 1246 q 883 1208 894 1217 l 713 1064 q 685 1046 696 1050 q 660 1042 674 1042 l 576 1042 z "},"Ç":{"ha":951,"x_min":76,"x_max":974,"o":"m 347 -306 q 271 -288 303 -306 q 239 -251 239 -271 q 249 -235 239 -242 l 276 -214 q 292 -207 283 -207 q 316 -219 297 -207 q 361 -231 335 -231 q 400 -217 383 -231 q 422 -183 417 -204 q 415 -151 426 -164 q 381 -139 403 -139 q 345 -145 367 -139 q 317 -151 324 -151 q 300 -143 307 -151 l 281 -117 q 276 -106 276 -111 q 292 -74 276 -97 l 333 -8 q 142 80 207 8 q 76 269 76 151 q 85 363 76 313 q 138 610 106 490 q 308 887 182 788 q 625 986 435 986 q 815 952 736 986 q 933 858 893 918 q 974 718 974 797 q 968 663 974 701 q 956 642 967 650 q 932 633 944 633 l 797 633 q 774 641 782 633 q 765 668 767 649 q 719 790 764 754 q 590 825 675 825 q 336 603 390 825 q 288 369 307 476 q 281 301 281 328 q 447 147 281 147 q 591 183 532 147 q 689 304 650 218 q 708 331 697 324 q 735 339 718 339 l 869 339 q 889 331 882 339 q 893 310 896 322 q 805 144 871 218 q 638 28 739 71 q 413 -14 536 -14 l 371 -74 q 422 -64 389 -64 q 485 -87 463 -64 q 508 -149 508 -110 q 463 -259 508 -212 q 347 -306 418 -306 z "},"Ĉ":{"ha":950,"x_min":58,"x_max":954,"o":"m 411 -14 q 151 63 244 -14 q 58 281 58 140 q 65 363 58 326 q 118 610 82 463 q 280 888 163 790 q 589 986 397 986 q 781 952 699 986 q 909 856 864 918 q 954 714 954 794 q 950 663 954 690 q 939 642 947 650 q 918 633 931 633 l 782 633 q 756 641 764 633 q 747 668 747 649 q 576 825 757 825 q 413 771 479 825 q 318 603 346 717 q 268 369 289 489 q 261 300 261 325 q 424 147 261 147 q 569 183 508 147 q 668 304 631 219 q 688 331 678 324 q 714 339 697 339 l 850 339 q 869 331 863 339 q 874 310 876 322 q 719 75 836 164 q 411 -14 601 -14 m 390 1042 q 377 1047 382 1042 q 374 1060 372 1051 q 386 1079 374 1071 l 556 1224 q 583 1242 572 1238 q 608 1246 594 1246 l 692 1246 q 715 1242 706 1246 q 735 1224 724 1238 l 843 1079 q 847 1060 850 1071 q 840 1047 846 1051 q 825 1042 833 1042 l 772 1042 q 735 1051 750 1042 l 635 1125 l 503 1051 q 464 1042 482 1042 l 390 1042 z "},"Ċ":{"ha":950,"x_min":58,"x_max":954,"o":"m 411 -14 q 151 63 244 -14 q 58 281 58 140 q 65 363 58 326 q 118 610 82 463 q 280 888 163 790 q 589 986 397 986 q 781 952 699 986 q 909 856 864 918 q 954 714 954 794 q 950 663 954 690 q 939 642 947 650 q 918 633 931 633 l 782 633 q 756 641 764 633 q 747 668 747 649 q 576 825 757 825 q 413 771 479 825 q 318 603 346 717 q 268 369 289 489 q 261 300 261 325 q 424 147 261 147 q 569 183 508 147 q 668 304 631 219 q 688 331 678 324 q 714 339 697 339 l 850 339 q 869 331 863 339 q 874 310 876 322 q 719 75 836 164 q 411 -14 601 -14 m 553 1042 q 533 1050 539 1042 q 529 1072 526 1058 l 554 1190 q 567 1213 557 1204 q 592 1222 578 1222 l 710 1222 q 731 1213 724 1222 q 735 1190 738 1204 l 710 1072 q 696 1050 707 1058 q 671 1042 685 1042 l 553 1042 z "},"D":{"ha":976,"x_min":25,"x_max":946,"o":"m 54 0 q 33 10 40 0 q 28 33 25 19 l 219 938 q 234 963 222 953 q 260 972 246 972 l 581 972 q 846 894 746 972 q 946 672 946 815 q 939 594 946 629 q 892 379 914 469 q 803 163 860 246 q 654 40 747 81 q 421 0 561 0 l 54 0 m 428 161 q 605 213 543 161 q 694 383 667 264 q 739 590 722 490 q 747 663 747 631 q 701 775 747 739 q 560 811 656 811 l 389 811 l 250 161 l 428 161 z "},"Ð":{"ha":994,"x_min":26,"x_max":965,"o":"m 74 0 q 51 10 58 0 q 46 33 43 19 l 128 419 l 56 419 q 34 429 42 419 q 29 454 26 439 l 44 525 q 58 549 46 539 q 85 558 69 558 l 158 558 l 239 938 q 253 963 242 953 q 279 972 264 972 l 599 972 q 865 894 765 972 q 965 675 965 817 q 957 594 965 636 q 911 379 936 483 q 822 164 879 247 q 672 40 765 81 q 439 0 579 0 l 74 0 m 446 161 q 623 213 561 161 q 714 383 685 264 q 758 590 740 493 q 765 660 765 632 q 719 774 765 738 q 578 811 674 811 l 407 811 l 354 558 l 508 558 q 529 549 522 558 q 533 525 536 539 l 519 454 q 504 429 517 439 q 478 419 492 419 l 324 419 l 269 161 l 446 161 z "},"Ď":{"ha":976,"x_min":26,"x_max":946,"o":"m 54 0 q 33 10 40 0 q 28 33 25 19 l 219 938 q 234 963 222 953 q 260 972 246 972 l 581 972 q 846 894 746 972 q 946 672 946 815 q 939 594 946 629 q 892 379 914 469 q 803 163 860 246 q 654 40 747 81 q 421 0 561 0 l 54 0 m 428 161 q 605 213 543 161 q 694 383 667 264 q 739 590 722 490 q 747 663 747 631 q 701 775 747 739 q 560 811 656 811 l 389 811 l 250 161 l 428 161 m 521 1042 q 498 1046 507 1042 q 479 1064 489 1050 l 369 1207 q 365 1228 363 1218 q 373 1240 367 1235 q 389 1246 379 1246 l 442 1246 q 478 1236 463 1246 l 578 1163 l 710 1236 q 750 1246 731 1246 l 822 1246 q 839 1228 842 1246 q 828 1208 839 1217 l 657 1064 q 629 1046 640 1050 q 604 1042 618 1042 l 521 1042 z "},"Đ":{"ha":994,"x_min":26,"x_max":965,"o":"m 74 0 q 51 10 58 0 q 46 33 43 19 l 128 419 l 56 419 q 34 429 42 419 q 29 454 26 439 l 44 525 q 58 549 46 539 q 85 558 69 558 l 158 558 l 239 938 q 253 963 242 953 q 279 972 264 972 l 599 972 q 865 894 765 972 q 965 675 965 817 q 957 594 965 636 q 911 379 936 483 q 822 164 879 247 q 672 40 765 81 q 439 0 579 0 l 74 0 m 446 161 q 623 213 561 161 q 714 383 685 264 q 758 590 740 493 q 765 660 765 632 q 719 774 765 738 q 578 811 674 811 l 407 811 l 354 558 l 508 558 q 529 549 522 558 q 533 525 536 539 l 519 454 q 504 429 517 439 q 478 419 492 419 l 324 419 l 269 161 l 446 161 z "},"E":{"ha":864,"x_min":25,"x_max":903,"o":"m 54 0 q 33 10 40 0 q 28 33 25 19 l 219 938 q 234 963 222 953 q 260 972 246 972 l 874 972 q 896 963 889 972 q 900 938 903 953 l 881 844 q 866 820 878 829 q 840 811 854 811 l 383 811 l 331 568 l 757 568 q 779 558 772 568 q 783 533 786 549 l 765 446 q 751 422 763 431 q 724 413 739 413 l 299 413 l 244 161 l 713 161 q 735 151 728 161 q 739 128 742 142 l 719 33 q 705 9 717 18 q 679 0 693 0 l 54 0 z "},"É":{"ha":864,"x_min":26,"x_max":901,"o":"m 54 0 q 33 10 40 0 q 28 33 25 19 l 219 938 q 234 963 222 953 q 260 972 246 972 l 874 972 q 896 963 889 972 q 900 938 903 953 l 881 844 q 866 820 878 829 q 840 811 854 811 l 383 811 l 331 568 l 757 568 q 779 558 772 568 q 783 533 786 549 l 765 446 q 751 422 763 431 q 724 413 739 413 l 299 413 l 244 161 l 713 161 q 735 151 728 161 q 739 128 742 142 l 719 33 q 705 9 717 18 q 679 0 693 0 l 54 0 m 507 1042 q 489 1061 486 1042 q 499 1081 489 1071 l 644 1219 q 672 1240 660 1235 q 701 1246 683 1246 l 851 1246 q 869 1239 864 1246 q 874 1222 875 1232 q 861 1201 871 1210 l 658 1060 q 633 1046 644 1050 q 604 1042 621 1042 l 507 1042 z "},"Ĕ":{"ha":864,"x_min":26,"x_max":901,"o":"m 54 0 q 33 10 40 0 q 28 33 25 19 l 219 938 q 234 963 222 953 q 260 972 246 972 l 874 972 q 896 963 889 972 q 900 938 903 953 l 881 844 q 866 820 878 829 q 840 811 854 811 l 383 811 l 331 568 l 757 568 q 779 558 772 568 q 783 533 786 549 l 765 446 q 751 422 763 431 q 724 413 739 413 l 299 413 l 244 161 l 713 161 q 735 151 728 161 q 739 128 742 142 l 719 33 q 705 9 717 18 q 679 0 693 0 l 54 0 m 578 1031 q 451 1072 496 1031 q 406 1176 406 1113 q 410 1215 406 1194 q 421 1234 413 1226 q 442 1242 429 1242 l 511 1242 q 529 1234 524 1242 q 532 1215 535 1226 q 529 1186 529 1196 q 585 1129 529 1129 q 647 1153 624 1129 q 679 1215 669 1178 q 690 1234 682 1226 q 711 1242 699 1242 l 781 1242 q 799 1234 793 1242 q 801 1215 804 1226 q 578 1031 763 1031 z "},"Ě":{"ha":864,"x_min":26,"x_max":901,"o":"m 54 0 q 33 10 40 0 q 28 33 25 19 l 219 938 q 234 963 222 953 q 260 972 246 972 l 874 972 q 896 963 889 972 q 900 938 903 953 l 881 844 q 866 820 878 829 q 840 811 854 811 l 383 811 l 331 568 l 757 568 q 779 558 772 568 q 783 533 786 549 l 765 446 q 751 422 763 431 q 724 413 739 413 l 299 413 l 244 161 l 713 161 q 735 151 728 161 q 739 128 742 142 l 719 33 q 705 9 717 18 q 679 0 693 0 l 54 0 m 529 1042 q 506 1046 515 1042 q 488 1064 497 1050 l 378 1207 q 374 1228 371 1218 q 381 1240 375 1235 q 397 1246 388 1246 l 450 1246 q 486 1236 471 1246 l 586 1163 l 718 1236 q 758 1246 739 1246 l 831 1246 q 847 1228 850 1246 q 836 1208 847 1217 l 665 1064 q 638 1046 649 1050 q 613 1042 626 1042 l 529 1042 z "},"Ê":{"ha":864,"x_min":26,"x_max":901,"o":"m 54 0 q 33 10 40 0 q 28 33 25 19 l 219 938 q 234 963 222 953 q 260 972 246 972 l 874 972 q 896 963 889 972 q 900 938 903 953 l 881 844 q 866 820 878 829 q 840 811 854 811 l 383 811 l 331 568 l 757 568 q 779 558 772 568 q 783 533 786 549 l 765 446 q 751 422 763 431 q 724 413 739 413 l 299 413 l 244 161 l 713 161 q 735 151 728 161 q 739 128 742 142 l 719 33 q 705 9 717 18 q 679 0 693 0 l 54 0 m 347 1042 q 334 1047 339 1042 q 331 1060 329 1051 q 343 1079 331 1071 l 513 1224 q 540 1242 529 1238 q 565 1246 551 1246 l 649 1246 q 672 1242 663 1246 q 692 1224 681 1238 l 800 1079 q 804 1060 807 1071 q 797 1047 803 1051 q 782 1042 790 1042 l 729 1042 q 692 1051 707 1042 l 592 1125 l 460 1051 q 421 1042 439 1042 l 347 1042 z "},"Ë":{"ha":864,"x_min":26,"x_max":901,"o":"m 54 0 q 33 10 40 0 q 28 33 25 19 l 219 938 q 234 963 222 953 q 260 972 246 972 l 874 972 q 896 963 889 972 q 900 938 903 953 l 881 844 q 866 820 878 829 q 840 811 854 811 l 383 811 l 331 568 l 757 568 q 779 558 772 568 q 783 533 786 549 l 765 446 q 751 422 763 431 q 724 413 739 413 l 299 413 l 244 161 l 713 161 q 735 151 728 161 q 739 128 742 142 l 719 33 q 705 9 717 18 q 679 0 693 0 l 54 0 m 372 1042 q 352 1050 358 1042 q 349 1072 346 1058 l 371 1175 q 384 1198 374 1189 q 408 1207 394 1207 l 511 1207 q 532 1198 525 1207 q 536 1175 539 1189 l 514 1072 q 500 1050 511 1058 q 475 1042 489 1042 l 372 1042 m 676 1042 q 656 1050 663 1042 q 653 1072 650 1058 l 674 1175 q 688 1198 676 1189 q 713 1207 699 1207 l 815 1207 q 836 1198 829 1207 q 840 1175 843 1189 l 818 1072 q 804 1050 815 1058 q 779 1042 793 1042 l 676 1042 z "},"Ė":{"ha":864,"x_min":26,"x_max":901,"o":"m 54 0 q 33 10 40 0 q 28 33 25 19 l 219 938 q 234 963 222 953 q 260 972 246 972 l 874 972 q 896 963 889 972 q 900 938 903 953 l 881 844 q 866 820 878 829 q 840 811 854 811 l 383 811 l 331 568 l 757 568 q 779 558 772 568 q 783 533 786 549 l 765 446 q 751 422 763 431 q 724 413 739 413 l 299 413 l 244 161 l 713 161 q 735 151 728 161 q 739 128 742 142 l 719 33 q 705 9 717 18 q 679 0 693 0 l 54 0 m 518 1042 q 498 1050 504 1042 q 494 1072 492 1058 l 519 1190 q 533 1213 522 1204 q 557 1222 543 1222 l 675 1222 q 696 1213 689 1222 q 700 1190 703 1204 l 675 1072 q 661 1050 672 1058 q 636 1042 650 1042 l 518 1042 z "},"È":{"ha":864,"x_min":26,"x_max":901,"o":"m 54 0 q 33 10 40 0 q 28 33 25 19 l 219 938 q 234 963 222 953 q 260 972 246 972 l 874 972 q 896 963 889 972 q 900 938 903 953 l 881 844 q 866 820 878 829 q 840 811 854 811 l 383 811 l 331 568 l 757 568 q 779 558 772 568 q 783 533 786 549 l 765 446 q 751 422 763 431 q 724 413 739 413 l 299 413 l 244 161 l 713 161 q 735 151 728 161 q 739 128 742 142 l 719 33 q 705 9 717 18 q 679 0 693 0 l 54 0 m 556 1042 q 529 1046 539 1042 q 510 1060 519 1050 l 369 1200 q 364 1214 364 1206 q 373 1237 364 1228 q 396 1246 382 1246 l 540 1246 q 567 1240 558 1246 q 586 1219 576 1235 l 671 1082 q 674 1068 674 1074 q 666 1049 674 1057 q 647 1042 658 1042 l 556 1042 z "},"Ē":{"ha":864,"x_min":26,"x_max":901,"o":"m 54 0 q 33 10 40 0 q 28 33 25 19 l 219 938 q 234 963 222 953 q 260 972 246 972 l 874 972 q 896 963 889 972 q 900 938 903 953 l 881 844 q 866 820 878 829 q 840 811 854 811 l 383 811 l 331 568 l 757 568 q 779 558 772 568 q 783 533 786 549 l 765 446 q 751 422 763 431 q 724 413 739 413 l 299 413 l 244 161 l 713 161 q 735 151 728 161 q 739 128 742 142 l 719 33 q 705 9 717 18 q 679 0 693 0 l 54 0 m 393 1042 q 373 1050 379 1042 q 369 1072 367 1058 l 385 1151 q 399 1174 388 1165 q 424 1182 410 1182 l 803 1182 q 823 1174 817 1182 q 826 1151 829 1165 l 811 1072 q 797 1050 808 1058 q 772 1042 786 1042 l 393 1042 z "},"Ę":{"ha":864,"x_min":25,"x_max":903,"o":"m 597 -306 q 468 -262 513 -306 q 424 -144 424 -218 q 429 -89 424 -115 q 467 0 440 -37 l 54 0 q 33 10 40 0 q 28 33 25 19 l 219 938 q 234 963 222 953 q 260 972 246 972 l 874 972 q 896 963 889 972 q 900 938 903 953 l 881 844 q 866 820 878 829 q 840 811 854 811 l 383 811 l 331 568 l 757 568 q 779 558 772 568 q 783 533 786 549 l 765 446 q 751 422 763 431 q 724 413 739 413 l 299 413 l 244 161 l 713 161 q 735 151 728 161 q 739 128 742 142 l 719 33 q 705 9 717 18 q 679 0 693 0 l 653 0 q 577 -37 607 -3 q 547 -119 547 -71 q 566 -170 547 -151 q 621 -189 585 -189 l 639 -189 q 661 -199 654 -189 q 665 -222 668 -208 l 654 -272 q 640 -297 651 -287 q 614 -306 628 -306 l 597 -306 z "},"F":{"ha":838,"x_min":25,"x_max":894,"o":"m 54 0 q 33 10 40 0 q 28 33 25 19 l 219 938 q 234 963 222 953 q 260 972 246 972 l 865 972 q 888 963 881 972 q 892 938 894 953 l 871 838 q 856 813 868 822 q 831 804 844 804 l 385 804 l 329 543 l 746 543 q 768 534 761 543 q 772 510 775 525 l 751 410 q 738 386 750 396 q 711 376 726 376 l 293 376 l 221 33 q 206 9 218 18 q 181 0 194 0 l 54 0 z "},"G":{"ha":974,"x_min":76,"x_max":982,"o":"m 417 -14 q 164 61 251 -14 q 76 272 76 136 q 85 360 76 314 q 140 618 106 483 q 311 888 182 790 q 629 986 440 986 q 826 949 746 986 q 944 855 906 913 q 982 738 982 797 q 979 707 982 726 q 967 686 978 694 q 944 678 957 678 l 799 678 q 778 683 785 678 q 768 701 772 688 q 720 789 761 753 q 594 825 679 825 q 432 773 497 825 q 340 611 367 721 q 288 367 307 483 q 282 304 282 335 q 453 147 282 147 q 622 200 551 147 q 715 358 692 253 l 724 401 l 556 401 q 533 411 540 401 q 529 435 526 421 l 546 511 q 560 535 549 526 q 586 544 572 544 l 918 544 q 941 535 933 544 q 946 511 949 526 l 914 364 q 820 163 889 249 q 647 32 751 78 q 417 -14 543 -14 z "},"Ğ":{"ha":972,"x_min":76,"x_max":982,"o":"m 417 -14 q 164 61 251 -14 q 76 272 76 136 q 85 360 76 314 q 140 618 106 483 q 311 888 182 790 q 629 986 440 986 q 826 949 746 986 q 944 855 906 913 q 982 738 982 797 q 979 707 982 726 q 967 686 978 694 q 944 678 957 678 l 799 678 q 778 683 785 678 q 768 701 772 688 q 720 789 761 753 q 594 825 679 825 q 432 773 497 825 q 340 611 367 721 q 288 367 307 483 q 282 304 282 335 q 453 147 282 147 q 622 200 551 147 q 715 358 692 253 l 724 401 l 556 401 q 533 411 540 401 q 529 435 526 421 l 546 511 q 560 535 549 526 q 586 544 572 544 l 918 544 q 941 535 933 544 q 946 511 949 526 l 914 364 q 820 163 889 249 q 647 32 751 78 q 417 -14 543 -14 m 617 1031 q 490 1072 535 1031 q 444 1176 444 1113 q 449 1215 444 1194 q 460 1234 451 1226 q 481 1242 468 1242 l 550 1242 q 568 1234 563 1242 q 571 1215 574 1226 q 568 1186 568 1196 q 624 1129 568 1129 q 685 1153 663 1129 q 718 1215 708 1178 q 729 1234 721 1226 q 750 1242 738 1242 l 819 1242 q 838 1234 832 1242 q 840 1215 843 1226 q 617 1031 801 1031 z "},"Ĝ":{"ha":972,"x_min":76,"x_max":982,"o":"m 417 -14 q 164 61 251 -14 q 76 272 76 136 q 85 360 76 314 q 140 618 106 483 q 311 888 182 790 q 629 986 440 986 q 826 949 746 986 q 944 855 906 913 q 982 738 982 797 q 979 707 982 726 q 967 686 978 694 q 944 678 957 678 l 799 678 q 778 683 785 678 q 768 701 772 688 q 720 789 761 753 q 594 825 679 825 q 432 773 497 825 q 340 611 367 721 q 288 367 307 483 q 282 304 282 335 q 453 147 282 147 q 622 200 551 147 q 715 358 692 253 l 724 401 l 556 401 q 533 411 540 401 q 529 435 526 421 l 546 511 q 560 535 549 526 q 586 544 572 544 l 918 544 q 941 535 933 544 q 946 511 949 526 l 914 364 q 820 163 889 249 q 647 32 751 78 q 417 -14 543 -14 m 383 1042 q 370 1047 375 1042 q 367 1060 365 1051 q 379 1079 367 1071 l 549 1224 q 576 1242 565 1238 q 601 1246 588 1246 l 685 1246 q 708 1242 699 1246 q 728 1224 717 1238 l 836 1079 q 840 1060 843 1071 q 833 1047 839 1051 q 818 1042 826 1042 l 765 1042 q 728 1051 743 1042 l 628 1125 l 496 1051 q 457 1042 475 1042 l 383 1042 z "},"Ģ":{"ha":972,"x_min":76,"x_max":982,"o":"m 417 -14 q 164 61 251 -14 q 76 272 76 136 q 85 360 76 314 q 140 618 106 483 q 311 888 182 790 q 629 986 440 986 q 826 949 746 986 q 944 855 906 913 q 982 738 982 797 q 979 707 982 726 q 967 686 978 694 q 944 678 957 678 l 799 678 q 778 683 785 678 q 768 701 772 688 q 720 789 761 753 q 594 825 679 825 q 432 773 497 825 q 340 611 367 721 q 288 367 307 483 q 282 304 282 335 q 453 147 282 147 q 622 200 551 147 q 715 358 692 253 l 724 401 l 556 401 q 533 411 540 401 q 529 435 526 421 l 546 511 q 560 535 549 526 q 586 544 572 544 l 918 544 q 941 535 933 544 q 946 511 949 526 l 914 364 q 820 163 889 249 q 647 32 751 78 q 417 -14 543 -14 m 231 -315 q 217 -309 222 -315 q 211 -294 211 -303 q 213 -283 211 -287 l 275 -114 q 296 -82 282 -94 q 331 -69 310 -69 l 454 -69 q 469 -76 464 -69 q 474 -93 475 -83 q 465 -114 471 -101 l 365 -279 q 313 -315 343 -315 l 231 -315 z "},"Ġ":{"ha":972,"x_min":76,"x_max":982,"o":"m 417 -14 q 164 61 251 -14 q 76 272 76 136 q 85 360 76 314 q 140 618 106 483 q 311 888 182 790 q 629 986 440 986 q 826 949 746 986 q 944 855 906 913 q 982 738 982 797 q 979 707 982 726 q 967 686 978 694 q 944 678 957 678 l 799 678 q 778 683 785 678 q 768 701 772 688 q 720 789 761 753 q 594 825 679 825 q 432 773 497 825 q 340 611 367 721 q 288 367 307 483 q 282 304 282 335 q 453 147 282 147 q 622 200 551 147 q 715 358 692 253 l 724 401 l 556 401 q 533 411 540 401 q 529 435 526 421 l 546 511 q 560 535 549 526 q 586 544 572 544 l 918 544 q 941 535 933 544 q 946 511 949 526 l 914 364 q 820 163 889 249 q 647 32 751 78 q 417 -14 543 -14 m 551 1042 q 531 1050 538 1042 q 528 1072 525 1058 l 553 1190 q 566 1213 556 1204 q 590 1222 576 1222 l 708 1222 q 729 1213 722 1222 q 733 1190 736 1204 l 708 1072 q 694 1050 706 1058 q 669 1042 683 1042 l 551 1042 z "},"H":{"ha":1014,"x_min":25,"x_max":1021,"o":"m 54 0 q 33 10 40 0 q 28 33 25 19 l 219 938 q 234 963 222 953 q 260 972 246 972 l 389 972 q 411 963 404 972 q 415 938 418 953 l 339 581 l 746 581 l 822 938 q 836 963 825 953 q 863 972 847 972 l 990 972 q 1013 963 1006 972 q 1018 938 1021 953 l 825 33 q 811 9 822 18 q 785 0 800 0 l 657 0 q 634 10 642 0 q 629 33 626 19 l 708 404 l 303 404 l 224 33 q 209 9 221 18 q 183 0 197 0 l 54 0 z "},"Ħ":{"ha":1021,"x_min":25,"x_max":1053,"o":"m 1024 835 q 1046 825 1039 835 q 1050 800 1053 815 l 1040 749 q 1026 725 1038 735 q 999 715 1014 715 l 971 715 l 825 33 q 811 9 822 18 q 785 0 800 0 l 657 0 q 634 10 642 0 q 629 33 626 19 l 708 404 l 303 404 l 224 33 q 209 9 221 18 q 183 0 197 0 l 54 0 q 33 10 40 0 q 28 33 25 19 l 172 715 l 146 715 q 125 725 132 715 q 121 749 118 735 l 131 800 q 145 825 133 815 q 172 835 157 835 l 197 835 l 219 938 q 234 963 222 953 q 260 972 246 972 l 389 972 q 411 963 404 972 q 415 938 418 953 l 393 835 l 800 835 l 822 938 q 836 963 825 953 q 863 972 847 972 l 990 972 q 1013 963 1006 972 q 1018 938 1021 953 l 996 835 l 1024 835 m 746 581 l 775 715 l 368 715 l 339 581 l 746 581 z "},"Ĥ":{"ha":1014,"x_min":26,"x_max":1019,"o":"m 54 0 q 33 10 40 0 q 28 33 25 19 l 219 938 q 234 963 222 953 q 260 972 246 972 l 389 972 q 411 963 404 972 q 415 938 418 953 l 339 581 l 746 581 l 822 938 q 836 963 825 953 q 863 972 847 972 l 990 972 q 1013 963 1006 972 q 1018 938 1021 953 l 825 33 q 811 9 822 18 q 785 0 800 0 l 657 0 q 634 10 642 0 q 629 33 626 19 l 708 404 l 303 404 l 224 33 q 209 9 221 18 q 183 0 197 0 l 54 0 m 399 1042 q 385 1047 390 1042 q 382 1060 381 1051 q 394 1079 382 1071 l 564 1224 q 592 1242 581 1238 q 617 1246 603 1246 l 700 1246 q 723 1242 714 1246 q 743 1224 732 1238 l 851 1079 q 856 1060 858 1071 q 848 1047 854 1051 q 833 1042 842 1042 l 781 1042 q 743 1051 758 1042 l 643 1125 l 511 1051 q 472 1042 490 1042 l 399 1042 z "},"I":{"ha":417,"x_min":24,"x_max":424,"o":"m 54 0 q 31 10 39 0 q 26 33 24 19 l 221 939 q 234 963 222 953 q 260 972 246 972 l 394 972 q 416 963 408 972 q 421 939 424 953 l 228 33 q 214 10 225 19 q 189 0 203 0 l 54 0 z "},"Ĳ":{"ha":944,"x_min":25,"x_max":960,"o":"m 54 0 q 33 10 40 0 q 28 33 25 19 l 221 939 q 234 963 222 953 q 260 972 246 972 l 394 972 q 416 963 408 972 q 421 939 424 953 l 228 33 q 214 10 225 19 q 189 0 203 0 l 54 0 m 363 -14 q 340 -4 347 -14 q 336 19 333 6 l 358 125 q 373 149 361 139 q 399 160 385 160 q 553 217 493 160 q 638 381 614 274 l 757 939 q 769 963 758 953 q 796 972 781 972 l 929 972 q 952 963 944 972 q 957 938 960 953 l 833 356 q 684 75 793 164 q 363 -14 575 -14 z "},"Í":{"ha":417,"x_min":25,"x_max":647,"o":"m 54 0 q 31 10 39 0 q 26 33 24 19 l 221 939 q 234 963 222 953 q 260 972 246 972 l 394 972 q 416 963 408 972 q 421 939 424 953 l 228 33 q 214 10 225 19 q 189 0 203 0 l 54 0 m 281 1042 q 263 1061 260 1042 q 272 1081 263 1071 l 418 1219 q 445 1240 433 1235 q 475 1246 457 1246 l 625 1246 q 643 1239 638 1246 q 647 1222 649 1232 q 635 1201 644 1210 l 432 1060 q 406 1046 418 1050 q 378 1042 394 1042 l 281 1042 z "},"Ĭ":{"ha":417,"x_min":25,"x_max":576,"o":"m 54 0 q 31 10 39 0 q 26 33 24 19 l 221 939 q 234 963 222 953 q 260 972 246 972 l 394 972 q 416 963 408 972 q 421 939 424 953 l 228 33 q 214 10 225 19 q 189 0 203 0 l 54 0 m 353 1031 q 226 1072 271 1031 q 181 1176 181 1113 q 185 1215 181 1194 q 196 1234 188 1226 q 217 1242 204 1242 l 286 1242 q 304 1234 299 1242 q 307 1215 310 1226 q 304 1186 304 1196 q 360 1129 304 1129 q 422 1153 399 1129 q 454 1215 444 1178 q 465 1234 457 1226 q 486 1242 474 1242 l 556 1242 q 574 1234 568 1242 q 576 1215 579 1226 q 353 1031 538 1031 z "},"Î":{"ha":417,"x_min":25,"x_max":572,"o":"m 54 0 q 31 10 39 0 q 26 33 24 19 l 221 939 q 234 963 222 953 q 260 972 246 972 l 394 972 q 416 963 408 972 q 421 939 424 953 l 228 33 q 214 10 225 19 q 189 0 203 0 l 54 0 m 115 1042 q 102 1047 107 1042 q 99 1060 97 1051 q 111 1079 99 1071 l 281 1224 q 308 1242 297 1238 q 333 1246 319 1246 l 417 1246 q 440 1242 431 1246 q 460 1224 449 1238 l 568 1079 q 572 1060 575 1071 q 565 1047 571 1051 q 550 1042 558 1042 l 497 1042 q 460 1051 475 1042 l 360 1125 l 228 1051 q 189 1042 207 1042 l 115 1042 z "},"Ï":{"ha":417,"x_min":25,"x_max":607,"o":"m 54 0 q 31 10 39 0 q 26 33 24 19 l 221 939 q 234 963 222 953 q 260 972 246 972 l 394 972 q 416 963 408 972 q 421 939 424 953 l 228 33 q 214 10 225 19 q 189 0 203 0 l 54 0 m 138 1042 q 117 1050 124 1042 q 114 1072 111 1058 l 136 1175 q 149 1198 139 1189 q 174 1207 160 1207 l 276 1207 q 297 1198 290 1207 q 301 1175 304 1189 l 279 1072 q 265 1050 276 1058 q 240 1042 254 1042 l 138 1042 m 442 1042 q 422 1050 428 1042 q 418 1072 415 1058 l 439 1175 q 453 1198 442 1189 q 478 1207 464 1207 l 581 1207 q 601 1198 594 1207 q 606 1175 608 1189 l 583 1072 q 569 1050 581 1058 q 544 1042 558 1042 l 442 1042 z "},"İ":{"ha":417,"x_min":25,"x_max":465,"o":"m 54 0 q 31 10 39 0 q 26 33 24 19 l 221 939 q 234 963 222 953 q 260 972 246 972 l 394 972 q 416 963 408 972 q 421 939 424 953 l 228 33 q 214 10 225 19 q 189 0 203 0 l 54 0 m 282 1042 q 262 1050 268 1042 q 258 1072 256 1058 l 283 1190 q 297 1213 286 1204 q 321 1222 307 1222 l 439 1222 q 460 1213 453 1222 q 464 1190 467 1204 l 439 1072 q 425 1050 436 1058 q 400 1042 414 1042 l 282 1042 z "},"Ì":{"ha":417,"x_min":25,"x_max":431,"o":"m 54 0 q 31 10 39 0 q 26 33 24 19 l 221 939 q 234 963 222 953 q 260 972 246 972 l 394 972 q 416 963 408 972 q 421 939 424 953 l 228 33 q 214 10 225 19 q 189 0 203 0 l 54 0 m 313 1042 q 286 1046 296 1042 q 267 1060 276 1050 l 126 1200 q 121 1214 121 1206 q 130 1237 121 1228 q 153 1246 139 1246 l 297 1246 q 324 1240 315 1246 q 343 1219 333 1235 l 428 1082 q 431 1068 431 1074 q 423 1049 431 1057 q 404 1042 415 1042 l 313 1042 z "},"Ī":{"ha":417,"x_min":25,"x_max":588,"o":"m 54 0 q 31 10 39 0 q 26 33 24 19 l 221 939 q 234 963 222 953 q 260 972 246 972 l 394 972 q 416 963 408 972 q 421 939 424 953 l 228 33 q 214 10 225 19 q 189 0 203 0 l 54 0 m 153 1042 q 133 1050 139 1042 q 129 1072 126 1058 l 144 1151 q 158 1174 147 1165 q 183 1182 169 1182 l 563 1182 q 583 1174 576 1182 q 586 1151 589 1165 l 571 1072 q 557 1050 568 1058 q 532 1042 546 1042 l 153 1042 z "},"Į":{"ha":431,"x_min":-35,"x_max":457,"o":"m 133 -307 q 8 -266 51 -307 q -35 -156 -35 -225 q -28 -96 -35 -131 q 15 -5 -18 -42 q 93 44 47 32 l 82 51 q 72 60 75 53 q 71 75 68 67 l 254 939 q 269 963 257 953 q 294 972 281 972 l 428 972 q 450 963 443 972 q 454 939 457 953 l 263 33 q 248 10 260 19 q 221 0 236 0 l 204 0 q 123 -35 156 0 q 90 -121 90 -71 q 110 -172 90 -153 q 164 -190 129 -190 l 182 -190 q 204 -200 197 -190 q 208 -224 211 -210 l 197 -274 q 183 -297 194 -287 q 156 -307 171 -307 l 133 -307 z "},"Ĩ":{"ha":417,"x_min":25,"x_max":590,"o":"m 54 0 q 31 10 39 0 q 26 33 24 19 l 221 939 q 234 963 222 953 q 260 972 246 972 l 394 972 q 416 963 408 972 q 421 939 424 953 l 228 33 q 214 10 225 19 q 189 0 203 0 l 54 0 m 429 1035 q 385 1042 403 1035 q 340 1063 368 1049 q 311 1078 322 1074 q 286 1083 300 1083 q 260 1077 269 1083 q 240 1060 250 1071 q 211 1042 225 1042 l 146 1042 q 131 1049 136 1042 q 126 1065 125 1056 q 153 1133 132 1097 q 208 1194 174 1169 q 288 1219 243 1219 q 335 1212 315 1219 q 376 1190 354 1204 q 396 1180 379 1189 q 431 1171 413 1171 q 476 1194 456 1171 q 507 1213 492 1213 l 571 1213 q 588 1206 582 1213 q 590 1189 593 1199 q 564 1121 585 1157 q 508 1060 543 1085 q 429 1035 474 1035 z "},"J":{"ha":901,"x_min":7,"x_max":917,"o":"m 350 -14 q 184 16 263 -14 q 56 105 106 46 q 7 249 7 164 q 11 293 7 271 q 24 315 14 307 q 46 324 33 324 l 182 324 q 215 289 213 324 q 361 147 207 147 q 511 203 454 147 q 589 361 568 258 l 685 806 l 214 806 q 192 815 200 806 q 188 840 185 825 l 210 939 q 222 963 211 953 q 249 972 233 972 l 886 972 q 909 963 901 972 q 914 938 917 953 l 790 356 q 645 80 751 174 q 350 -14 539 -14 z "},"Ĵ":{"ha":901,"x_min":7,"x_max":915,"o":"m 350 -14 q 184 16 263 -14 q 56 105 106 46 q 7 249 7 164 q 11 293 7 271 q 24 315 14 307 q 46 324 33 324 l 182 324 q 215 289 213 324 q 361 147 207 147 q 511 203 454 147 q 589 361 568 258 l 685 806 l 214 806 q 192 815 200 806 q 188 840 185 825 l 210 939 q 222 963 211 953 q 249 972 233 972 l 886 972 q 909 963 901 972 q 914 938 917 953 l 790 356 q 645 80 751 174 q 350 -14 539 -14 m 360 1042 q 347 1047 351 1042 q 343 1060 342 1051 q 356 1079 343 1071 l 525 1224 q 553 1242 542 1238 q 578 1246 564 1246 l 661 1246 q 684 1242 675 1246 q 704 1224 693 1238 l 813 1079 q 817 1060 819 1071 q 809 1047 815 1051 q 794 1042 803 1042 l 742 1042 q 704 1051 719 1042 l 604 1125 l 472 1051 q 433 1042 451 1042 l 360 1042 z "},"K":{"ha":868,"x_min":25,"x_max":933,"o":"m 54 0 q 33 10 40 0 q 28 33 25 19 l 219 938 q 233 963 222 953 q 258 972 244 972 l 386 972 q 408 963 401 972 q 413 938 415 953 l 346 621 l 704 947 q 763 972 725 972 l 907 972 q 926 964 919 972 q 933 944 933 956 q 925 925 933 933 l 464 494 l 771 47 q 776 31 776 40 q 767 9 776 18 q 744 0 757 0 l 606 0 q 558 25 571 0 l 299 397 l 221 33 q 207 9 218 18 q 182 0 196 0 l 54 0 z "},"Ķ":{"ha":868,"x_min":26,"x_max":933,"o":"m 54 0 q 33 10 40 0 q 28 33 25 19 l 219 938 q 233 963 222 953 q 258 972 244 972 l 386 972 q 408 963 401 972 q 413 938 415 953 l 346 621 l 704 947 q 763 972 725 972 l 907 972 q 926 964 919 972 q 933 944 933 956 q 925 925 933 933 l 464 494 l 771 47 q 776 31 776 40 q 767 9 776 18 q 744 0 757 0 l 606 0 q 558 25 571 0 l 299 397 l 221 33 q 207 9 218 18 q 182 0 196 0 l 54 0 m 207 -315 q 193 -309 199 -315 q 188 -294 188 -303 q 189 -283 188 -287 l 251 -114 q 272 -82 258 -94 q 307 -69 286 -69 l 431 -69 q 446 -76 440 -69 q 450 -93 451 -83 q 442 -114 447 -101 l 342 -279 q 289 -315 319 -315 l 207 -315 z "},"L":{"ha":799,"x_min":25,"x_max":724,"o":"m 54 0 q 33 10 40 0 q 28 33 25 19 l 221 939 q 234 963 222 953 q 260 972 246 972 l 392 972 q 414 963 406 972 q 419 939 422 954 l 254 167 l 694 167 q 717 157 710 167 q 721 133 724 147 l 700 33 q 685 9 697 18 q 660 0 674 0 l 54 0 z "},"Ĺ":{"ha":799,"x_min":26,"x_max":722,"o":"m 54 0 q 33 10 40 0 q 28 33 25 19 l 221 939 q 234 963 222 953 q 260 972 246 972 l 392 972 q 414 963 406 972 q 419 939 422 954 l 254 167 l 694 167 q 717 157 710 167 q 721 133 724 147 l 700 33 q 685 9 697 18 q 660 0 674 0 l 54 0 m 278 1042 q 260 1061 257 1042 q 269 1081 260 1071 l 415 1219 q 442 1240 431 1235 q 472 1246 454 1246 l 622 1246 q 640 1239 635 1246 q 644 1222 646 1232 q 632 1201 642 1210 l 429 1060 q 403 1046 415 1050 q 375 1042 392 1042 l 278 1042 z "},"Ľ":{"ha":803,"x_min":26,"x_max":761,"o":"m 518 740 q 504 747 510 740 q 499 761 499 753 q 500 772 499 768 l 563 942 q 583 974 569 961 q 618 986 597 986 l 742 986 q 757 979 751 986 q 761 963 763 972 q 753 942 758 954 l 653 776 q 600 740 631 740 l 518 740 m 54 0 q 33 10 40 0 q 28 33 25 19 l 221 939 q 234 963 222 953 q 260 972 246 972 l 392 972 q 414 963 406 972 q 419 939 422 954 l 254 167 l 694 167 q 717 157 710 167 q 721 133 724 147 l 700 33 q 685 9 697 18 q 660 0 674 0 l 54 0 z "},"Ļ":{"ha":799,"x_min":26,"x_max":722,"o":"m 54 0 q 33 10 40 0 q 28 33 25 19 l 221 939 q 234 963 222 953 q 260 972 246 972 l 392 972 q 414 963 406 972 q 419 939 422 954 l 254 167 l 694 167 q 717 157 710 167 q 721 133 724 147 l 700 33 q 685 9 697 18 q 660 0 674 0 l 54 0 m 181 -315 q 167 -309 172 -315 q 161 -294 161 -303 q 163 -283 161 -287 l 225 -114 q 246 -82 232 -94 q 281 -69 260 -69 l 404 -69 q 419 -76 414 -69 q 424 -93 425 -83 q 415 -114 421 -101 l 315 -279 q 263 -315 293 -315 l 181 -315 z "},"Ŀ":{"ha":799,"x_min":25,"x_max":724,"o":"m 54 0 q 33 10 40 0 q 28 33 25 19 l 221 939 q 234 963 222 953 q 260 972 246 972 l 392 972 q 414 963 406 972 q 419 939 422 954 l 254 167 l 694 167 q 717 157 710 167 q 721 133 724 147 l 700 33 q 685 9 697 18 q 660 0 674 0 l 54 0 m 486 432 q 465 441 472 432 q 461 464 458 450 l 486 581 q 499 603 489 594 q 524 613 510 613 l 642 613 q 663 603 656 613 q 667 581 669 594 l 642 464 q 628 441 639 450 q 603 432 617 432 l 486 432 z "},"Ł":{"ha":810,"x_min":6,"x_max":735,"o":"m 65 0 q 44 10 51 0 q 39 33 36 19 l 110 367 l 47 344 q 29 340 35 340 q 12 348 18 340 q 8 368 6 356 l 25 446 q 36 470 28 463 q 64 485 44 478 l 140 513 l 232 939 q 245 963 233 953 q 271 972 257 972 l 403 972 q 425 963 417 972 q 431 939 433 954 l 356 590 l 574 668 q 592 672 586 672 q 609 665 603 672 q 614 646 615 658 l 597 568 q 585 544 593 551 q 558 529 576 536 l 325 444 l 265 167 l 706 167 q 728 157 721 167 q 732 133 735 147 l 711 33 q 697 9 708 18 q 671 0 685 0 l 65 0 z "},"M":{"ha":1129,"x_min":25,"x_max":1136,"o":"m 56 0 q 33 10 40 0 q 28 33 25 19 l 219 938 q 234 963 222 953 q 261 972 246 972 l 374 972 q 411 946 400 972 l 574 449 l 947 946 q 994 972 968 972 l 1106 972 q 1128 963 1121 972 q 1133 938 1136 953 l 940 33 q 926 9 938 18 q 900 0 914 0 l 781 0 q 758 10 765 0 q 753 33 750 19 l 876 618 l 614 264 q 588 241 600 249 q 561 233 576 233 l 503 233 q 463 264 472 233 l 343 639 l 215 33 q 201 10 213 19 q 176 0 190 0 l 56 0 z "},"N":{"ha":985,"x_min":25,"x_max":990,"o":"m 54 0 q 33 10 40 0 q 28 33 25 19 l 219 938 q 233 963 222 953 q 260 972 244 972 l 367 972 q 403 949 394 972 l 671 326 l 801 938 q 815 963 804 953 q 842 972 826 972 l 961 972 q 983 963 976 972 q 988 938 990 953 l 796 35 q 782 10 793 19 q 756 0 771 0 l 649 0 q 624 7 632 0 q 611 24 617 14 l 343 632 l 215 33 q 201 9 213 18 q 175 0 189 0 l 54 0 z "},"Ń":{"ha":985,"x_min":26,"x_max":989,"o":"m 54 0 q 33 10 40 0 q 28 33 25 19 l 219 938 q 233 963 222 953 q 260 972 244 972 l 367 972 q 403 949 394 972 l 671 326 l 801 938 q 815 963 804 953 q 842 972 826 972 l 961 972 q 983 963 976 972 q 988 938 990 953 l 796 35 q 782 10 793 19 q 756 0 771 0 l 649 0 q 624 7 632 0 q 611 24 617 14 l 343 632 l 215 33 q 201 9 213 18 q 175 0 189 0 l 54 0 m 543 1042 q 525 1061 522 1042 q 535 1081 525 1071 l 681 1219 q 708 1240 696 1235 q 738 1246 719 1246 l 888 1246 q 906 1239 900 1246 q 910 1222 911 1232 q 897 1201 907 1210 l 694 1060 q 669 1046 681 1050 q 640 1042 657 1042 l 543 1042 z "},"Ň":{"ha":985,"x_min":26,"x_max":989,"o":"m 54 0 q 33 10 40 0 q 28 33 25 19 l 219 938 q 233 963 222 953 q 260 972 244 972 l 367 972 q 403 949 394 972 l 671 326 l 801 938 q 815 963 804 953 q 842 972 826 972 l 961 972 q 983 963 976 972 q 988 938 990 953 l 796 35 q 782 10 793 19 q 756 0 771 0 l 649 0 q 624 7 632 0 q 611 24 617 14 l 343 632 l 215 33 q 201 9 213 18 q 175 0 189 0 l 54 0 m 569 1042 q 547 1046 556 1042 q 528 1064 538 1050 l 418 1207 q 414 1228 411 1218 q 422 1240 415 1235 q 438 1246 428 1246 l 490 1246 q 526 1236 511 1246 l 626 1163 l 758 1236 q 799 1246 779 1246 l 871 1246 q 888 1228 890 1246 q 876 1208 888 1217 l 706 1064 q 678 1046 689 1050 q 653 1042 667 1042 l 569 1042 z "},"Ņ":{"ha":985,"x_min":26,"x_max":989,"o":"m 54 0 q 33 10 40 0 q 28 33 25 19 l 219 938 q 233 963 222 953 q 260 972 244 972 l 367 972 q 403 949 394 972 l 671 326 l 801 938 q 815 963 804 953 q 842 972 826 972 l 961 972 q 983 963 976 972 q 988 938 990 953 l 796 35 q 782 10 793 19 q 756 0 771 0 l 649 0 q 624 7 632 0 q 611 24 617 14 l 343 632 l 215 33 q 201 9 213 18 q 175 0 189 0 l 54 0 m 244 -315 q 231 -309 236 -315 q 225 -294 225 -303 q 226 -283 225 -287 l 289 -114 q 310 -82 296 -94 q 344 -69 324 -69 l 468 -69 q 483 -76 478 -69 q 488 -93 489 -83 q 479 -114 485 -101 l 379 -279 q 326 -315 357 -315 l 244 -315 z "},"Ŋ":{"ha":982,"x_min":44,"x_max":1008,"o":"m 417 -312 q 394 -303 401 -312 q 390 -279 388 -293 l 411 -179 q 426 -156 414 -165 q 453 -146 439 -146 l 479 -146 q 572 -114 540 -146 q 614 -25 603 -82 l 625 29 l 360 626 l 235 33 q 220 10 232 19 q 193 0 208 0 l 74 0 q 51 10 58 0 q 47 33 44 19 l 239 938 q 253 963 242 953 q 281 972 265 972 l 389 972 q 414 965 406 972 q 424 949 422 957 l 690 332 l 819 938 q 833 963 822 953 q 860 972 844 972 l 979 972 q 1001 963 994 972 q 1006 938 1008 953 l 800 -31 q 676 -239 771 -165 q 429 -312 582 -312 l 417 -312 z "},"Ñ":{"ha":985,"x_min":26,"x_max":989,"o":"m 54 0 q 33 10 40 0 q 28 33 25 19 l 219 938 q 233 963 222 953 q 260 972 244 972 l 367 972 q 403 949 394 972 l 671 326 l 801 938 q 815 963 804 953 q 842 972 826 972 l 961 972 q 983 963 976 972 q 988 938 990 953 l 796 35 q 782 10 793 19 q 756 0 771 0 l 649 0 q 624 7 632 0 q 611 24 617 14 l 343 632 l 215 33 q 201 9 213 18 q 175 0 189 0 l 54 0 m 704 1035 q 660 1042 678 1035 q 615 1063 643 1049 q 586 1078 597 1074 q 561 1083 575 1083 q 535 1077 544 1083 q 515 1060 525 1071 q 486 1042 500 1042 l 421 1042 q 406 1049 411 1042 q 401 1065 400 1056 q 428 1133 407 1097 q 483 1194 449 1169 q 563 1219 518 1219 q 610 1212 590 1219 q 651 1190 629 1204 q 671 1180 654 1189 q 706 1171 688 1171 q 751 1194 731 1171 q 782 1213 767 1213 l 846 1213 q 863 1206 857 1213 q 865 1189 868 1199 q 839 1121 860 1157 q 783 1060 818 1085 q 704 1035 749 1035 z "},"O":{"ha":965,"x_min":58,"x_max":939,"o":"m 410 -14 q 155 63 251 -14 q 58 285 58 139 q 65 367 58 331 q 117 604 93 514 q 281 890 163 793 q 588 986 399 986 q 842 908 746 986 q 939 686 939 831 q 931 604 939 649 q 881 367 913 494 q 716 81 833 175 q 410 -14 599 -14 m 422 147 q 585 203 517 147 q 681 374 653 258 q 729 599 710 499 q 736 671 736 643 q 576 825 736 825 q 413 769 481 825 q 317 599 344 714 q 269 374 286 472 q 263 299 263 339 q 303 184 263 221 q 422 147 343 147 z "},"Ó":{"ha":965,"x_min":58,"x_max":939,"o":"m 410 -14 q 155 63 251 -14 q 58 285 58 139 q 65 367 58 331 q 117 604 93 514 q 281 890 163 793 q 588 986 399 986 q 842 908 746 986 q 939 686 939 831 q 931 604 939 649 q 881 367 913 494 q 716 81 833 175 q 410 -14 599 -14 m 422 147 q 585 203 517 147 q 681 374 653 258 q 729 599 710 499 q 736 671 736 643 q 576 825 736 825 q 413 769 481 825 q 317 599 344 714 q 269 374 286 472 q 263 299 263 339 q 303 184 263 221 q 422 147 343 147 m 536 1042 q 518 1061 515 1042 q 528 1081 518 1071 l 674 1219 q 701 1240 689 1235 q 731 1246 713 1246 l 881 1246 q 899 1239 893 1246 q 903 1222 904 1232 q 890 1201 900 1210 l 688 1060 q 662 1046 674 1050 q 633 1042 650 1042 l 536 1042 z "},"Ŏ":{"ha":965,"x_min":58,"x_max":939,"o":"m 410 -14 q 155 63 251 -14 q 58 285 58 139 q 65 367 58 331 q 117 604 93 514 q 281 890 163 793 q 588 986 399 986 q 842 908 746 986 q 939 686 939 831 q 931 604 939 649 q 881 367 913 494 q 716 81 833 175 q 410 -14 599 -14 m 422 147 q 585 203 517 147 q 681 374 653 258 q 729 599 710 499 q 736 671 736 643 q 576 825 736 825 q 413 769 481 825 q 317 599 344 714 q 269 374 286 472 q 263 299 263 339 q 303 184 263 221 q 422 147 343 147 m 614 1031 q 487 1072 532 1031 q 442 1176 442 1113 q 446 1215 442 1194 q 457 1234 449 1226 q 478 1242 465 1242 l 547 1242 q 565 1234 560 1242 q 568 1215 571 1226 q 565 1186 565 1196 q 621 1129 565 1129 q 683 1153 660 1129 q 715 1215 706 1178 q 726 1234 718 1226 q 747 1242 735 1242 l 817 1242 q 835 1234 829 1242 q 838 1215 840 1226 q 614 1031 799 1031 z "},"Ô":{"ha":965,"x_min":58,"x_max":939,"o":"m 410 -14 q 155 63 251 -14 q 58 285 58 139 q 65 367 58 331 q 117 604 93 514 q 281 890 163 793 q 588 986 399 986 q 842 908 746 986 q 939 686 939 831 q 931 604 939 649 q 881 367 913 494 q 716 81 833 175 q 410 -14 599 -14 m 422 147 q 585 203 517 147 q 681 374 653 258 q 729 599 710 499 q 736 671 736 643 q 576 825 736 825 q 413 769 481 825 q 317 599 344 714 q 269 374 286 472 q 263 299 263 339 q 303 184 263 221 q 422 147 343 147 m 383 1042 q 370 1047 375 1042 q 367 1060 365 1051 q 379 1079 367 1071 l 549 1224 q 576 1242 565 1238 q 601 1246 588 1246 l 685 1246 q 708 1242 699 1246 q 728 1224 717 1238 l 836 1079 q 840 1060 843 1071 q 833 1047 839 1051 q 818 1042 826 1042 l 765 1042 q 728 1051 743 1042 l 628 1125 l 496 1051 q 457 1042 475 1042 l 383 1042 z "},"Ö":{"ha":965,"x_min":58,"x_max":939,"o":"m 410 -14 q 155 63 251 -14 q 58 285 58 139 q 65 367 58 331 q 117 604 93 514 q 281 890 163 793 q 588 986 399 986 q 842 908 746 986 q 939 686 939 831 q 931 604 939 649 q 881 367 913 494 q 716 81 833 175 q 410 -14 599 -14 m 422 147 q 585 203 517 147 q 681 374 653 258 q 729 599 710 499 q 736 671 736 643 q 576 825 736 825 q 413 769 481 825 q 317 599 344 714 q 269 374 286 472 q 263 299 263 339 q 303 184 263 221 q 422 147 343 147 m 407 1042 q 387 1050 393 1042 q 383 1072 381 1058 l 406 1175 q 419 1198 408 1189 q 443 1207 429 1207 l 546 1207 q 567 1198 560 1207 q 571 1175 574 1189 l 549 1072 q 535 1050 546 1058 q 510 1042 524 1042 l 407 1042 m 711 1042 q 691 1050 697 1042 q 688 1072 685 1058 l 708 1175 q 722 1198 711 1189 q 747 1207 733 1207 l 850 1207 q 871 1198 864 1207 q 875 1175 878 1189 l 853 1072 q 839 1050 850 1058 q 814 1042 828 1042 l 711 1042 z "},"Ò":{"ha":965,"x_min":58,"x_max":939,"o":"m 410 -14 q 155 63 251 -14 q 58 285 58 139 q 65 367 58 331 q 117 604 93 514 q 281 890 163 793 q 588 986 399 986 q 842 908 746 986 q 939 686 939 831 q 931 604 939 649 q 881 367 913 494 q 716 81 833 175 q 410 -14 599 -14 m 422 147 q 585 203 517 147 q 681 374 653 258 q 729 599 710 499 q 736 671 736 643 q 576 825 736 825 q 413 769 481 825 q 317 599 344 714 q 269 374 286 472 q 263 299 263 339 q 303 184 263 221 q 422 147 343 147 m 578 1042 q 551 1046 561 1042 q 532 1060 542 1050 l 392 1200 q 386 1214 386 1206 q 395 1237 386 1228 q 418 1246 404 1246 l 563 1246 q 590 1240 581 1246 q 608 1219 599 1235 l 693 1082 q 696 1068 696 1074 q 688 1049 696 1057 q 669 1042 681 1042 l 578 1042 z "},"Ő":{"ha":965,"x_min":58,"x_max":976,"o":"m 410 -14 q 155 63 251 -14 q 58 285 58 139 q 65 367 58 331 q 117 604 93 514 q 281 890 163 793 q 588 986 399 986 q 842 908 746 986 q 939 686 939 831 q 931 604 939 649 q 881 367 913 494 q 716 81 833 175 q 410 -14 599 -14 m 422 147 q 585 203 517 147 q 681 374 653 258 q 729 599 710 499 q 736 671 736 643 q 576 825 736 825 q 413 769 481 825 q 317 599 344 714 q 269 374 286 472 q 263 299 263 339 q 303 184 263 221 q 422 147 343 147 m 429 1042 q 410 1060 410 1042 q 419 1079 411 1068 l 513 1219 q 569 1246 529 1246 l 693 1246 q 710 1240 704 1246 q 715 1224 717 1233 q 704 1203 713 1211 l 549 1061 q 501 1042 526 1042 l 429 1042 m 690 1042 q 672 1060 669 1042 q 682 1079 672 1067 l 774 1219 q 797 1240 783 1233 q 831 1246 810 1246 l 954 1246 q 972 1240 965 1246 q 976 1224 978 1233 q 965 1203 976 1211 l 811 1061 q 763 1042 789 1042 l 690 1042 z "},"Ō":{"ha":965,"x_min":58,"x_max":939,"o":"m 410 -14 q 155 63 251 -14 q 58 285 58 139 q 65 367 58 331 q 117 604 93 514 q 281 890 163 793 q 588 986 399 986 q 842 908 746 986 q 939 686 939 831 q 931 604 939 649 q 881 367 913 494 q 716 81 833 175 q 410 -14 599 -14 m 422 147 q 585 203 517 147 q 681 374 653 258 q 729 599 710 499 q 736 671 736 643 q 576 825 736 825 q 413 769 481 825 q 317 599 344 714 q 269 374 286 472 q 263 299 263 339 q 303 184 263 221 q 422 147 343 147 m 421 1042 q 401 1050 407 1042 q 397 1072 394 1058 l 413 1151 q 426 1174 415 1165 q 451 1182 438 1182 l 831 1182 q 851 1174 844 1182 q 854 1151 857 1165 l 839 1072 q 825 1050 836 1058 q 800 1042 814 1042 l 421 1042 z "},"Ø":{"ha":1004,"x_min":4,"x_max":1075,"o":"m 433 -14 q 186 56 271 -14 q 101 269 101 126 l 46 250 q 28 246 35 246 q 10 253 15 246 q 7 272 4 260 l 24 350 q 35 375 26 367 q 61 390 43 383 l 115 408 q 158 604 136 522 q 333 888 203 789 q 646 986 463 986 q 882 918 796 986 q 975 719 968 850 l 1033 740 q 1051 744 1044 744 q 1069 738 1064 744 q 1074 718 1075 731 l 1057 639 q 1044 615 1053 622 q 1018 600 1036 607 l 968 583 q 929 396 958 531 l 922 367 q 749 81 875 176 q 433 -14 624 -14 m 774 646 q 736 781 779 736 q 613 825 693 825 q 453 769 521 825 q 358 599 386 713 q 333 489 339 526 l 774 646 m 468 147 q 628 203 561 147 q 722 374 694 260 l 751 504 l 306 343 q 303 307 303 318 q 347 186 303 225 q 468 147 390 147 z "},"Ǿ":{"ha":1001,"x_min":6,"x_max":1074,"o":"m 563 1042 q 544 1061 542 1042 q 554 1081 544 1071 l 700 1219 q 727 1240 715 1235 q 757 1246 739 1246 l 907 1246 q 925 1239 919 1246 q 929 1222 931 1232 q 917 1201 926 1210 l 714 1060 q 688 1046 700 1050 q 660 1042 676 1042 l 563 1042 m 433 -14 q 186 56 271 -14 q 101 269 101 126 l 46 250 q 28 246 35 246 q 10 253 15 246 q 7 272 4 260 l 24 350 q 35 375 26 367 q 61 390 43 383 l 115 408 q 158 604 136 522 q 333 888 203 789 q 646 986 463 986 q 882 918 796 986 q 975 719 968 850 l 1033 740 q 1051 744 1044 744 q 1069 738 1064 744 q 1074 718 1075 731 l 1057 639 q 1044 615 1053 622 q 1018 600 1036 607 l 968 583 q 929 396 958 531 l 922 367 q 749 81 875 176 q 433 -14 624 -14 m 774 646 q 736 781 779 736 q 613 825 693 825 q 453 769 521 825 q 358 599 386 713 q 333 489 339 526 l 774 646 m 468 147 q 628 203 561 147 q 722 374 694 260 l 751 504 l 306 343 q 303 307 303 318 q 347 186 303 225 q 468 147 390 147 z "},"Õ":{"ha":965,"x_min":58,"x_max":939,"o":"m 410 -14 q 155 63 251 -14 q 58 285 58 139 q 65 367 58 331 q 117 604 93 514 q 281 890 163 793 q 588 986 399 986 q 842 908 746 986 q 939 686 939 831 q 931 604 939 649 q 881 367 913 494 q 716 81 833 175 q 410 -14 599 -14 m 422 147 q 585 203 517 147 q 681 374 653 258 q 729 599 710 499 q 736 671 736 643 q 576 825 736 825 q 413 769 481 825 q 317 599 344 714 q 269 374 286 472 q 263 299 263 339 q 303 184 263 221 q 422 147 343 147 m 707 1035 q 663 1042 681 1035 q 618 1063 646 1049 q 589 1078 600 1074 q 564 1083 578 1083 q 538 1077 547 1083 q 518 1060 528 1071 q 489 1042 503 1042 l 424 1042 q 408 1049 414 1042 q 404 1065 403 1056 q 431 1133 410 1097 q 486 1194 451 1169 q 565 1219 521 1219 q 613 1212 593 1219 q 654 1190 632 1204 q 674 1180 657 1189 q 708 1171 690 1171 q 754 1194 733 1171 q 785 1213 769 1213 l 849 1213 q 865 1206 860 1213 q 868 1189 871 1199 q 842 1121 863 1157 q 786 1060 821 1085 q 707 1035 751 1035 z "},"Œ":{"ha":1306,"x_min":61,"x_max":1346,"o":"m 425 0 q 159 75 257 0 q 61 293 61 150 q 69 379 61 333 q 115 593 93 499 q 273 880 163 788 q 590 972 383 972 l 1315 972 q 1338 963 1331 972 q 1343 938 1346 953 l 1324 844 q 1308 820 1319 829 q 1282 811 1297 811 l 869 811 l 817 568 l 1199 568 q 1222 558 1214 568 q 1226 533 1229 549 l 1208 446 q 1194 422 1206 431 q 1167 413 1182 413 l 785 413 l 732 161 l 1154 161 q 1177 152 1169 161 q 1182 128 1185 143 l 1161 33 q 1147 9 1158 18 q 1121 0 1136 0 l 425 0 m 542 161 l 681 811 l 583 811 q 403 760 467 811 q 313 589 340 708 q 268 382 293 513 q 261 311 261 338 q 306 198 261 235 q 446 161 350 161 l 542 161 z "},"P":{"ha":918,"x_min":25,"x_max":936,"o":"m 54 0 q 33 10 40 0 q 28 33 25 19 l 219 938 q 234 963 222 953 q 260 972 246 972 l 617 972 q 850 911 764 972 q 936 735 936 850 q 928 663 936 703 q 518 358 863 358 l 299 358 l 229 33 q 215 9 226 18 q 189 0 203 0 l 54 0 m 522 514 q 656 553 601 514 q 726 664 711 592 q 733 718 733 696 q 702 792 733 767 q 597 817 671 817 l 393 817 l 328 514 l 522 514 z "},"Þ":{"ha":921,"x_min":25,"x_max":899,"o":"m 54 0 q 33 10 40 0 q 28 33 25 19 l 221 939 q 234 963 222 953 q 260 972 246 972 l 394 972 q 417 963 408 972 q 422 939 425 954 l 392 799 l 581 799 q 813 739 728 799 q 899 564 899 679 q 890 490 899 531 q 482 185 826 185 l 261 185 l 229 33 q 215 9 226 18 q 189 0 203 0 l 54 0 m 486 340 q 619 379 564 340 q 690 490 674 418 q 696 543 696 517 q 665 618 696 593 q 561 643 635 643 l 356 643 l 292 340 l 486 340 z "},"Q":{"ha":965,"x_min":75,"x_max":958,"o":"m 644 -90 q 618 -82 626 -90 q 600 -58 610 -74 l 564 11 q 411 -14 494 -14 q 162 57 249 -14 q 75 268 75 128 q 85 367 75 318 q 136 604 107 479 q 310 888 181 789 q 624 986 440 986 q 870 912 782 986 q 958 697 958 838 q 950 604 958 654 q 900 367 932 494 q 740 92 854 185 l 808 -47 q 810 -56 810 -49 q 799 -80 810 -69 q 775 -90 789 -90 l 644 -90 m 446 147 q 606 203 539 147 q 700 374 672 260 q 747 599 726 476 q 754 665 754 638 q 710 785 754 746 q 590 825 667 825 q 431 769 499 825 q 336 599 364 713 q 289 374 306 472 q 282 307 282 332 q 326 187 282 226 q 446 147 369 147 z "},"R":{"ha":936,"x_min":44,"x_max":947,"o":"m 74 0 q 51 10 58 0 q 47 33 44 19 l 239 938 q 253 963 242 953 q 281 972 265 972 l 640 972 q 867 913 788 972 q 947 743 947 854 q 939 668 947 708 q 855 498 918 567 q 697 399 792 429 l 824 44 q 824 29 825 38 q 811 8 822 17 q 789 0 800 0 l 661 0 q 628 10 638 0 q 614 38 618 21 l 504 367 l 314 367 l 243 33 q 228 10 240 19 q 201 0 217 0 l 74 0 m 542 525 q 673 562 624 525 q 738 669 722 599 q 742 710 742 690 q 707 789 742 761 q 603 817 672 817 l 408 817 l 347 525 l 542 525 z "},"Ŕ":{"ha":936,"x_min":46,"x_max":947,"o":"m 74 0 q 51 10 58 0 q 47 33 44 19 l 239 938 q 253 963 242 953 q 281 972 265 972 l 640 972 q 867 913 788 972 q 947 743 947 854 q 939 668 947 708 q 855 498 918 567 q 697 399 792 429 l 824 44 q 824 29 825 38 q 811 8 822 17 q 789 0 800 0 l 661 0 q 628 10 638 0 q 614 38 618 21 l 504 367 l 314 367 l 243 33 q 228 10 240 19 q 201 0 217 0 l 74 0 m 542 525 q 673 562 624 525 q 738 669 722 599 q 742 710 742 690 q 707 789 742 761 q 603 817 672 817 l 408 817 l 347 525 l 542 525 m 490 1042 q 472 1061 469 1042 q 482 1081 472 1071 l 628 1219 q 655 1240 643 1235 q 685 1246 667 1246 l 835 1246 q 853 1239 847 1246 q 857 1222 858 1232 q 844 1201 854 1210 l 642 1060 q 616 1046 628 1050 q 588 1042 604 1042 l 490 1042 z "},"Ř":{"ha":936,"x_min":46,"x_max":947,"o":"m 74 0 q 51 10 58 0 q 47 33 44 19 l 239 938 q 253 963 242 953 q 281 972 265 972 l 640 972 q 867 913 788 972 q 947 743 947 854 q 939 668 947 708 q 855 498 918 567 q 697 399 792 429 l 824 44 q 824 29 825 38 q 811 8 822 17 q 789 0 800 0 l 661 0 q 628 10 638 0 q 614 38 618 21 l 504 367 l 314 367 l 243 33 q 228 10 240 19 q 201 0 217 0 l 74 0 m 542 525 q 673 562 624 525 q 738 669 722 599 q 742 710 742 690 q 707 789 742 761 q 603 817 672 817 l 408 817 l 347 525 l 542 525 m 519 1042 q 497 1046 506 1042 q 478 1064 488 1050 l 368 1207 q 364 1228 361 1218 q 372 1240 365 1235 q 388 1246 378 1246 l 440 1246 q 476 1236 461 1246 l 576 1163 l 708 1236 q 749 1246 729 1246 l 821 1246 q 838 1228 840 1246 q 826 1208 838 1217 l 656 1064 q 628 1046 639 1050 q 603 1042 617 1042 l 519 1042 z "},"Ŗ":{"ha":936,"x_min":46,"x_max":947,"o":"m 74 0 q 51 10 58 0 q 47 33 44 19 l 239 938 q 253 963 242 953 q 281 972 265 972 l 640 972 q 867 913 788 972 q 947 743 947 854 q 939 668 947 708 q 855 498 918 567 q 697 399 792 429 l 824 44 q 824 29 825 38 q 811 8 822 17 q 789 0 800 0 l 661 0 q 628 10 638 0 q 614 38 618 21 l 504 367 l 314 367 l 243 33 q 228 10 240 19 q 201 0 217 0 l 74 0 m 542 525 q 673 562 624 525 q 738 669 722 599 q 742 710 742 690 q 707 789 742 761 q 603 817 672 817 l 408 817 l 347 525 l 542 525 m 228 -315 q 214 -309 219 -315 q 208 -294 208 -303 q 210 -283 208 -287 l 272 -114 q 293 -82 279 -94 q 328 -69 307 -69 l 451 -69 q 467 -76 461 -69 q 471 -93 472 -83 q 463 -114 468 -101 l 363 -279 q 310 -315 340 -315 l 228 -315 z "},"S":{"ha":892,"x_min":13,"x_max":879,"o":"m 372 -14 q 176 18 257 -14 q 53 104 94 50 q 13 224 13 158 q 15 256 13 233 q 26 276 17 267 q 47 285 35 285 l 176 285 q 200 278 192 285 q 214 258 208 271 q 262 180 219 213 q 385 147 304 147 q 541 180 482 147 q 611 269 600 213 q 614 290 614 283 q 591 342 614 321 q 523 379 568 363 q 392 421 478 396 q 197 509 261 453 q 133 656 133 565 q 140 722 133 693 q 272 915 167 844 q 543 986 376 986 q 722 951 646 986 q 839 860 799 915 q 879 750 879 806 q 876 725 879 742 q 865 704 874 713 q 844 696 857 696 l 710 696 q 674 721 681 696 q 635 794 675 764 q 531 825 594 825 q 401 796 453 825 q 338 711 350 767 q 335 686 335 694 q 379 618 335 644 q 535 563 424 592 q 750 473 682 528 q 818 326 818 418 q 811 263 818 301 q 669 56 782 126 q 372 -14 557 -14 z "},"Ś":{"ha":892,"x_min":13,"x_max":879,"o":"m 372 -14 q 176 18 257 -14 q 53 104 94 50 q 13 224 13 158 q 15 256 13 233 q 26 276 17 267 q 47 285 35 285 l 176 285 q 200 278 192 285 q 214 258 208 271 q 262 180 219 213 q 385 147 304 147 q 541 180 482 147 q 611 269 600 213 q 614 290 614 283 q 591 342 614 321 q 523 379 568 363 q 392 421 478 396 q 197 509 261 453 q 133 656 133 565 q 140 722 133 693 q 272 915 167 844 q 543 986 376 986 q 722 951 646 986 q 839 860 799 915 q 879 750 879 806 q 876 725 879 742 q 865 704 874 713 q 844 696 857 696 l 710 696 q 674 721 681 696 q 635 794 675 764 q 531 825 594 825 q 401 796 453 825 q 338 711 350 767 q 335 686 335 694 q 379 618 335 644 q 535 563 424 592 q 750 473 682 528 q 818 326 818 418 q 811 263 818 301 q 669 56 782 126 q 372 -14 557 -14 m 499 1042 q 481 1061 478 1042 q 490 1081 481 1071 l 636 1219 q 663 1240 651 1235 q 693 1246 675 1246 l 843 1246 q 861 1239 856 1246 q 865 1222 867 1232 q 853 1201 863 1210 l 650 1060 q 624 1046 636 1050 q 596 1042 613 1042 l 499 1042 z "},"Š":{"ha":892,"x_min":13,"x_max":879,"o":"m 372 -14 q 176 18 257 -14 q 53 104 94 50 q 13 224 13 158 q 15 256 13 233 q 26 276 17 267 q 47 285 35 285 l 176 285 q 200 278 192 285 q 214 258 208 271 q 262 180 219 213 q 385 147 304 147 q 541 180 482 147 q 611 269 600 213 q 614 290 614 283 q 591 342 614 321 q 523 379 568 363 q 392 421 478 396 q 197 509 261 453 q 133 656 133 565 q 140 722 133 693 q 272 915 167 844 q 543 986 376 986 q 722 951 646 986 q 839 860 799 915 q 879 750 879 806 q 876 725 879 742 q 865 704 874 713 q 844 696 857 696 l 710 696 q 674 721 681 696 q 635 794 675 764 q 531 825 594 825 q 401 796 453 825 q 338 711 350 767 q 335 686 335 694 q 379 618 335 644 q 535 563 424 592 q 750 473 682 528 q 818 326 818 418 q 811 263 818 301 q 669 56 782 126 q 372 -14 557 -14 m 519 1042 q 497 1046 506 1042 q 478 1064 488 1050 l 368 1207 q 364 1228 361 1218 q 372 1240 365 1235 q 388 1246 378 1246 l 440 1246 q 476 1236 461 1246 l 576 1163 l 708 1236 q 749 1246 729 1246 l 821 1246 q 838 1228 840 1246 q 826 1208 838 1217 l 656 1064 q 628 1046 639 1050 q 603 1042 617 1042 l 519 1042 z "},"Ş":{"ha":893,"x_min":31,"x_max":901,"o":"m 313 -306 q 238 -288 269 -306 q 206 -251 206 -271 q 214 -235 206 -242 l 243 -214 q 258 -207 250 -207 q 282 -219 264 -207 q 326 -231 300 -231 q 366 -217 349 -231 q 389 -183 383 -204 q 381 -151 392 -164 q 347 -139 369 -139 q 311 -145 332 -139 q 283 -151 290 -151 q 265 -143 271 -151 l 246 -117 q 243 -106 243 -112 q 258 -74 243 -97 l 300 -8 q 99 67 168 6 q 31 217 31 129 q 35 256 31 238 q 49 276 38 267 q 72 285 60 285 l 199 285 q 222 278 214 285 q 235 258 231 271 q 282 179 239 211 q 411 147 325 147 q 565 180 508 147 q 632 269 621 213 q 635 292 635 286 q 612 342 635 321 q 544 380 589 363 q 413 421 499 397 q 216 505 281 454 q 151 643 151 556 q 158 707 151 678 q 233 851 175 788 q 381 950 290 914 q 581 986 471 986 q 758 952 686 986 q 866 865 831 918 q 901 754 901 811 q 899 725 901 744 q 886 705 896 714 q 863 696 876 696 l 731 696 q 696 721 701 696 q 656 795 697 765 q 546 825 615 825 q 420 796 469 825 q 358 711 371 767 q 356 688 356 694 q 399 619 356 644 q 556 563 443 593 q 774 478 706 528 q 842 343 842 429 q 833 278 842 314 q 681 65 804 143 q 379 -14 557 -12 l 338 -74 q 388 -64 356 -64 q 451 -87 429 -64 q 474 -151 474 -111 q 428 -260 474 -215 q 313 -306 383 -306 z "},"Ŝ":{"ha":892,"x_min":13,"x_max":879,"o":"m 372 -14 q 176 18 257 -14 q 53 104 94 50 q 13 224 13 158 q 15 256 13 233 q 26 276 17 267 q 47 285 35 285 l 176 285 q 200 278 192 285 q 214 258 208 271 q 262 180 219 213 q 385 147 304 147 q 541 180 482 147 q 611 269 600 213 q 614 290 614 283 q 591 342 614 321 q 523 379 568 363 q 392 421 478 396 q 197 509 261 453 q 133 656 133 565 q 140 722 133 693 q 272 915 167 844 q 543 986 376 986 q 722 951 646 986 q 839 860 799 915 q 879 750 879 806 q 876 725 879 742 q 865 704 874 713 q 844 696 857 696 l 710 696 q 674 721 681 696 q 635 794 675 764 q 531 825 594 825 q 401 796 453 825 q 338 711 350 767 q 335 686 335 694 q 379 618 335 644 q 535 563 424 592 q 750 473 682 528 q 818 326 818 418 q 811 263 818 301 q 669 56 782 126 q 372 -14 557 -14 m 340 1042 q 327 1047 332 1042 q 324 1060 322 1051 q 336 1079 324 1071 l 506 1224 q 533 1242 522 1238 q 558 1246 544 1246 l 642 1246 q 665 1242 656 1246 q 685 1224 674 1238 l 793 1079 q 797 1060 800 1071 q 790 1047 796 1051 q 775 1042 783 1042 l 722 1042 q 685 1051 700 1042 l 585 1125 l 453 1051 q 414 1042 432 1042 l 340 1042 z "},"Ș":{"ha":892,"x_min":13,"x_max":879,"o":"m 372 -14 q 176 18 257 -14 q 53 104 94 50 q 13 224 13 158 q 15 256 13 233 q 26 276 17 267 q 47 285 35 285 l 176 285 q 200 278 192 285 q 214 258 208 271 q 262 180 219 213 q 385 147 304 147 q 541 180 482 147 q 611 269 600 213 q 614 290 614 283 q 591 342 614 321 q 523 379 568 363 q 392 421 478 396 q 197 509 261 453 q 133 656 133 565 q 140 722 133 693 q 272 915 167 844 q 543 986 376 986 q 722 951 646 986 q 839 860 799 915 q 879 750 879 806 q 876 725 879 742 q 865 704 874 713 q 844 696 857 696 l 710 696 q 674 721 681 696 q 635 794 675 764 q 531 825 594 825 q 401 796 453 825 q 338 711 350 767 q 335 686 335 694 q 379 618 335 644 q 535 563 424 592 q 750 473 682 528 q 818 326 818 418 q 811 263 818 301 q 669 56 782 126 q 372 -14 557 -14 m 182 -315 q 168 -309 174 -315 q 163 -294 163 -303 q 164 -283 163 -287 l 226 -114 q 247 -82 233 -94 q 282 -69 261 -69 l 406 -69 q 421 -76 415 -69 q 425 -93 426 -83 q 417 -114 422 -101 l 317 -279 q 264 -315 294 -315 l 182 -315 z "},"T":{"ha":836,"x_min":115,"x_max":921,"o":"m 265 0 q 242 10 250 0 q 238 33 235 19 l 401 799 l 144 799 q 123 809 131 799 q 118 833 115 819 l 140 938 q 154 963 143 953 q 181 972 165 972 l 892 972 q 914 963 907 972 q 918 938 921 953 l 896 833 q 881 808 893 818 q 856 799 869 799 l 600 799 l 436 33 q 422 9 433 18 q 396 0 410 0 l 265 0 z "},"Ŧ":{"ha":850,"x_min":122,"x_max":928,"o":"m 272 0 q 249 10 257 0 q 244 33 242 19 l 329 433 l 182 433 q 160 443 167 433 q 156 467 153 453 l 167 519 q 181 544 169 535 q 208 554 193 554 l 356 554 l 408 799 l 151 799 q 130 808 138 799 q 125 833 122 818 l 147 938 q 161 963 150 953 q 188 972 172 972 l 897 972 q 920 963 913 972 q 925 938 928 953 l 903 833 q 888 808 900 818 q 863 799 876 799 l 606 799 l 554 554 l 700 554 q 723 544 715 554 q 728 519 731 535 l 717 467 q 702 443 714 453 q 675 433 690 433 l 528 433 l 443 33 q 428 9 440 18 q 403 0 417 0 l 272 0 z "},"Ť":{"ha":836,"x_min":117,"x_max":919,"o":"m 265 0 q 242 10 250 0 q 238 33 235 19 l 401 799 l 144 799 q 123 809 131 799 q 118 833 115 819 l 140 938 q 154 963 143 953 q 181 972 165 972 l 892 972 q 914 963 907 972 q 918 938 921 953 l 896 833 q 881 808 893 818 q 856 799 869 799 l 600 799 l 436 33 q 422 9 433 18 q 396 0 410 0 l 265 0 m 514 1042 q 491 1046 500 1042 q 472 1064 482 1050 l 363 1207 q 358 1228 356 1218 q 366 1240 360 1235 q 382 1246 372 1246 l 435 1246 q 471 1236 456 1246 l 571 1163 l 703 1236 q 743 1246 724 1246 l 815 1246 q 832 1228 835 1246 q 821 1208 832 1217 l 650 1064 q 622 1046 633 1050 q 597 1042 611 1042 l 514 1042 z "},"Ț":{"ha":836,"x_min":117,"x_max":919,"o":"m 265 0 q 242 10 250 0 q 238 33 235 19 l 401 799 l 144 799 q 123 809 131 799 q 118 833 115 819 l 140 938 q 154 963 143 953 q 181 972 165 972 l 892 972 q 914 963 907 972 q 918 938 921 953 l 896 833 q 881 808 893 818 q 856 799 869 799 l 600 799 l 436 33 q 422 9 433 18 q 396 0 410 0 l 265 0 m 157 -315 q 143 -309 149 -315 q 138 -294 138 -303 q 139 -283 138 -287 l 201 -114 q 222 -82 208 -94 q 257 -69 236 -69 l 381 -69 q 396 -76 390 -69 q 400 -93 401 -83 q 392 -114 397 -101 l 292 -279 q 239 -315 269 -315 l 157 -315 z "},"U":{"ha":992,"x_min":79,"x_max":1006,"o":"m 421 -14 q 171 56 263 -14 q 79 264 79 125 q 92 372 79 314 l 211 938 q 225 963 214 953 q 251 972 236 972 l 379 972 q 402 963 394 972 q 407 938 410 953 l 286 372 q 276 288 276 328 q 315 185 276 218 q 433 151 353 151 q 599 206 535 151 q 686 372 664 261 l 807 938 q 822 963 810 953 q 849 972 833 972 l 976 972 q 999 963 992 972 q 1003 938 1006 953 l 883 372 q 728 79 840 172 q 421 -14 617 -14 z "},"Ú":{"ha":992,"x_min":79,"x_max":1004,"o":"m 421 -14 q 171 56 263 -14 q 79 264 79 125 q 92 372 79 314 l 211 938 q 225 963 214 953 q 251 972 236 972 l 379 972 q 402 963 394 972 q 407 938 410 953 l 286 372 q 276 288 276 328 q 315 185 276 218 q 433 151 353 151 q 599 206 535 151 q 686 372 664 261 l 807 938 q 822 963 810 953 q 849 972 833 972 l 976 972 q 999 963 992 972 q 1003 938 1006 953 l 883 372 q 728 79 840 172 q 421 -14 617 -14 m 551 1042 q 533 1061 531 1042 q 543 1081 533 1071 l 689 1219 q 716 1240 704 1235 q 746 1246 728 1246 l 896 1246 q 914 1239 908 1246 q 918 1222 919 1232 q 906 1201 915 1210 l 703 1060 q 677 1046 689 1050 q 649 1042 665 1042 l 551 1042 z "},"Ŭ":{"ha":992,"x_min":79,"x_max":1004,"o":"m 421 -14 q 171 56 263 -14 q 79 264 79 125 q 92 372 79 314 l 211 938 q 225 963 214 953 q 251 972 236 972 l 379 972 q 402 963 394 972 q 407 938 410 953 l 286 372 q 276 288 276 328 q 315 185 276 218 q 433 151 353 151 q 599 206 535 151 q 686 372 664 261 l 807 938 q 822 963 810 953 q 849 972 833 972 l 976 972 q 999 963 992 972 q 1003 938 1006 953 l 883 372 q 728 79 840 172 q 421 -14 617 -14 m 617 1031 q 490 1072 535 1031 q 444 1176 444 1113 q 449 1215 444 1194 q 460 1234 451 1226 q 481 1242 468 1242 l 550 1242 q 568 1234 563 1242 q 571 1215 574 1226 q 568 1186 568 1196 q 624 1129 568 1129 q 685 1153 663 1129 q 718 1215 708 1178 q 729 1234 721 1226 q 750 1242 738 1242 l 819 1242 q 838 1234 832 1242 q 840 1215 843 1226 q 617 1031 801 1031 z "},"Û":{"ha":992,"x_min":79,"x_max":1004,"o":"m 421 -14 q 171 56 263 -14 q 79 264 79 125 q 92 372 79 314 l 211 938 q 225 963 214 953 q 251 972 236 972 l 379 972 q 402 963 394 972 q 407 938 410 953 l 286 372 q 276 288 276 328 q 315 185 276 218 q 433 151 353 151 q 599 206 535 151 q 686 372 664 261 l 807 938 q 822 963 810 953 q 849 972 833 972 l 976 972 q 999 963 992 972 q 1003 938 1006 953 l 883 372 q 728 79 840 172 q 421 -14 617 -14 m 392 1042 q 378 1047 383 1042 q 375 1060 374 1051 q 388 1079 375 1071 l 557 1224 q 585 1242 574 1238 q 610 1246 596 1246 l 693 1246 q 716 1242 707 1246 q 736 1224 725 1238 l 844 1079 q 849 1060 851 1071 q 841 1047 847 1051 q 826 1042 835 1042 l 774 1042 q 736 1051 751 1042 l 636 1125 l 504 1051 q 465 1042 483 1042 l 392 1042 z "},"Ü":{"ha":992,"x_min":79,"x_max":1004,"o":"m 421 -14 q 171 56 263 -14 q 79 264 79 125 q 92 372 79 314 l 211 938 q 225 963 214 953 q 251 972 236 972 l 379 972 q 402 963 394 972 q 407 938 410 953 l 286 372 q 276 288 276 328 q 315 185 276 218 q 433 151 353 151 q 599 206 535 151 q 686 372 664 261 l 807 938 q 822 963 810 953 q 849 972 833 972 l 976 972 q 999 963 992 972 q 1003 938 1006 953 l 883 372 q 728 79 840 172 q 421 -14 617 -14 m 417 1042 q 397 1050 403 1042 q 393 1072 390 1058 l 415 1175 q 428 1198 418 1189 q 453 1207 439 1207 l 556 1207 q 576 1198 569 1207 q 581 1175 583 1189 l 558 1072 q 544 1050 556 1058 q 519 1042 533 1042 l 417 1042 m 721 1042 q 701 1050 707 1042 q 697 1072 694 1058 l 718 1175 q 732 1198 721 1189 q 757 1207 743 1207 l 860 1207 q 881 1198 874 1207 q 885 1175 888 1189 l 863 1072 q 849 1050 860 1058 q 824 1042 838 1042 l 721 1042 z "},"Ù":{"ha":992,"x_min":79,"x_max":1004,"o":"m 421 -14 q 171 56 263 -14 q 79 264 79 125 q 92 372 79 314 l 211 938 q 225 963 214 953 q 251 972 236 972 l 379 972 q 402 963 394 972 q 407 938 410 953 l 286 372 q 276 288 276 328 q 315 185 276 218 q 433 151 353 151 q 599 206 535 151 q 686 372 664 261 l 807 938 q 822 963 810 953 q 849 972 833 972 l 976 972 q 999 963 992 972 q 1003 938 1006 953 l 883 372 q 728 79 840 172 q 421 -14 617 -14 m 586 1042 q 560 1046 569 1042 q 540 1060 550 1050 l 400 1200 q 394 1214 394 1206 q 403 1237 394 1228 q 426 1246 413 1246 l 571 1246 q 598 1240 589 1246 q 617 1219 607 1235 l 701 1082 q 704 1068 704 1074 q 697 1049 704 1057 q 678 1042 689 1042 l 586 1042 z "},"Ű":{"ha":992,"x_min":79,"x_max":1004,"o":"m 421 -14 q 171 56 263 -14 q 79 264 79 125 q 92 372 79 314 l 211 938 q 225 963 214 953 q 251 972 236 972 l 379 972 q 402 963 394 972 q 407 938 410 953 l 286 372 q 276 288 276 328 q 315 185 276 218 q 433 151 353 151 q 599 206 535 151 q 686 372 664 261 l 807 938 q 822 963 810 953 q 849 972 833 972 l 976 972 q 999 963 992 972 q 1003 938 1006 953 l 883 372 q 728 79 840 172 q 421 -14 617 -14 m 433 1042 q 414 1060 414 1042 q 424 1079 415 1068 l 517 1219 q 574 1246 533 1246 l 697 1246 q 715 1240 708 1246 q 719 1224 721 1233 q 708 1203 717 1211 l 553 1061 q 506 1042 531 1042 l 433 1042 m 694 1042 q 676 1060 674 1042 q 686 1079 676 1067 l 778 1219 q 801 1240 788 1233 q 835 1246 814 1246 l 958 1246 q 976 1240 969 1246 q 981 1224 982 1233 q 969 1203 981 1211 l 815 1061 q 767 1042 793 1042 l 694 1042 z "},"Ū":{"ha":992,"x_min":79,"x_max":1004,"o":"m 421 -14 q 171 56 263 -14 q 79 264 79 125 q 92 372 79 314 l 211 938 q 225 963 214 953 q 251 972 236 972 l 379 972 q 402 963 394 972 q 407 938 410 953 l 286 372 q 276 288 276 328 q 315 185 276 218 q 433 151 353 151 q 599 206 535 151 q 686 372 664 261 l 807 938 q 822 963 810 953 q 849 972 833 972 l 976 972 q 999 963 992 972 q 1003 938 1006 953 l 883 372 q 728 79 840 172 q 421 -14 617 -14 m 429 1042 q 409 1050 415 1042 q 406 1072 403 1058 l 421 1151 q 435 1174 424 1165 q 460 1182 446 1182 l 839 1182 q 859 1174 853 1182 q 863 1151 865 1165 l 847 1072 q 833 1050 844 1058 q 808 1042 822 1042 l 429 1042 z "},"Ų":{"ha":992,"x_min":79,"x_max":1006,"o":"m 460 -306 q 326 -258 376 -306 q 276 -133 276 -210 q 281 -89 276 -112 q 314 -4 288 -44 q 140 83 201 17 q 79 263 79 149 q 92 372 79 313 l 211 938 q 225 963 214 953 q 251 972 236 972 l 379 972 q 402 963 394 972 q 407 938 410 953 l 286 372 q 276 288 276 328 q 315 185 276 218 q 433 151 353 151 q 599 206 535 151 q 686 372 664 261 l 807 938 q 822 963 810 953 q 849 972 833 972 l 976 972 q 999 963 992 972 q 1003 938 1006 953 l 883 372 q 751 95 849 188 q 500 -10 653 3 q 437 -35 463 -12 q 403 -94 411 -58 q 400 -117 400 -111 q 419 -169 400 -149 q 471 -189 439 -189 l 492 -189 q 513 -198 506 -189 q 517 -222 519 -207 l 504 -276 q 467 -306 499 -306 l 460 -306 z "},"Ů":{"ha":992,"x_min":79,"x_max":1004,"o":"m 421 -14 q 171 56 263 -14 q 79 264 79 125 q 92 372 79 314 l 211 938 q 225 963 214 953 q 251 972 236 972 l 379 972 q 402 963 394 972 q 407 938 410 953 l 286 372 q 276 288 276 328 q 315 185 276 218 q 433 151 353 151 q 599 206 535 151 q 686 372 664 261 l 807 938 q 822 963 810 953 q 849 972 833 972 l 976 972 q 999 963 992 972 q 1003 938 1006 953 l 883 372 q 728 79 840 172 q 421 -14 617 -14 m 615 1028 q 542 1053 571 1028 q 513 1119 513 1079 q 515 1143 513 1126 q 568 1226 526 1193 q 660 1260 610 1260 q 735 1234 706 1260 q 764 1167 764 1208 q 761 1143 764 1160 q 708 1060 750 1093 q 615 1028 667 1028 m 626 1101 q 665 1117 649 1101 q 681 1154 681 1132 q 672 1176 681 1168 q 649 1185 664 1185 q 610 1169 626 1185 q 594 1132 594 1154 q 603 1110 594 1118 q 626 1101 613 1101 z "},"Ũ":{"ha":992,"x_min":79,"x_max":1004,"o":"m 421 -14 q 171 56 263 -14 q 79 264 79 125 q 92 372 79 314 l 211 938 q 225 963 214 953 q 251 972 236 972 l 379 972 q 402 963 394 972 q 407 938 410 953 l 286 372 q 276 288 276 328 q 315 185 276 218 q 433 151 353 151 q 599 206 535 151 q 686 372 664 261 l 807 938 q 822 963 810 953 q 849 972 833 972 l 976 972 q 999 963 992 972 q 1003 938 1006 953 l 883 372 q 728 79 840 172 q 421 -14 617 -14 m 714 1035 q 670 1042 688 1035 q 625 1063 653 1049 q 596 1078 607 1074 q 571 1083 585 1083 q 544 1077 554 1083 q 525 1060 535 1071 q 496 1042 510 1042 l 431 1042 q 415 1049 421 1042 q 411 1065 410 1056 q 438 1133 417 1097 q 493 1194 458 1169 q 572 1219 528 1219 q 619 1212 600 1219 q 661 1190 639 1204 q 681 1180 664 1189 q 715 1171 697 1171 q 761 1194 740 1171 q 792 1213 776 1213 l 856 1213 q 872 1206 867 1213 q 875 1189 878 1199 q 849 1121 869 1157 q 793 1060 828 1085 q 714 1035 758 1035 z "},"V":{"ha":938,"x_min":147,"x_max":1013,"o":"m 303 0 q 269 10 281 0 q 257 39 258 21 l 149 936 q 157 963 147 953 q 181 972 167 972 l 303 972 q 330 963 321 972 q 340 942 339 954 l 421 231 l 804 942 q 851 972 821 972 l 989 972 q 1006 965 1000 972 q 1013 947 1013 958 q 1008 929 1013 938 l 522 39 q 461 0 500 0 l 303 0 z "},"W":{"ha":1124,"x_min":136,"x_max":1188,"o":"m 179 0 q 147 11 158 0 q 138 42 136 22 l 157 942 q 167 963 157 954 q 190 972 176 972 l 310 972 q 344 940 344 972 l 329 328 l 535 722 q 588 757 556 757 l 664 757 q 691 747 682 757 q 701 722 700 736 l 743 321 l 990 944 q 1036 972 1000 972 l 1164 972 q 1188 951 1188 972 q 1185 936 1188 947 l 839 42 q 781 0 822 0 l 681 0 q 651 10 661 0 q 639 35 640 21 l 574 494 l 332 35 q 276 0 311 0 l 179 0 z "},"Ẃ":{"ha":1124,"x_min":138,"x_max":1188,"o":"m 179 0 q 147 11 158 0 q 138 42 136 22 l 157 942 q 167 963 157 954 q 190 972 176 972 l 310 972 q 344 940 344 972 l 329 328 l 535 722 q 588 757 556 757 l 664 757 q 691 747 682 757 q 701 722 700 736 l 743 321 l 990 944 q 1036 972 1000 972 l 1164 972 q 1188 951 1188 972 q 1185 936 1188 947 l 839 42 q 781 0 822 0 l 681 0 q 651 10 661 0 q 639 35 640 21 l 574 494 l 332 35 q 276 0 311 0 l 179 0 m 613 1042 q 594 1061 592 1042 q 604 1081 594 1071 l 750 1219 q 777 1240 765 1235 q 807 1246 789 1246 l 957 1246 q 975 1239 969 1246 q 979 1222 981 1232 q 967 1201 976 1210 l 764 1060 q 738 1046 750 1050 q 710 1042 726 1042 l 613 1042 z "},"Ŵ":{"ha":1131,"x_min":138,"x_max":1188,"o":"m 179 0 q 147 11 158 0 q 138 42 136 22 l 157 942 q 167 963 157 954 q 190 972 176 972 l 310 972 q 344 940 344 972 l 329 328 l 535 722 q 588 757 556 757 l 664 757 q 691 747 682 757 q 701 722 700 736 l 743 321 l 990 944 q 1036 972 1000 972 l 1164 972 q 1188 951 1188 972 q 1185 936 1188 947 l 839 42 q 781 0 822 0 l 681 0 q 651 10 661 0 q 639 35 640 21 l 574 494 l 332 35 q 276 0 311 0 l 179 0 m 447 1042 q 434 1047 439 1042 q 431 1060 429 1051 q 443 1079 431 1071 l 613 1224 q 640 1242 629 1238 q 665 1246 651 1246 l 749 1246 q 772 1242 763 1246 q 792 1224 781 1238 l 900 1079 q 904 1060 907 1071 q 897 1047 903 1051 q 882 1042 890 1042 l 829 1042 q 792 1051 807 1042 l 692 1125 l 560 1051 q 521 1042 539 1042 l 447 1042 z "},"Ẅ":{"ha":1131,"x_min":138,"x_max":1188,"o":"m 179 0 q 147 11 158 0 q 138 42 136 22 l 157 942 q 167 963 157 954 q 190 972 176 972 l 310 972 q 344 940 344 972 l 329 328 l 535 722 q 588 757 556 757 l 664 757 q 691 747 682 757 q 701 722 700 736 l 743 321 l 990 944 q 1036 972 1000 972 l 1164 972 q 1188 951 1188 972 q 1185 936 1188 947 l 839 42 q 781 0 822 0 l 681 0 q 651 10 661 0 q 639 35 640 21 l 574 494 l 332 35 q 276 0 311 0 l 179 0 m 469 1042 q 449 1050 456 1042 q 446 1072 443 1058 l 468 1175 q 481 1198 471 1189 q 506 1207 492 1207 l 608 1207 q 629 1198 622 1207 q 633 1175 636 1189 l 611 1072 q 597 1050 608 1058 q 572 1042 586 1042 l 469 1042 m 774 1042 q 753 1050 760 1042 q 750 1072 747 1058 l 771 1175 q 785 1198 774 1189 q 810 1207 796 1207 l 913 1207 q 933 1198 926 1207 q 938 1175 940 1189 l 915 1072 q 901 1050 913 1058 q 876 1042 890 1042 l 774 1042 z "},"Ẁ":{"ha":1131,"x_min":138,"x_max":1188,"o":"m 179 0 q 147 11 158 0 q 138 42 136 22 l 157 942 q 167 963 157 954 q 190 972 176 972 l 310 972 q 344 940 344 972 l 329 328 l 535 722 q 588 757 556 757 l 664 757 q 691 747 682 757 q 701 722 700 736 l 743 321 l 990 944 q 1036 972 1000 972 l 1164 972 q 1188 951 1188 972 q 1185 936 1188 947 l 839 42 q 781 0 822 0 l 681 0 q 651 10 661 0 q 639 35 640 21 l 574 494 l 332 35 q 276 0 311 0 l 179 0 m 642 1042 q 615 1046 625 1042 q 596 1060 606 1050 l 456 1200 q 450 1214 450 1206 q 459 1237 450 1228 q 482 1246 468 1246 l 626 1246 q 653 1240 644 1246 q 672 1219 663 1235 l 757 1082 q 760 1068 760 1074 q 752 1049 760 1057 q 733 1042 744 1042 l 642 1042 z "},"X":{"ha":921,"x_min":-57,"x_max":1000,"o":"m -31 0 q -50 8 -43 0 q -57 26 -57 15 q -50 46 -57 39 l 369 500 l 156 928 q 151 943 151 936 q 160 964 151 956 q 183 972 169 972 l 311 972 q 340 965 332 972 q 354 946 349 957 l 507 643 l 779 946 q 788 955 781 947 q 806 967 794 963 q 833 972 818 972 l 974 972 q 992 965 985 972 q 1000 946 1000 957 q 992 926 1000 935 l 592 472 l 810 43 q 813 29 813 39 q 803 8 813 17 q 781 0 794 0 l 654 0 q 625 7 633 0 q 610 25 617 14 l 456 328 l 175 25 q 160 12 172 24 q 122 0 149 0 l -31 0 z "},"Y":{"ha":919,"x_min":140,"x_max":1004,"o":"m 308 0 q 285 10 293 0 q 281 33 278 19 l 347 346 l 143 928 q 140 939 140 936 q 151 962 140 951 q 176 972 161 972 l 293 972 q 331 946 321 972 l 476 546 l 792 946 q 840 972 811 972 l 979 972 q 1004 951 1004 972 q 994 928 1004 940 l 543 346 l 476 33 q 462 9 474 18 q 436 0 450 0 l 308 0 z "},"Ý":{"ha":919,"x_min":140,"x_max":1004,"o":"m 308 0 q 285 10 293 0 q 281 33 278 19 l 347 346 l 143 928 q 140 939 140 936 q 151 962 140 951 q 176 972 161 972 l 293 972 q 331 946 321 972 l 476 546 l 792 946 q 840 972 811 972 l 979 972 q 1004 951 1004 972 q 994 928 1004 940 l 543 346 l 476 33 q 462 9 474 18 q 436 0 450 0 l 308 0 m 504 1042 q 486 1061 483 1042 q 496 1081 486 1071 l 642 1219 q 669 1240 657 1235 q 699 1246 681 1246 l 849 1246 q 867 1239 861 1246 q 871 1222 872 1232 q 858 1201 868 1210 l 656 1060 q 630 1046 642 1050 q 601 1042 618 1042 l 504 1042 z "},"Ŷ":{"ha":919,"x_min":140,"x_max":1004,"o":"m 308 0 q 285 10 293 0 q 281 33 278 19 l 347 346 l 143 928 q 140 939 140 936 q 151 962 140 951 q 176 972 161 972 l 293 972 q 331 946 321 972 l 476 546 l 792 946 q 840 972 811 972 l 979 972 q 1004 951 1004 972 q 994 928 1004 940 l 543 346 l 476 33 q 462 9 474 18 q 436 0 450 0 l 308 0 m 343 1042 q 330 1047 335 1042 q 326 1060 325 1051 q 339 1079 326 1071 l 508 1224 q 536 1242 525 1238 q 561 1246 547 1246 l 644 1246 q 667 1242 658 1246 q 688 1224 676 1238 l 796 1079 q 800 1060 803 1071 q 792 1047 799 1051 q 778 1042 786 1042 l 725 1042 q 688 1051 703 1042 l 588 1125 l 456 1051 q 417 1042 435 1042 l 343 1042 z "},"Ÿ":{"ha":919,"x_min":140,"x_max":1004,"o":"m 308 0 q 285 10 293 0 q 281 33 278 19 l 347 346 l 143 928 q 140 939 140 936 q 151 962 140 951 q 176 972 161 972 l 293 972 q 331 946 321 972 l 476 546 l 792 946 q 840 972 811 972 l 979 972 q 1004 951 1004 972 q 994 928 1004 940 l 543 346 l 476 33 q 462 9 474 18 q 436 0 450 0 l 308 0 m 363 1042 q 342 1050 349 1042 q 339 1072 336 1058 l 361 1175 q 374 1198 364 1189 q 399 1207 385 1207 l 501 1207 q 522 1198 515 1207 q 526 1175 529 1189 l 504 1072 q 490 1050 501 1058 q 465 1042 479 1042 l 363 1042 m 667 1042 q 647 1050 653 1042 q 643 1072 640 1058 l 664 1175 q 678 1198 667 1189 q 703 1207 689 1207 l 806 1207 q 826 1198 819 1207 q 831 1175 833 1189 l 808 1072 q 794 1050 806 1058 q 769 1042 783 1042 l 667 1042 z "},"Ỳ":{"ha":919,"x_min":140,"x_max":1004,"o":"m 308 0 q 285 10 293 0 q 281 33 278 19 l 347 346 l 143 928 q 140 939 140 936 q 151 962 140 951 q 176 972 161 972 l 293 972 q 331 946 321 972 l 476 546 l 792 946 q 840 972 811 972 l 979 972 q 1004 951 1004 972 q 994 928 1004 940 l 543 346 l 476 33 q 462 9 474 18 q 436 0 450 0 l 308 0 m 540 1042 q 514 1046 524 1042 q 494 1060 504 1050 l 354 1200 q 349 1214 349 1206 q 358 1237 349 1228 q 381 1246 367 1246 l 525 1246 q 552 1240 543 1246 q 571 1219 561 1235 l 656 1082 q 658 1068 658 1074 q 651 1049 658 1057 q 632 1042 643 1042 l 540 1042 z "},"Z":{"ha":865,"x_min":-31,"x_max":914,"o":"m 0 0 q -23 10 -15 0 q -28 35 -31 19 l -6 133 q 6 163 -1 151 q 25 185 14 174 l 626 806 l 183 806 q 162 815 169 806 q 157 840 154 825 l 178 938 q 192 963 181 953 q 218 972 203 972 l 885 972 q 907 963 900 972 q 911 938 914 953 l 890 840 q 881 815 888 825 q 863 792 874 804 l 268 167 l 729 167 q 752 157 744 167 q 756 133 760 147 l 735 33 q 720 9 732 18 q 694 0 708 0 l 0 0 z "},"Ź":{"ha":865,"x_min":-29,"x_max":913,"o":"m 0 0 q -23 10 -15 0 q -28 35 -31 19 l -6 133 q 6 163 -1 151 q 25 185 14 174 l 626 806 l 183 806 q 162 815 169 806 q 157 840 154 825 l 178 938 q 192 963 181 953 q 218 972 203 972 l 885 972 q 907 963 900 972 q 911 938 914 953 l 890 840 q 881 815 888 825 q 863 792 874 804 l 268 167 l 729 167 q 752 157 744 167 q 756 133 760 147 l 735 33 q 720 9 732 18 q 694 0 708 0 l 0 0 m 503 1042 q 485 1061 482 1042 q 494 1081 485 1071 l 640 1219 q 667 1240 656 1235 q 697 1246 679 1246 l 847 1246 q 865 1239 860 1246 q 869 1222 871 1232 q 857 1201 867 1210 l 654 1060 q 628 1046 640 1050 q 600 1042 617 1042 l 503 1042 z "},"Ž":{"ha":865,"x_min":-29,"x_max":913,"o":"m 0 0 q -23 10 -15 0 q -28 35 -31 19 l -6 133 q 6 163 -1 151 q 25 185 14 174 l 626 806 l 183 806 q 162 815 169 806 q 157 840 154 825 l 178 938 q 192 963 181 953 q 218 972 203 972 l 885 972 q 907 963 900 972 q 911 938 914 953 l 890 840 q 881 815 888 825 q 863 792 874 804 l 268 167 l 729 167 q 752 157 744 167 q 756 133 760 147 l 735 33 q 720 9 732 18 q 694 0 708 0 l 0 0 m 522 1042 q 499 1046 508 1042 q 481 1064 490 1050 l 371 1207 q 367 1228 364 1218 q 374 1240 368 1235 q 390 1246 381 1246 l 443 1246 q 479 1236 464 1246 l 579 1163 l 711 1236 q 751 1246 732 1246 l 824 1246 q 840 1228 843 1246 q 829 1208 840 1217 l 658 1064 q 631 1046 642 1050 q 606 1042 619 1042 l 522 1042 z "},"Ż":{"ha":865,"x_min":-29,"x_max":913,"o":"m 0 0 q -23 10 -15 0 q -28 35 -31 19 l -6 133 q 6 163 -1 151 q 25 185 14 174 l 626 806 l 183 806 q 162 815 169 806 q 157 840 154 825 l 178 938 q 192 963 181 953 q 218 972 203 972 l 885 972 q 907 963 900 972 q 911 938 914 953 l 890 840 q 881 815 888 825 q 863 792 874 804 l 268 167 l 729 167 q 752 157 744 167 q 756 133 760 147 l 735 33 q 720 9 732 18 q 694 0 708 0 l 0 0 m 506 1042 q 485 1050 492 1042 q 482 1072 479 1058 l 507 1190 q 520 1213 510 1204 q 544 1222 531 1222 l 663 1222 q 683 1213 676 1222 q 688 1190 690 1204 l 663 1072 q 649 1050 660 1058 q 624 1042 638 1042 l 506 1042 z "},"a":{"ha":843,"x_min":35,"x_max":813,"o":"m 276 -14 q 96 53 157 -14 q 35 235 35 119 q 42 315 35 269 q 61 407 47 354 q 189 647 100 557 q 421 736 278 736 q 547 712 501 736 q 621 643 593 688 l 631 689 q 645 713 633 704 q 671 722 657 722 l 782 722 q 805 713 797 722 q 810 689 813 703 l 671 33 q 656 9 668 18 q 631 0 644 0 l 519 0 q 497 10 504 0 q 492 33 489 19 l 503 85 q 403 11 454 36 q 276 -14 353 -14 m 340 136 q 472 188 419 136 q 543 313 525 239 q 565 419 557 369 q 569 464 569 443 q 540 552 569 518 q 447 586 511 586 q 253 403 307 586 q 235 319 242 365 q 229 258 229 278 q 254 168 229 200 q 340 136 279 136 z "},"á":{"ha":843,"x_min":35,"x_max":811,"o":"m 276 -14 q 96 53 157 -14 q 35 235 35 119 q 42 315 35 269 q 61 407 47 354 q 189 647 100 557 q 421 736 278 736 q 547 712 501 736 q 621 643 593 688 l 631 689 q 645 713 633 704 q 671 722 657 722 l 782 722 q 805 713 797 722 q 810 689 813 703 l 671 33 q 656 9 668 18 q 631 0 644 0 l 519 0 q 497 10 504 0 q 492 33 489 19 l 503 85 q 403 11 454 36 q 276 -14 353 -14 m 340 136 q 472 188 419 136 q 543 313 525 239 q 565 419 557 369 q 569 464 569 443 q 540 552 569 518 q 447 586 511 586 q 253 403 307 586 q 235 319 242 365 q 229 258 229 278 q 254 168 229 200 q 340 136 279 136 m 432 826 q 417 833 422 826 q 415 849 413 839 q 426 867 418 860 l 569 1004 q 597 1026 586 1021 q 626 1031 608 1031 l 768 1031 q 785 1024 779 1031 q 789 1007 790 1017 q 778 986 786 993 l 574 844 q 548 831 560 835 q 521 826 536 826 l 432 826 z "},"ă":{"ha":843,"x_min":35,"x_max":811,"o":"m 276 -14 q 96 53 157 -14 q 35 235 35 119 q 42 315 35 269 q 61 407 47 354 q 189 647 100 557 q 421 736 278 736 q 547 712 501 736 q 621 643 593 688 l 631 689 q 645 713 633 704 q 671 722 657 722 l 782 722 q 805 713 797 722 q 810 689 813 703 l 671 33 q 656 9 668 18 q 631 0 644 0 l 519 0 q 497 10 504 0 q 492 33 489 19 l 503 85 q 403 11 454 36 q 276 -14 353 -14 m 340 136 q 472 188 419 136 q 543 313 525 239 q 565 419 557 369 q 569 464 569 443 q 540 552 569 518 q 447 586 511 586 q 253 403 307 586 q 235 319 242 365 q 229 258 229 278 q 254 168 229 200 q 340 136 279 136 m 503 821 q 381 862 424 821 q 338 967 338 903 q 342 1006 338 985 q 353 1024 344 1017 q 374 1032 361 1032 l 440 1032 q 458 1024 453 1032 q 461 1006 464 1017 q 457 972 457 989 q 511 919 457 919 q 600 1006 578 919 q 611 1024 603 1017 q 632 1032 619 1032 l 699 1032 q 717 1024 711 1032 q 719 1006 722 1017 q 503 821 681 821 z "},"â":{"ha":843,"x_min":35,"x_max":811,"o":"m 276 -14 q 96 53 157 -14 q 35 235 35 119 q 42 315 35 269 q 61 407 47 354 q 189 647 100 557 q 421 736 278 736 q 547 712 501 736 q 621 643 593 688 l 631 689 q 645 713 633 704 q 671 722 657 722 l 782 722 q 805 713 797 722 q 810 689 813 703 l 671 33 q 656 9 668 18 q 631 0 644 0 l 519 0 q 497 10 504 0 q 492 33 489 19 l 503 85 q 403 11 454 36 q 276 -14 353 -14 m 340 136 q 472 188 419 136 q 543 313 525 239 q 565 419 557 369 q 569 464 569 443 q 540 552 569 518 q 447 586 511 586 q 253 403 307 586 q 235 319 242 365 q 229 258 229 278 q 254 168 229 200 q 340 136 279 136 m 275 826 q 262 831 267 826 q 258 844 257 836 q 271 864 258 856 l 440 1008 q 468 1026 457 1022 q 493 1031 479 1031 l 571 1031 q 594 1026 585 1031 q 613 1008 603 1022 l 722 864 q 726 844 729 856 q 719 831 725 836 q 703 826 713 826 l 654 826 q 617 836 632 826 l 517 910 l 385 836 q 346 826 364 826 l 275 826 z "},"ä":{"ha":843,"x_min":35,"x_max":811,"o":"m 276 -14 q 96 53 157 -14 q 35 235 35 119 q 42 315 35 269 q 61 407 47 354 q 189 647 100 557 q 421 736 278 736 q 547 712 501 736 q 621 643 593 688 l 631 689 q 645 713 633 704 q 671 722 657 722 l 782 722 q 805 713 797 722 q 810 689 813 703 l 671 33 q 656 9 668 18 q 631 0 644 0 l 519 0 q 497 10 504 0 q 492 33 489 19 l 503 85 q 403 11 454 36 q 276 -14 353 -14 m 340 136 q 472 188 419 136 q 543 313 525 239 q 565 419 557 369 q 569 464 569 443 q 540 552 569 518 q 447 586 511 586 q 253 403 307 586 q 235 319 242 365 q 229 258 229 278 q 254 168 229 200 q 340 136 279 136 m 317 853 q 296 861 303 853 q 292 883 289 869 l 314 986 q 327 1009 317 1000 q 351 1018 338 1018 l 454 1018 q 475 1009 468 1018 q 479 986 482 1000 l 457 883 q 444 861 454 869 q 419 853 433 853 l 317 853 m 579 853 q 558 861 565 853 q 554 883 551 869 l 576 986 q 589 1009 578 1000 q 614 1018 600 1018 l 717 1018 q 738 1009 731 1018 q 742 986 744 1000 l 719 883 q 706 861 717 869 q 682 853 696 853 l 579 853 z "},"à":{"ha":843,"x_min":35,"x_max":811,"o":"m 276 -14 q 96 53 157 -14 q 35 235 35 119 q 42 315 35 269 q 61 407 47 354 q 189 647 100 557 q 421 736 278 736 q 547 712 501 736 q 621 643 593 688 l 631 689 q 645 713 633 704 q 671 722 657 722 l 782 722 q 805 713 797 722 q 810 689 813 703 l 671 33 q 656 9 668 18 q 631 0 644 0 l 519 0 q 497 10 504 0 q 492 33 489 19 l 503 85 q 403 11 454 36 q 276 -14 353 -14 m 340 136 q 472 188 419 136 q 543 313 525 239 q 565 419 557 369 q 569 464 569 443 q 540 552 569 518 q 447 586 511 586 q 253 403 307 586 q 235 319 242 365 q 229 258 229 278 q 254 168 229 200 q 340 136 279 136 m 458 826 q 432 831 442 826 q 413 844 422 835 l 272 985 q 267 999 267 990 q 276 1022 267 1013 q 297 1031 285 1031 l 446 1031 q 472 1026 464 1031 q 492 1004 481 1021 l 575 868 q 578 847 581 858 q 568 833 575 839 q 551 826 561 826 l 458 826 z "},"ā":{"ha":843,"x_min":35,"x_max":811,"o":"m 276 -14 q 96 53 157 -14 q 35 235 35 119 q 42 315 35 269 q 61 407 47 354 q 189 647 100 557 q 421 736 278 736 q 547 712 501 736 q 621 643 593 688 l 631 689 q 645 713 633 704 q 671 722 657 722 l 782 722 q 805 713 797 722 q 810 689 813 703 l 671 33 q 656 9 668 18 q 631 0 644 0 l 519 0 q 497 10 504 0 q 492 33 489 19 l 503 85 q 403 11 454 36 q 276 -14 353 -14 m 340 136 q 472 188 419 136 q 543 313 525 239 q 565 419 557 369 q 569 464 569 443 q 540 552 569 518 q 447 586 511 586 q 253 403 307 586 q 235 319 242 365 q 229 258 229 278 q 254 168 229 200 q 340 136 279 136 m 326 849 q 306 857 313 849 q 301 879 299 865 l 317 951 q 330 974 319 965 q 354 982 340 982 l 706 982 q 726 974 719 982 q 729 951 732 965 l 714 879 q 701 857 713 865 q 676 849 690 849 l 326 849 z "},"ą":{"ha":794,"x_min":14,"x_max":749,"o":"m 526 -306 q 413 -267 453 -306 q 374 -160 374 -228 q 381 -101 374 -136 q 417 -25 389 -60 q 476 28 444 10 q 468 46 465 33 l 478 88 q 376 15 438 43 q 231 -14 314 -14 q 74 35 135 -14 q 14 161 14 85 q 18 199 14 181 q 128 351 39 293 q 354 431 217 410 l 550 458 l 556 488 q 560 528 560 511 q 535 588 560 568 q 454 608 510 608 q 377 592 408 608 q 325 558 346 575 q 297 535 304 540 q 272 518 288 518 l 165 518 q 144 526 151 518 q 140 549 138 535 q 192 627 150 583 q 309 703 235 671 q 483 736 383 736 q 685 682 621 736 q 749 538 749 628 q 742 469 749 499 l 649 33 q 614 1 642 8 l 603 0 q 501 -101 519 -24 q 499 -131 499 -111 q 558 -189 499 -189 l 568 -189 q 590 -199 582 -189 q 594 -222 597 -208 l 583 -272 q 569 -296 581 -286 q 542 -306 557 -306 l 526 -306 m 307 119 q 442 169 383 119 q 521 314 501 219 l 526 342 l 383 319 q 254 280 300 307 q 201 213 208 253 q 199 193 199 199 q 230 139 199 158 q 307 119 261 119 z "},"å":{"ha":843,"x_min":35,"x_max":811,"o":"m 276 -14 q 96 53 157 -14 q 35 235 35 119 q 42 315 35 269 q 61 407 47 354 q 189 647 100 557 q 421 736 278 736 q 547 712 501 736 q 621 643 593 688 l 631 689 q 645 713 633 704 q 671 722 657 722 l 782 722 q 805 713 797 722 q 810 689 813 703 l 671 33 q 656 9 668 18 q 631 0 644 0 l 519 0 q 497 10 504 0 q 492 33 489 19 l 503 85 q 403 11 454 36 q 276 -14 353 -14 m 340 136 q 472 188 419 136 q 543 313 525 239 q 565 419 557 369 q 569 464 569 443 q 540 552 569 518 q 447 586 511 586 q 253 403 307 586 q 235 319 242 365 q 229 258 229 278 q 254 168 229 200 q 340 136 279 136 m 497 819 q 424 845 453 819 q 394 911 394 871 q 397 935 394 918 q 450 1018 408 985 q 542 1051 492 1051 q 617 1026 588 1051 q 646 958 646 1000 q 643 935 646 951 q 590 852 632 885 q 497 819 549 819 m 508 893 q 547 908 531 893 q 563 946 563 924 q 554 968 563 960 q 531 976 546 976 q 492 961 508 976 q 476 924 476 946 q 485 901 476 910 q 508 893 494 893 z "},"ã":{"ha":843,"x_min":35,"x_max":811,"o":"m 276 -14 q 96 53 157 -14 q 35 235 35 119 q 42 315 35 269 q 61 407 47 354 q 189 647 100 557 q 421 736 278 736 q 547 712 501 736 q 621 643 593 688 l 631 689 q 645 713 633 704 q 671 722 657 722 l 782 722 q 805 713 797 722 q 810 689 813 703 l 671 33 q 656 9 668 18 q 631 0 644 0 l 519 0 q 497 10 504 0 q 492 33 489 19 l 503 85 q 403 11 454 36 q 276 -14 353 -14 m 340 136 q 472 188 419 136 q 543 313 525 239 q 565 419 557 369 q 569 464 569 443 q 540 552 569 518 q 447 586 511 586 q 253 403 307 586 q 235 319 242 365 q 229 258 229 278 q 254 168 229 200 q 340 136 279 136 m 592 819 q 547 826 565 819 q 507 847 529 833 q 480 863 492 858 q 454 868 468 868 q 433 863 442 868 q 413 846 424 857 q 381 826 396 826 l 315 826 q 300 833 306 826 q 296 850 294 840 q 322 917 301 882 q 376 976 342 951 q 456 1000 411 1000 q 502 992 483 1000 q 542 971 521 985 q 561 960 546 968 q 594 951 576 951 q 615 957 607 951 q 633 974 624 963 q 649 987 640 981 q 667 993 657 993 l 732 993 q 748 986 743 993 q 751 969 753 979 q 726 903 746 938 q 671 844 706 868 q 592 819 636 819 z "},"æ":{"ha":1256,"x_min":15,"x_max":1221,"o":"m 243 -14 q 76 34 136 -14 q 15 158 15 82 q 19 199 15 178 q 129 353 39 293 q 357 433 219 413 l 551 460 l 557 488 q 561 526 561 508 q 536 588 561 567 q 456 608 511 608 q 378 592 410 608 q 325 558 346 575 q 297 535 304 540 q 272 518 288 518 l 165 518 q 144 526 151 518 q 140 549 138 535 q 190 626 147 582 q 309 703 233 671 q 483 736 385 736 q 699 643 653 736 q 949 736 806 736 q 1158 663 1094 736 q 1221 475 1221 589 q 1210 369 1221 425 l 1203 340 q 1188 317 1200 326 q 1161 307 1176 307 l 708 307 l 707 296 q 701 240 701 268 q 733 147 701 178 q 815 117 765 117 q 958 181 896 117 q 981 199 972 194 q 1007 203 990 203 l 1125 203 q 1143 197 1136 203 q 1150 182 1150 192 q 1103 106 1150 154 q 975 22 1057 58 q 789 -14 893 -14 q 638 19 697 -14 q 549 111 578 53 q 243 -14 432 -14 m 1031 425 l 1031 431 q 1038 489 1038 465 q 1008 577 1038 546 q 921 608 979 608 q 808 563 860 608 q 735 431 756 517 l 735 425 l 1031 425 m 307 119 q 443 169 383 119 q 522 314 503 219 l 528 342 l 385 319 q 246 274 292 306 q 200 194 200 242 q 231 139 200 158 q 307 119 261 119 z "},"ǽ":{"ha":1256,"x_min":15,"x_max":1221,"o":"m 243 -14 q 76 34 136 -14 q 15 158 15 82 q 19 199 15 178 q 129 353 39 293 q 357 433 219 413 l 551 460 l 557 488 q 561 526 561 508 q 536 588 561 567 q 456 608 511 608 q 378 592 410 608 q 325 558 346 575 q 297 535 304 540 q 272 518 288 518 l 165 518 q 144 526 151 518 q 140 549 138 535 q 190 626 147 582 q 309 703 233 671 q 483 736 385 736 q 699 643 653 736 q 949 736 806 736 q 1158 663 1094 736 q 1221 475 1221 589 q 1210 369 1221 425 l 1203 340 q 1188 317 1200 326 q 1161 307 1176 307 l 708 307 l 707 296 q 701 240 701 268 q 733 147 701 178 q 815 117 765 117 q 958 181 896 117 q 981 199 972 194 q 1007 203 990 203 l 1125 203 q 1143 197 1136 203 q 1150 182 1150 192 q 1103 106 1150 154 q 975 22 1057 58 q 789 -14 893 -14 q 638 19 697 -14 q 549 111 578 53 q 243 -14 432 -14 m 1031 425 l 1031 431 q 1038 489 1038 465 q 1008 577 1038 546 q 921 608 979 608 q 808 563 860 608 q 735 431 756 517 l 735 425 l 1031 425 m 307 119 q 443 169 383 119 q 522 314 503 219 l 528 342 l 385 319 q 246 274 292 306 q 200 194 200 242 q 231 139 200 158 q 307 119 261 119 m 665 826 q 651 833 656 826 q 649 849 646 839 q 660 867 651 860 l 803 1004 q 831 1026 819 1021 q 860 1031 842 1031 l 1001 1031 q 1018 1024 1013 1031 q 1022 1007 1024 1017 q 1011 986 1019 993 l 807 844 q 781 831 793 835 q 754 826 769 826 l 665 826 z "},"b":{"ha":851,"x_min":10,"x_max":796,"o":"m 411 -14 q 281 13 335 -14 q 203 85 228 40 l 192 33 q 177 9 189 18 q 151 0 165 0 l 39 0 q 17 10 24 0 q 13 33 10 19 l 208 953 q 223 977 211 968 q 249 986 235 986 l 369 986 q 392 976 385 986 q 396 953 399 967 l 331 644 q 428 713 378 689 q 549 736 479 736 q 733 669 669 736 q 796 488 796 601 q 789 411 796 456 q 768 313 782 365 q 640 74 731 161 q 411 -14 550 -14 m 379 136 q 579 319 522 136 q 596 403 592 361 q 601 465 601 447 q 575 554 601 522 q 485 586 549 586 q 353 537 407 586 q 282 419 299 488 q 260 313 268 360 q 256 264 256 288 q 285 172 256 207 q 379 136 314 136 z "},"c":{"ha":793,"x_min":33,"x_max":760,"o":"m 324 -14 q 114 55 194 -14 q 33 244 33 124 q 39 306 33 278 q 63 417 54 381 q 204 653 101 569 q 461 736 307 736 q 631 701 564 736 q 728 613 697 665 q 760 510 760 560 q 758 492 760 497 q 746 467 756 476 q 722 457 736 457 l 594 457 q 572 464 579 457 q 563 486 565 471 q 450 590 563 590 q 327 545 379 590 q 253 410 275 500 q 232 313 250 400 q 226 251 226 283 q 342 132 226 132 q 508 232 454 132 q 526 255 518 249 q 549 261 535 261 l 676 261 q 698 251 690 261 q 701 228 706 242 q 642 122 686 176 q 518 26 599 67 q 324 -14 438 -14 z "},"ć":{"ha":793,"x_min":33,"x_max":775,"o":"m 324 -14 q 114 55 194 -14 q 33 244 33 124 q 39 306 33 278 q 63 417 54 381 q 204 653 101 569 q 461 736 307 736 q 631 701 564 736 q 728 613 697 665 q 760 510 760 560 q 758 492 760 497 q 746 467 756 476 q 722 457 736 457 l 594 457 q 572 464 579 457 q 563 486 565 471 q 450 590 563 590 q 327 545 379 590 q 253 410 275 500 q 232 313 250 400 q 226 251 226 283 q 342 132 226 132 q 508 232 454 132 q 526 255 518 249 q 549 261 535 261 l 676 261 q 698 251 690 261 q 701 228 706 242 q 642 122 686 176 q 518 26 599 67 q 324 -14 438 -14 m 418 826 q 403 833 408 826 q 401 849 399 839 q 413 867 404 860 l 556 1004 q 583 1026 572 1021 q 613 1031 594 1031 l 754 1031 q 771 1024 765 1031 q 775 1007 776 1017 q 764 986 772 993 l 560 844 q 534 831 546 835 q 507 826 522 826 l 418 826 z "},"č":{"ha":793,"x_min":33,"x_max":760,"o":"m 324 -14 q 114 55 194 -14 q 33 244 33 124 q 39 306 33 278 q 63 417 54 381 q 204 653 101 569 q 461 736 307 736 q 631 701 564 736 q 728 613 697 665 q 760 510 760 560 q 758 492 760 497 q 746 467 756 476 q 722 457 736 457 l 594 457 q 572 464 579 457 q 563 486 565 471 q 450 590 563 590 q 327 545 379 590 q 253 410 275 500 q 232 313 250 400 q 226 251 226 283 q 342 132 226 132 q 508 232 454 132 q 526 255 518 249 q 549 261 535 261 l 676 261 q 698 251 690 261 q 701 228 706 242 q 642 122 686 176 q 518 26 599 67 q 324 -14 438 -14 m 447 826 q 424 831 433 826 q 406 849 415 835 l 296 992 q 290 1010 290 1003 q 299 1025 292 1019 q 315 1031 306 1031 l 365 1031 q 401 1021 386 1031 l 501 947 l 633 1021 q 674 1031 654 1031 l 743 1031 q 756 1026 751 1031 q 760 1013 761 1021 q 747 993 760 1001 l 578 849 q 550 831 561 835 q 525 826 539 826 l 447 826 z "},"ç":{"ha":793,"x_min":33,"x_max":760,"o":"m 253 410 q 232 313 250 400 q 226 251 226 283 q 342 132 226 132 q 508 232 454 132 q 526 255 518 249 q 549 261 535 261 l 676 261 q 698 251 690 261 q 701 228 706 242 q 642 122 686 176 q 519 26 599 67 q 325 -14 439 -14 l 283 -72 q 333 -64 303 -64 q 396 -90 372 -64 q 419 -157 419 -117 q 415 -187 419 -171 q 367 -274 404 -242 q 272 -306 331 -306 q 190 -287 226 -306 q 154 -250 154 -269 q 163 -235 154 -242 l 189 -214 q 203 -208 196 -208 q 227 -219 208 -208 q 274 -231 246 -231 q 313 -217 296 -231 q 335 -183 331 -204 q 326 -151 338 -164 q 293 -139 315 -139 q 258 -145 279 -139 q 229 -151 236 -151 q 213 -143 219 -151 l 190 -112 q 188 -103 188 -110 q 203 -67 188 -92 l 242 -6 q 90 78 146 13 q 33 243 33 143 q 39 306 33 276 q 63 417 54 381 q 204 653 101 569 q 461 736 307 736 q 631 701 564 736 q 728 613 697 665 q 760 510 760 560 q 758 492 760 497 q 746 467 756 476 q 722 457 736 457 l 594 457 q 572 464 579 457 q 563 486 565 471 q 450 590 563 590 q 327 545 379 590 q 253 410 275 500 z "},"ĉ":{"ha":793,"x_min":33,"x_max":760,"o":"m 324 -14 q 114 55 194 -14 q 33 244 33 124 q 39 306 33 278 q 63 417 54 381 q 204 653 101 569 q 461 736 307 736 q 631 701 564 736 q 728 613 697 665 q 760 510 760 560 q 758 492 760 497 q 746 467 756 476 q 722 457 736 457 l 594 457 q 572 464 579 457 q 563 486 565 471 q 450 590 563 590 q 327 545 379 590 q 253 410 275 500 q 232 313 250 400 q 226 251 226 283 q 342 132 226 132 q 508 232 454 132 q 526 255 518 249 q 549 261 535 261 l 676 261 q 698 251 690 261 q 701 228 706 242 q 642 122 686 176 q 518 26 599 67 q 324 -14 438 -14 m 264 835 q 251 840 256 835 q 247 853 246 844 q 260 872 247 864 l 429 1017 q 457 1035 446 1031 q 482 1039 468 1039 l 560 1039 q 583 1035 574 1039 q 601 1017 592 1031 l 711 872 q 715 853 718 864 q 708 840 714 844 q 692 835 701 835 l 643 835 q 606 844 621 835 l 506 918 l 374 844 q 335 835 353 835 l 264 835 z "},"ċ":{"ha":793,"x_min":33,"x_max":760,"o":"m 324 -14 q 114 55 194 -14 q 33 244 33 124 q 39 306 33 278 q 63 417 54 381 q 204 653 101 569 q 461 736 307 736 q 631 701 564 736 q 728 613 697 665 q 760 510 760 560 q 758 492 760 497 q 746 467 756 476 q 722 457 736 457 l 594 457 q 572 464 579 457 q 563 486 565 471 q 450 590 563 590 q 327 545 379 590 q 253 410 275 500 q 232 313 250 400 q 226 251 226 283 q 342 132 226 132 q 508 232 454 132 q 526 255 518 249 q 549 261 535 261 l 676 261 q 698 251 690 261 q 701 228 706 242 q 642 122 686 176 q 518 26 599 67 q 324 -14 438 -14 m 435 844 q 414 853 421 844 q 410 875 407 861 l 435 990 q 448 1013 438 1004 q 472 1022 458 1022 l 588 1022 q 608 1013 601 1022 q 613 990 615 1004 l 588 875 q 574 853 585 861 q 550 844 564 844 l 435 844 z "},"d":{"ha":851,"x_min":35,"x_max":876,"o":"m 279 -14 q 97 53 160 -14 q 35 236 35 121 q 42 315 35 269 q 61 407 47 354 q 188 646 99 556 q 418 736 278 736 q 544 711 493 736 q 621 644 594 686 l 686 953 q 701 977 689 968 q 726 986 713 986 l 847 986 q 869 976 861 986 q 874 953 876 967 l 678 33 q 664 10 675 19 q 639 0 653 0 l 526 0 q 503 10 511 0 q 499 33 496 19 l 510 85 q 409 11 461 36 q 279 -14 357 -14 m 344 136 q 478 188 424 136 q 550 313 532 240 q 572 419 564 369 q 576 460 576 440 q 546 551 576 515 q 450 586 515 586 q 325 535 374 586 q 253 403 276 485 q 235 319 239 354 q 229 261 229 278 q 344 136 229 136 z "},"ð":{"ha":815,"x_min":49,"x_max":843,"o":"m 333 -14 q 122 51 196 -14 q 49 232 49 117 q 58 321 49 276 q 203 563 90 474 q 475 653 317 653 q 583 621 543 653 q 542 751 574 692 l 383 694 q 365 690 371 690 q 347 697 353 690 q 343 717 342 704 l 350 749 q 362 774 353 765 q 389 789 371 782 l 490 825 q 403 914 454 869 q 388 940 388 928 q 398 963 388 954 q 422 972 408 972 l 547 972 q 603 954 585 972 q 664 886 651 903 l 801 936 q 819 940 814 940 q 838 933 832 940 q 842 914 843 926 l 835 882 q 824 858 832 865 q 796 843 815 850 l 715 814 q 778 556 778 708 q 757 354 778 469 l 749 315 q 603 74 713 163 q 333 -14 493 -14 m 363 126 q 487 175 438 126 q 554 303 536 224 q 563 336 557 311 q 568 389 568 360 q 538 481 568 447 q 446 514 508 514 q 321 465 369 514 q 254 336 272 415 q 246 301 251 328 q 240 251 240 265 q 270 160 240 193 q 363 126 300 126 z "},"ď":{"ha":996,"x_min":35,"x_max":1158,"o":"m 279 -14 q 97 53 160 -14 q 35 236 35 121 q 42 315 35 269 q 61 407 47 354 q 188 646 99 556 q 418 736 278 736 q 544 711 493 736 q 621 644 594 686 l 686 953 q 701 977 689 968 q 726 986 713 986 l 847 986 q 869 976 861 986 q 874 953 876 967 l 678 33 q 664 10 675 19 q 639 0 653 0 l 526 0 q 503 10 511 0 q 499 33 496 19 l 510 85 q 409 11 461 36 q 279 -14 357 -14 m 344 136 q 478 188 424 136 q 550 313 532 240 q 572 419 564 369 q 576 460 576 440 q 546 551 576 515 q 450 586 515 586 q 325 535 374 586 q 253 403 276 485 q 235 319 239 354 q 229 261 229 278 q 344 136 229 136 m 924 740 q 908 746 914 740 q 903 760 903 751 l 906 771 l 967 942 q 988 974 974 961 q 1022 986 1003 986 l 1140 986 q 1156 978 1150 986 q 1158 960 1161 971 q 1150 942 1154 947 l 1051 776 q 999 740 1029 740 l 924 740 z "},"đ":{"ha":853,"x_min":33,"x_max":954,"o":"m 268 -14 q 90 51 146 -14 q 33 224 33 115 q 42 315 33 268 q 61 407 56 385 q 190 642 97 549 q 428 736 282 736 q 621 644 563 736 l 650 779 l 586 779 q 565 789 572 779 q 560 814 557 799 l 568 854 q 583 878 571 869 q 608 888 594 888 l 672 888 l 688 953 q 701 977 690 968 q 726 986 713 986 l 847 986 q 870 976 863 986 q 875 953 878 967 l 860 888 l 925 888 q 947 878 940 888 q 951 854 954 868 l 943 814 q 928 790 940 800 q 903 779 917 779 l 838 779 l 679 33 q 665 9 676 18 q 639 0 653 0 l 528 0 q 505 10 513 0 q 500 33 497 19 l 513 89 q 268 -14 413 -14 m 353 136 q 482 188 432 136 q 551 313 532 239 q 574 419 565 369 q 578 458 578 439 q 546 550 578 514 q 449 586 514 586 q 253 403 299 586 q 235 319 239 354 q 229 263 229 281 q 353 136 229 136 z "},"e":{"ha":800,"x_min":56,"x_max":769,"o":"m 333 -14 q 128 53 200 -14 q 56 243 56 119 q 63 328 56 290 q 78 397 64 338 q 228 646 118 556 q 492 736 339 736 q 699 666 629 736 q 769 474 769 596 q 758 369 769 428 l 751 340 q 737 317 749 326 q 710 307 725 307 l 250 307 l 247 296 q 243 249 243 271 q 273 153 243 190 q 360 117 303 117 q 503 181 439 117 q 526 199 518 196 q 551 203 535 203 l 674 203 q 693 194 686 203 q 697 174 700 186 q 638 96 688 140 q 509 19 589 51 q 333 -14 429 -14 m 579 425 l 579 428 q 585 482 585 454 q 554 574 585 540 q 465 608 524 608 q 343 559 394 608 q 275 428 292 510 l 275 425 l 579 425 z "},"é":{"ha":800,"x_min":56,"x_max":776,"o":"m 333 -14 q 128 53 200 -14 q 56 243 56 119 q 63 328 56 290 q 78 397 64 338 q 228 646 118 556 q 492 736 339 736 q 699 666 629 736 q 769 474 769 596 q 758 369 769 428 l 751 340 q 737 317 749 326 q 710 307 725 307 l 250 307 l 247 296 q 243 249 243 271 q 273 153 243 190 q 360 117 303 117 q 503 181 439 117 q 526 199 518 196 q 551 203 535 203 l 674 203 q 693 194 686 203 q 697 174 700 186 q 638 96 688 140 q 509 19 589 51 q 333 -14 429 -14 m 579 425 l 579 428 q 585 482 585 454 q 554 574 585 540 q 465 608 524 608 q 343 559 394 608 q 275 428 292 510 l 275 425 l 579 425 m 419 826 q 405 833 410 826 q 403 849 400 839 q 414 867 406 860 l 557 1004 q 585 1026 574 1021 q 614 1031 596 1031 l 756 1031 q 772 1024 767 1031 q 776 1007 778 1017 q 765 986 774 993 l 561 844 q 535 831 547 835 q 508 826 524 826 l 419 826 z "},"ĕ":{"ha":800,"x_min":56,"x_max":769,"o":"m 333 -14 q 128 53 200 -14 q 56 243 56 119 q 63 328 56 290 q 78 397 64 338 q 228 646 118 556 q 492 736 339 736 q 699 666 629 736 q 769 474 769 596 q 758 369 769 428 l 751 340 q 737 317 749 326 q 710 307 725 307 l 250 307 l 247 296 q 243 249 243 271 q 273 153 243 190 q 360 117 303 117 q 503 181 439 117 q 526 199 518 196 q 551 203 535 203 l 674 203 q 693 194 686 203 q 697 174 700 186 q 638 96 688 140 q 509 19 589 51 q 333 -14 429 -14 m 579 425 l 579 428 q 585 482 585 454 q 554 574 585 540 q 465 608 524 608 q 343 559 394 608 q 275 428 292 510 l 275 425 l 579 425 m 489 819 q 367 860 410 819 q 324 965 324 901 q 328 1004 324 983 q 339 1023 331 1015 q 360 1031 347 1031 l 426 1031 q 444 1023 439 1031 q 447 1004 450 1015 q 443 971 443 988 q 497 918 443 918 q 586 1004 564 918 q 597 1023 589 1015 q 618 1031 606 1031 l 685 1031 q 703 1023 697 1031 q 706 1004 708 1015 q 489 819 667 819 z "},"ě":{"ha":800,"x_min":56,"x_max":769,"o":"m 333 -14 q 128 53 200 -14 q 56 243 56 119 q 63 328 56 290 q 78 397 64 338 q 228 646 118 556 q 492 736 339 736 q 699 666 629 736 q 769 474 769 596 q 758 369 769 428 l 751 340 q 737 317 749 326 q 710 307 725 307 l 250 307 l 247 296 q 243 249 243 271 q 273 153 243 190 q 360 117 303 117 q 503 181 439 117 q 526 199 518 196 q 551 203 535 203 l 674 203 q 693 194 686 203 q 697 174 700 186 q 638 96 688 140 q 509 19 589 51 q 333 -14 429 -14 m 579 425 l 579 428 q 585 482 585 454 q 554 574 585 540 q 465 608 524 608 q 343 559 394 608 q 275 428 292 510 l 275 425 l 579 425 m 453 826 q 430 831 439 826 q 411 849 421 835 l 301 992 q 296 1010 296 1003 q 304 1025 297 1019 q 321 1031 311 1031 l 371 1031 q 407 1021 392 1031 l 507 947 l 639 1021 q 679 1031 660 1031 l 749 1031 q 762 1026 757 1031 q 765 1013 767 1021 q 753 993 765 1001 l 583 849 q 556 831 567 835 q 531 826 544 826 l 453 826 z "},"ê":{"ha":800,"x_min":56,"x_max":769,"o":"m 333 -14 q 128 53 200 -14 q 56 243 56 119 q 63 328 56 290 q 78 397 64 338 q 228 646 118 556 q 492 736 339 736 q 699 666 629 736 q 769 474 769 596 q 758 369 769 428 l 751 340 q 737 317 749 326 q 710 307 725 307 l 250 307 l 247 296 q 243 249 243 271 q 273 153 243 190 q 360 117 303 117 q 503 181 439 117 q 526 199 518 196 q 551 203 535 203 l 674 203 q 693 194 686 203 q 697 174 700 186 q 638 96 688 140 q 509 19 589 51 q 333 -14 429 -14 m 579 425 l 579 428 q 585 482 585 454 q 554 574 585 540 q 465 608 524 608 q 343 559 394 608 q 275 428 292 510 l 275 425 l 579 425 m 258 826 q 245 831 250 826 q 242 844 240 836 q 254 864 242 856 l 424 1008 q 451 1026 440 1022 q 476 1031 463 1031 l 554 1031 q 577 1026 568 1031 q 596 1008 586 1022 l 706 864 q 710 844 713 856 q 702 831 708 836 q 686 826 696 826 l 638 826 q 600 836 615 826 l 500 910 l 368 836 q 329 826 347 826 l 258 826 z "},"ë":{"ha":800,"x_min":56,"x_max":769,"o":"m 333 -14 q 128 53 200 -14 q 56 243 56 119 q 63 328 56 290 q 78 397 64 338 q 228 646 118 556 q 492 736 339 736 q 699 666 629 736 q 769 474 769 596 q 758 369 769 428 l 751 340 q 737 317 749 326 q 710 307 725 307 l 250 307 l 247 296 q 243 249 243 271 q 273 153 243 190 q 360 117 303 117 q 503 181 439 117 q 526 199 518 196 q 551 203 535 203 l 674 203 q 693 194 686 203 q 697 174 700 186 q 638 96 688 140 q 509 19 589 51 q 333 -14 429 -14 m 579 425 l 579 428 q 585 482 585 454 q 554 574 585 540 q 465 608 524 608 q 343 559 394 608 q 275 428 292 510 l 275 425 l 579 425 m 310 853 q 289 861 296 853 q 285 883 282 869 l 307 986 q 320 1009 310 1000 q 344 1018 331 1018 l 447 1018 q 468 1009 461 1018 q 472 986 475 1000 l 450 883 q 437 861 447 869 q 413 853 426 853 l 310 853 m 572 853 q 551 861 558 853 q 547 883 544 869 l 569 986 q 582 1009 571 1000 q 607 1018 593 1018 l 710 1018 q 731 1009 724 1018 q 735 986 738 1000 l 713 883 q 699 861 710 869 q 675 853 689 853 l 572 853 z "},"ė":{"ha":800,"x_min":56,"x_max":769,"o":"m 333 -14 q 128 53 200 -14 q 56 243 56 119 q 63 328 56 290 q 78 397 64 338 q 228 646 118 556 q 492 736 339 736 q 699 666 629 736 q 769 474 769 596 q 758 369 769 428 l 751 340 q 737 317 749 326 q 710 307 725 307 l 250 307 l 247 296 q 243 249 243 271 q 273 153 243 190 q 360 117 303 117 q 503 181 439 117 q 526 199 518 196 q 551 203 535 203 l 674 203 q 693 194 686 203 q 697 174 700 186 q 638 96 688 140 q 509 19 589 51 q 333 -14 429 -14 m 579 425 l 579 428 q 585 482 585 454 q 554 574 585 540 q 465 608 524 608 q 343 559 394 608 q 275 428 292 510 l 275 425 l 579 425 m 431 844 q 410 853 417 844 q 406 875 403 861 l 431 990 q 444 1013 433 1004 q 468 1022 454 1022 l 583 1022 q 604 1013 597 1022 q 608 990 611 1004 l 583 875 q 570 853 581 861 q 546 844 560 844 l 431 844 z "},"è":{"ha":800,"x_min":56,"x_max":769,"o":"m 333 -14 q 128 53 200 -14 q 56 243 56 119 q 63 328 56 290 q 78 397 64 338 q 228 646 118 556 q 492 736 339 736 q 699 666 629 736 q 769 474 769 596 q 758 369 769 428 l 751 340 q 737 317 749 326 q 710 307 725 307 l 250 307 l 247 296 q 243 249 243 271 q 273 153 243 190 q 360 117 303 117 q 503 181 439 117 q 526 199 518 196 q 551 203 535 203 l 674 203 q 693 194 686 203 q 697 174 700 186 q 638 96 688 140 q 509 19 589 51 q 333 -14 429 -14 m 579 425 l 579 428 q 585 482 585 454 q 554 574 585 540 q 465 608 524 608 q 343 559 394 608 q 275 428 292 510 l 275 425 l 579 425 m 454 826 q 428 831 438 826 q 408 844 418 835 l 268 985 q 263 999 263 990 q 272 1022 263 1013 q 293 1031 281 1031 l 442 1031 q 468 1026 460 1031 q 488 1004 476 1021 l 571 868 q 574 847 576 858 q 564 833 571 839 q 547 826 557 826 l 454 826 z "},"ē":{"ha":800,"x_min":56,"x_max":769,"o":"m 333 -14 q 128 53 200 -14 q 56 243 56 119 q 63 328 56 290 q 78 397 64 338 q 228 646 118 556 q 492 736 339 736 q 699 666 629 736 q 769 474 769 596 q 758 369 769 428 l 751 340 q 737 317 749 326 q 710 307 725 307 l 250 307 l 247 296 q 243 249 243 271 q 273 153 243 190 q 360 117 303 117 q 503 181 439 117 q 526 199 518 196 q 551 203 535 203 l 674 203 q 693 194 686 203 q 697 174 700 186 q 638 96 688 140 q 509 19 589 51 q 333 -14 429 -14 m 579 425 l 579 428 q 585 482 585 454 q 554 574 585 540 q 465 608 524 608 q 343 559 394 608 q 275 428 292 510 l 275 425 l 579 425 m 315 849 q 294 857 301 849 q 290 879 288 865 l 306 951 q 319 974 308 965 q 343 982 329 982 l 694 982 q 715 974 708 982 q 718 951 721 965 l 703 879 q 690 857 701 865 q 665 849 679 849 l 315 849 z "},"ę":{"ha":804,"x_min":56,"x_max":771,"o":"m 344 -306 q 219 -265 263 -306 q 176 -154 176 -224 q 183 -94 176 -129 q 222 0 194 -37 q 98 85 140 24 q 56 242 56 147 q 64 328 56 282 q 78 396 69 360 q 229 645 118 554 q 493 736 340 736 q 701 667 631 736 q 771 475 771 597 q 758 369 771 426 l 753 340 q 738 317 750 326 q 711 307 726 307 l 250 307 l 249 296 q 244 249 244 271 q 274 153 244 190 q 360 117 304 117 q 503 181 439 117 q 527 199 519 196 q 551 203 535 203 l 674 203 q 694 195 688 203 q 697 174 701 188 q 651 107 690 144 q 550 37 613 69 q 410 -8 488 4 q 304 -94 319 -24 q 301 -119 301 -111 q 320 -170 301 -151 q 375 -189 339 -189 l 393 -189 q 415 -199 408 -189 q 419 -222 422 -208 l 408 -272 q 394 -296 406 -286 q 367 -306 382 -306 l 344 -306 m 579 425 l 579 428 q 585 482 585 454 q 554 574 585 540 q 465 608 524 608 q 343 559 394 608 q 275 428 292 510 l 275 425 l 579 425 z "},"f":{"ha":572,"x_min":61,"x_max":697,"o":"m 114 0 q 92 10 100 0 q 88 33 85 19 l 203 574 l 90 574 q 68 583 75 574 q 64 607 61 593 l 81 689 q 95 713 83 703 q 122 722 107 722 l 233 722 l 246 778 q 556 1028 300 1028 l 668 1028 q 690 1018 683 1028 q 694 994 697 1008 l 676 913 q 662 889 674 899 q 636 879 650 879 l 553 879 q 468 852 499 879 q 426 771 438 825 l 415 722 l 589 722 q 611 713 604 722 q 615 689 618 703 l 597 607 q 584 583 596 593 q 557 574 572 574 l 385 574 l 269 33 q 255 9 267 18 q 229 0 243 0 l 114 0 z "},"g":{"ha":854,"x_min":-36,"x_max":822,"o":"m 272 -306 q 85 -265 154 -306 q -10 -172 15 -225 q -31 -83 -36 -119 q -18 -59 -29 -69 q 7 -49 -7 -49 l 135 -49 q 155 -55 147 -49 q 164 -78 163 -61 q 283 -165 175 -165 q 483 0 449 -165 l 503 94 q 406 28 457 51 q 285 6 356 6 q 99 69 160 6 q 38 247 38 133 q 44 332 38 296 q 60 407 50 367 q 188 647 100 558 q 418 736 275 736 q 547 708 493 736 q 625 633 600 679 l 638 688 q 652 713 640 703 q 678 722 664 722 l 793 722 q 815 712 807 722 q 819 688 822 701 l 678 18 q 549 -224 643 -142 q 272 -306 454 -306 m 347 153 q 479 203 425 153 q 551 325 533 254 q 569 414 564 374 q 574 457 574 435 q 544 550 574 514 q 450 586 514 586 q 323 535 372 586 q 251 403 274 483 q 236 336 240 367 q 231 275 231 294 q 347 153 231 153 z "},"ğ":{"ha":854,"x_min":-32,"x_max":821,"o":"m 272 -306 q 85 -265 154 -306 q -10 -172 15 -225 q -31 -83 -36 -119 q -18 -59 -29 -69 q 7 -49 -7 -49 l 135 -49 q 155 -55 147 -49 q 164 -78 163 -61 q 283 -165 175 -165 q 483 0 449 -165 l 503 94 q 406 28 457 51 q 285 6 356 6 q 99 69 160 6 q 38 247 38 133 q 44 332 38 296 q 60 407 50 367 q 188 647 100 558 q 418 736 275 736 q 547 708 493 736 q 625 633 600 679 l 638 688 q 652 713 640 703 q 678 722 664 722 l 793 722 q 815 712 807 722 q 819 688 822 701 l 678 18 q 549 -224 643 -142 q 272 -306 454 -306 m 347 153 q 479 203 425 153 q 551 325 533 254 q 569 414 564 374 q 574 457 574 435 q 544 550 574 514 q 450 586 514 586 q 323 535 372 586 q 251 403 274 483 q 236 336 240 367 q 231 275 231 294 q 347 153 231 153 m 515 819 q 393 860 436 819 q 350 965 350 901 q 354 1004 350 983 q 365 1023 357 1015 q 386 1031 374 1031 l 453 1031 q 471 1023 465 1031 q 474 1004 476 1015 q 469 971 469 988 q 524 918 469 918 q 613 1004 590 918 q 624 1023 615 1015 q 644 1031 632 1031 l 711 1031 q 729 1023 724 1031 q 732 1004 735 1015 q 515 819 693 819 z "},"ĝ":{"ha":854,"x_min":-32,"x_max":821,"o":"m 272 -306 q 85 -265 154 -306 q -10 -172 15 -225 q -31 -83 -36 -119 q -18 -59 -29 -69 q 7 -49 -7 -49 l 135 -49 q 155 -55 147 -49 q 164 -78 163 -61 q 283 -165 175 -165 q 483 0 449 -165 l 503 94 q 406 28 457 51 q 285 6 356 6 q 99 69 160 6 q 38 247 38 133 q 44 332 38 296 q 60 407 50 367 q 188 647 100 558 q 418 736 275 736 q 547 708 493 736 q 625 633 600 679 l 638 688 q 652 713 640 703 q 678 722 664 722 l 793 722 q 815 712 807 722 q 819 688 822 701 l 678 18 q 549 -224 643 -142 q 272 -306 454 -306 m 347 153 q 479 203 425 153 q 551 325 533 254 q 569 414 564 374 q 574 457 574 435 q 544 550 574 514 q 450 586 514 586 q 323 535 372 586 q 251 403 274 483 q 236 336 240 367 q 231 275 231 294 q 347 153 231 153 m 285 826 q 272 831 276 826 q 268 844 267 836 q 281 864 268 856 l 450 1008 q 478 1026 467 1022 q 503 1031 489 1031 l 581 1031 q 603 1026 594 1031 q 622 1008 613 1022 l 732 864 q 736 844 739 856 q 728 831 735 836 q 713 826 722 826 l 664 826 q 626 836 642 826 l 526 910 l 394 836 q 356 826 374 826 l 285 826 z "},"ģ":{"ha":854,"x_min":-36,"x_max":822,"o":"m 749 1072 q 764 1067 758 1072 q 769 1053 769 1061 l 767 1042 l 706 871 q 684 839 699 851 q 650 826 669 826 l 532 826 q 517 834 522 826 q 514 853 511 842 q 522 871 518 865 l 621 1036 q 674 1072 643 1072 l 749 1072 m 272 -306 q 85 -265 154 -306 q -10 -172 15 -225 q -31 -83 -36 -119 q -18 -59 -29 -69 q 7 -49 -7 -49 l 135 -49 q 155 -55 147 -49 q 164 -78 163 -61 q 283 -165 175 -165 q 483 0 449 -165 l 503 94 q 406 28 457 51 q 285 6 356 6 q 99 69 160 6 q 38 247 38 133 q 44 332 38 296 q 60 407 50 367 q 188 647 100 558 q 418 736 275 736 q 547 708 493 736 q 625 633 600 679 l 638 688 q 652 713 640 703 q 678 722 664 722 l 793 722 q 815 712 807 722 q 819 688 822 701 l 678 18 q 549 -224 643 -142 q 272 -306 454 -306 m 347 153 q 479 203 425 153 q 551 325 533 254 q 569 414 564 374 q 574 457 574 435 q 544 550 574 514 q 450 586 514 586 q 323 535 372 586 q 251 403 274 483 q 236 336 240 367 q 231 275 231 294 q 347 153 231 153 z "},"ġ":{"ha":854,"x_min":-32,"x_max":821,"o":"m 272 -306 q 85 -265 154 -306 q -10 -172 15 -225 q -31 -83 -36 -119 q -18 -59 -29 -69 q 7 -49 -7 -49 l 135 -49 q 155 -55 147 -49 q 164 -78 163 -61 q 283 -165 175 -165 q 483 0 449 -165 l 503 94 q 406 28 457 51 q 285 6 356 6 q 99 69 160 6 q 38 247 38 133 q 44 332 38 296 q 60 407 50 367 q 188 647 100 558 q 418 736 275 736 q 547 708 493 736 q 625 633 600 679 l 638 688 q 652 713 640 703 q 678 722 664 722 l 793 722 q 815 712 807 722 q 819 688 822 701 l 678 18 q 549 -224 643 -142 q 272 -306 454 -306 m 347 153 q 479 203 425 153 q 551 325 533 254 q 569 414 564 374 q 574 457 574 435 q 544 550 574 514 q 450 586 514 586 q 323 535 372 586 q 251 403 274 483 q 236 336 240 367 q 231 275 231 294 q 347 153 231 153 m 453 844 q 432 853 439 844 q 428 875 425 861 l 453 990 q 466 1013 456 1004 q 490 1022 476 1022 l 606 1022 q 626 1013 619 1022 q 631 990 633 1004 l 606 875 q 592 853 603 861 q 568 844 582 844 l 453 844 z "},"h":{"ha":875,"x_min":8,"x_max":803,"o":"m 39 0 q 16 10 24 0 q 11 33 8 19 l 208 953 q 222 977 211 968 q 247 986 233 986 l 374 986 q 397 976 389 986 q 401 953 404 967 l 333 636 q 436 710 381 685 q 564 736 492 736 q 740 676 676 736 q 803 511 803 617 q 793 424 803 467 l 710 33 q 696 10 707 19 q 671 0 685 0 l 543 0 q 520 10 528 0 q 515 33 513 19 l 596 415 q 603 478 603 443 q 489 586 603 586 q 360 540 417 586 q 286 415 303 494 l 206 33 q 191 9 203 18 q 165 0 179 0 l 39 0 z "},"ħ":{"ha":875,"x_min":8,"x_max":804,"o":"m 39 0 q 16 10 24 0 q 11 33 8 19 l 169 774 l 107 774 q 85 783 93 774 q 82 807 78 793 l 90 849 q 105 873 93 864 q 131 882 117 882 l 192 882 l 208 953 q 222 977 211 968 q 247 986 233 986 l 374 986 q 397 976 389 986 q 401 953 404 967 l 386 882 l 446 882 q 469 872 461 882 q 474 849 476 863 l 465 807 q 449 783 461 793 q 424 774 438 774 l 363 774 l 333 636 q 569 736 433 736 q 744 679 683 736 q 804 517 804 622 q 793 424 804 476 l 710 35 q 696 10 707 19 q 671 0 685 0 l 543 0 q 520 10 528 0 q 515 35 513 21 l 596 415 q 604 483 604 453 q 577 560 604 535 q 489 586 550 586 q 360 540 417 586 q 286 415 303 494 l 206 33 q 191 9 203 18 q 165 0 179 0 l 39 0 z "},"ĥ":{"ha":875,"x_min":10,"x_max":803,"o":"m 39 0 q 16 10 24 0 q 11 33 8 19 l 208 953 q 222 977 211 968 q 247 986 233 986 l 374 986 q 397 976 389 986 q 401 953 404 967 l 333 636 q 436 710 381 685 q 564 736 492 736 q 740 676 676 736 q 803 511 803 617 q 793 424 803 467 l 710 33 q 696 10 707 19 q 671 0 685 0 l 543 0 q 520 10 528 0 q 515 33 513 19 l 596 415 q 603 478 603 443 q 489 586 603 586 q 360 540 417 586 q 286 415 303 494 l 206 33 q 191 9 203 18 q 165 0 179 0 l 39 0 m 314 1042 q 301 1047 306 1042 q 297 1060 296 1051 q 310 1079 297 1071 l 479 1224 q 507 1242 496 1238 q 532 1246 518 1246 l 610 1246 q 633 1242 624 1246 q 651 1224 642 1238 l 761 1079 q 765 1060 768 1071 q 758 1047 764 1051 q 742 1042 751 1042 l 693 1042 q 656 1051 671 1042 l 556 1125 l 424 1051 q 385 1042 403 1042 l 314 1042 z "},"i":{"ha":368,"x_min":8,"x_max":406,"o":"m 211 840 q 190 850 197 840 q 185 874 182 860 l 207 975 q 220 999 208 989 q 247 1010 232 1010 l 375 1010 q 397 1000 389 1010 q 403 975 406 990 l 381 874 q 366 850 378 860 q 340 840 354 840 l 211 840 m 39 0 q 16 10 24 0 q 11 33 8 19 l 151 689 q 166 713 154 704 q 192 722 178 722 l 310 722 q 331 713 324 722 q 335 689 338 703 l 196 33 q 182 10 193 19 q 157 0 171 0 l 39 0 z "},"ı":{"ha":368,"x_min":8,"x_max":338,"o":"m 39 0 q 16 10 24 0 q 11 33 8 19 l 151 689 q 166 713 154 704 q 192 722 178 722 l 310 722 q 331 713 324 722 q 335 689 338 703 l 196 33 q 182 10 193 19 q 157 0 171 0 l 39 0 z "},"í":{"ha":368,"x_min":10,"x_max":568,"o":"m 39 0 q 16 10 24 0 q 11 33 8 19 l 151 689 q 166 713 154 704 q 192 722 178 722 l 310 722 q 331 713 324 722 q 335 689 338 703 l 196 33 q 182 10 193 19 q 157 0 171 0 l 39 0 m 211 826 q 197 833 201 826 q 194 849 192 839 q 206 867 197 860 l 349 1004 q 376 1026 365 1021 q 406 1031 388 1031 l 547 1031 q 564 1024 558 1031 q 568 1007 569 1017 q 557 986 565 993 l 353 844 q 327 831 339 835 q 300 826 315 826 l 211 826 z "},"ĭ":{"ha":368,"x_min":10,"x_max":499,"o":"m 39 0 q 16 10 24 0 q 11 33 8 19 l 151 689 q 166 713 154 704 q 192 722 178 722 l 310 722 q 331 713 324 722 q 335 689 338 703 l 196 33 q 182 10 193 19 q 157 0 171 0 l 39 0 m 282 819 q 160 860 203 819 q 117 965 117 901 q 121 1004 117 983 q 132 1023 124 1015 q 153 1031 140 1031 l 219 1031 q 238 1023 232 1031 q 240 1004 243 1015 q 236 971 236 988 q 290 918 236 918 q 379 1004 357 918 q 390 1023 382 1015 q 411 1031 399 1031 l 478 1031 q 496 1023 490 1031 q 499 1004 501 1015 q 282 819 460 819 z "},"î":{"ha":368,"x_min":10,"x_max":501,"o":"m 39 0 q 16 10 24 0 q 11 33 8 19 l 151 689 q 166 713 154 704 q 192 722 178 722 l 310 722 q 331 713 324 722 q 335 689 338 703 l 196 33 q 182 10 193 19 q 157 0 171 0 l 39 0 m 50 826 q 37 831 42 826 q 33 844 32 836 q 46 864 33 856 l 215 1008 q 243 1026 232 1022 q 268 1031 254 1031 l 346 1031 q 369 1026 360 1031 q 388 1008 378 1022 l 497 864 q 501 844 504 856 q 494 831 500 836 q 478 826 488 826 l 429 826 q 392 836 407 826 l 292 910 l 160 836 q 121 826 139 826 l 50 826 z "},"ï":{"ha":368,"x_min":10,"x_max":522,"o":"m 39 0 q 16 10 24 0 q 11 33 8 19 l 151 689 q 166 713 154 704 q 192 722 178 722 l 310 722 q 331 713 324 722 q 335 689 338 703 l 196 33 q 182 10 193 19 q 157 0 171 0 l 39 0 m 96 853 q 75 861 82 853 q 71 883 68 869 l 93 986 q 106 1009 96 1000 q 131 1018 117 1018 l 233 1018 q 254 1009 247 1018 q 258 986 261 1000 l 236 883 q 223 861 233 869 q 199 853 213 853 l 96 853 m 358 853 q 338 861 344 853 q 333 883 331 869 l 356 986 q 368 1009 357 1000 q 393 1018 379 1018 l 496 1018 q 517 1009 510 1018 q 521 986 524 1000 l 499 883 q 485 861 496 869 q 461 853 475 853 l 358 853 z "},"ì":{"ha":368,"x_min":10,"x_max":360,"o":"m 39 0 q 16 10 24 0 q 11 33 8 19 l 151 689 q 166 713 154 704 q 192 722 178 722 l 310 722 q 331 713 324 722 q 335 689 338 703 l 196 33 q 182 10 193 19 q 157 0 171 0 l 39 0 m 240 826 q 214 831 224 826 q 194 844 204 835 l 54 985 q 49 999 49 990 q 58 1022 49 1013 q 79 1031 67 1031 l 228 1031 q 254 1026 246 1031 q 274 1004 263 1021 l 357 868 q 360 847 363 858 q 350 833 357 839 q 333 826 343 826 l 240 826 z "},"ĳ":{"ha":758,"x_min":10,"x_max":790,"o":"m 211 840 q 190 850 197 840 q 185 874 182 860 l 207 975 q 220 999 208 989 q 247 1010 232 1010 l 375 1010 q 397 1000 389 1010 q 403 975 406 990 l 381 874 q 366 850 378 860 q 340 840 354 840 l 211 840 m 39 0 q 16 10 24 0 q 11 33 8 19 l 151 689 q 166 713 154 704 q 192 722 178 722 l 310 722 q 331 713 324 722 q 335 689 338 703 l 196 33 q 182 10 193 19 q 157 0 171 0 l 39 0 m 593 840 q 572 850 579 840 q 567 874 564 860 l 589 975 q 602 999 590 989 q 629 1010 614 1010 l 763 1010 q 785 1000 776 1010 q 790 975 793 990 l 768 874 q 753 850 765 860 q 728 840 742 840 l 593 840 m 197 -264 q 176 -255 183 -264 q 172 -231 169 -246 l 189 -149 q 203 -124 192 -133 q 229 -115 215 -115 l 269 -115 q 388 3 364 -115 l 533 689 q 548 713 536 703 q 574 722 560 722 l 697 722 q 718 713 711 722 q 722 689 725 703 l 576 -1 q 473 -197 549 -129 q 261 -264 397 -264 l 197 -264 z "},"ī":{"ha":368,"x_min":10,"x_max":506,"o":"m 39 0 q 16 10 24 0 q 11 33 8 19 l 151 689 q 166 713 154 704 q 192 722 178 722 l 310 722 q 331 713 324 722 q 335 689 338 703 l 196 33 q 182 10 193 19 q 157 0 171 0 l 39 0 m 101 849 q 81 857 88 849 q 76 879 74 865 l 92 951 q 105 974 94 965 q 129 982 115 982 l 481 982 q 501 974 494 982 q 504 951 507 965 l 489 879 q 476 857 488 865 q 451 849 465 849 l 101 849 z "},"į":{"ha":385,"x_min":-49,"x_max":442,"o":"m 246 840 q 225 850 232 840 q 221 874 218 860 l 242 975 q 257 1000 244 990 q 283 1010 269 1010 l 411 1010 q 434 999 426 1010 q 439 975 442 989 l 417 874 q 401 850 414 860 q 375 840 389 840 l 246 840 m 114 -289 q -7 -250 35 -289 q -49 -144 -49 -211 q -43 -90 -49 -117 q -2 -4 -32 -39 q 69 43 28 31 l 67 47 q 57 54 60 49 q 56 68 54 60 l 188 689 q 202 713 190 703 q 228 722 214 722 l 346 722 q 368 713 361 722 q 372 689 375 703 l 232 33 q 217 9 229 18 q 192 0 206 0 l 182 0 q 110 -24 139 0 q 72 -90 81 -49 q 69 -114 69 -107 q 89 -160 69 -143 q 144 -178 108 -178 l 163 -178 q 185 -188 178 -178 q 188 -212 192 -199 l 179 -256 q 165 -279 176 -269 q 138 -289 153 -289 l 114 -289 z "},"ĩ":{"ha":368,"x_min":10,"x_max":517,"o":"m 39 0 q 16 10 24 0 q 11 33 8 19 l 151 689 q 166 713 154 704 q 192 722 178 722 l 310 722 q 331 713 324 722 q 335 689 338 703 l 196 33 q 182 10 193 19 q 157 0 171 0 l 39 0 m 357 819 q 313 826 331 819 q 272 847 294 833 q 245 863 257 858 q 219 868 233 868 q 198 863 207 868 q 178 846 189 857 q 146 826 161 826 l 81 826 q 65 833 71 826 q 61 850 60 840 q 87 917 67 882 q 142 976 107 951 q 221 1000 176 1000 q 267 992 249 1000 q 307 971 286 985 q 326 960 311 968 q 360 951 342 951 q 381 957 372 951 q 399 974 389 963 q 414 987 406 981 q 432 993 422 993 l 497 993 q 513 986 508 993 q 517 969 518 979 q 491 903 511 938 q 436 844 471 868 q 357 819 401 819 z "},"j":{"ha":389,"x_min":-199,"x_max":425,"o":"m 225 840 q 203 850 211 840 q 199 874 196 860 l 221 975 q 234 999 222 989 q 261 1010 246 1010 l 394 1010 q 417 1000 408 1010 q 422 975 425 990 l 400 874 q 385 850 397 860 q 360 840 374 840 l 225 840 m -171 -264 q -192 -255 -185 -264 q -196 -231 -199 -246 l -179 -149 q -165 -124 -176 -133 q -139 -115 -153 -115 l -99 -115 q 19 3 -4 -115 l 165 689 q 180 713 168 703 q 206 722 192 722 l 329 722 q 350 713 343 722 q 354 689 357 703 l 208 -1 q 105 -197 181 -129 q -107 -264 29 -264 l -171 -264 z "},"ȷ":{"ha":493,"x_min":-121,"x_max":461,"o":"m -93 -264 q -114 -254 -107 -264 q -118 -231 -121 -244 l -97 -129 q -83 -105 -94 -114 q -57 -96 -71 -96 l 4 -96 q 88 -66 61 -96 q 128 22 114 -36 l 243 569 l 94 569 q 72 578 81 569 q 67 603 64 588 l 85 689 q 99 713 88 703 q 126 722 111 722 l 433 722 q 454 713 447 722 q 458 689 461 704 l 318 22 q 206 -187 290 -110 q -12 -264 121 -264 l -93 -264 z "},"ĵ":{"ha":493,"x_min":-119,"x_max":536,"o":"m -93 -264 q -114 -254 -107 -264 q -118 -231 -121 -244 l -97 -129 q -83 -105 -94 -114 q -57 -96 -71 -96 l 4 -96 q 88 -66 61 -96 q 128 22 114 -36 l 243 569 l 94 569 q 72 578 81 569 q 67 603 64 588 l 85 689 q 99 713 88 703 q 126 722 111 722 l 433 722 q 454 713 447 722 q 458 689 461 704 l 318 22 q 206 -187 290 -110 q -12 -264 121 -264 l -93 -264 m 85 826 q 72 831 76 826 q 68 844 67 836 q 81 864 68 856 l 250 1008 q 278 1026 267 1022 q 303 1031 289 1031 l 381 1031 q 403 1026 394 1031 q 422 1008 413 1022 l 532 864 q 536 844 539 856 q 528 831 535 836 q 513 826 522 826 l 464 826 q 426 836 442 826 l 326 910 l 194 836 q 156 826 174 826 l 85 826 z "},"k":{"ha":769,"x_min":8,"x_max":786,"o":"m 39 0 q 16 10 24 0 q 11 33 8 19 l 208 953 q 222 977 211 968 q 247 986 233 986 l 363 986 q 385 976 378 986 q 390 953 393 967 l 290 485 l 560 699 q 574 709 564 701 q 594 719 585 717 q 617 722 604 722 l 761 722 q 779 716 772 722 q 786 700 786 710 q 767 667 786 681 l 425 389 l 668 49 q 675 31 675 39 q 665 9 675 18 q 642 0 656 0 l 513 0 q 469 22 483 0 l 254 318 l 193 33 q 179 9 190 18 q 154 0 168 0 l 39 0 z "},"ķ":{"ha":769,"x_min":10,"x_max":786,"o":"m 39 0 q 16 10 24 0 q 11 33 8 19 l 208 953 q 222 977 211 968 q 247 986 233 986 l 363 986 q 385 976 378 986 q 390 953 393 967 l 290 485 l 560 699 q 574 709 564 701 q 594 719 585 717 q 617 722 604 722 l 761 722 q 779 716 772 722 q 786 700 786 710 q 767 667 786 681 l 425 389 l 668 49 q 675 31 675 39 q 665 9 675 18 q 642 0 656 0 l 513 0 q 469 22 483 0 l 254 318 l 193 33 q 179 9 190 18 q 154 0 168 0 l 39 0 m 60 -315 q 44 -310 50 -315 q 39 -296 39 -304 l 42 -285 l 103 -114 q 124 -82 110 -94 q 158 -69 139 -69 l 276 -69 q 292 -77 286 -69 q 294 -96 297 -85 q 286 -114 290 -108 l 188 -279 q 135 -315 165 -315 l 60 -315 z "},"ĸ":{"ha":768,"x_min":28,"x_max":804,"o":"m 57 0 q 35 10 42 0 q 31 33 28 19 l 171 689 q 185 713 174 704 q 211 722 197 722 l 326 722 q 349 713 342 722 q 353 689 356 703 l 300 440 l 599 699 q 612 709 601 701 q 632 719 622 717 q 654 722 642 722 l 779 722 q 798 714 792 722 q 801 692 804 706 q 783 667 799 678 l 435 365 l 683 54 q 690 31 694 40 q 678 8 689 17 q 654 0 668 0 l 518 0 q 492 5 500 0 q 472 24 485 10 l 265 281 l 213 33 q 198 9 210 18 q 172 0 186 0 l 57 0 z "},"l":{"ha":369,"x_min":8,"x_max":394,"o":"m 39 0 q 16 10 24 0 q 11 33 8 19 l 208 953 q 222 977 211 968 q 247 986 233 986 l 365 986 q 387 976 379 986 q 392 953 394 967 l 196 33 q 182 10 193 19 q 157 0 171 0 l 39 0 z "},"ĺ":{"ha":369,"x_min":10,"x_max":624,"o":"m 39 0 q 16 10 24 0 q 11 33 8 19 l 208 953 q 222 977 211 968 q 247 986 233 986 l 365 986 q 387 976 379 986 q 392 953 394 967 l 196 33 q 182 10 193 19 q 157 0 171 0 l 39 0 m 267 1042 q 252 1048 257 1042 q 250 1064 247 1054 q 261 1082 253 1075 l 404 1219 q 432 1241 421 1236 q 461 1246 443 1246 l 603 1246 q 619 1239 614 1246 q 624 1222 625 1232 q 613 1201 621 1208 l 408 1060 q 383 1046 394 1050 q 356 1042 371 1042 l 267 1042 z "},"ľ":{"ha":369,"x_min":-89,"x_max":393,"o":"m 39 0 q 16 10 24 0 q 11 33 8 19 l 208 953 q 222 977 211 968 q 247 986 233 986 l 365 986 q 387 976 379 986 q 392 953 394 967 l 196 33 q 182 10 193 19 q 157 0 171 0 l 39 0 m -68 -315 q -83 -310 -78 -315 q -89 -296 -89 -304 l -86 -285 l -25 -114 q -3 -82 -18 -94 q 31 -69 11 -69 l 149 -69 q 164 -77 158 -69 q 167 -96 169 -85 q 158 -114 163 -108 l 60 -279 q 7 -315 38 -315 l -68 -315 z "},"ļ":{"ha":369,"x_min":-89,"x_max":393,"o":"m 39 0 q 16 10 24 0 q 11 33 8 19 l 208 953 q 222 977 211 968 q 247 986 233 986 l 365 986 q 387 976 379 986 q 392 953 394 967 l 196 33 q 182 10 193 19 q 157 0 171 0 l 39 0 m -68 -315 q -83 -310 -78 -315 q -89 -296 -89 -304 l -86 -285 l -25 -114 q -3 -82 -18 -94 q 31 -69 11 -69 l 149 -69 q 164 -77 158 -69 q 167 -96 169 -85 q 158 -114 163 -108 l 60 -279 q 7 -315 38 -315 l -68 -315 z "},"ŀ":{"ha":504,"x_min":8,"x_max":557,"o":"m 39 0 q 16 10 24 0 q 11 33 8 19 l 208 953 q 222 977 211 968 q 247 986 233 986 l 365 986 q 387 976 379 986 q 392 953 394 967 l 196 33 q 182 10 193 19 q 157 0 171 0 l 39 0 m 376 411 q 356 419 363 411 q 351 442 349 428 l 376 557 q 390 580 379 571 q 414 589 400 589 l 529 589 q 550 580 543 589 q 554 557 557 571 l 529 442 q 516 419 526 428 q 492 411 506 411 l 376 411 z "},"ł":{"ha":432,"x_min":47,"x_max":464,"o":"m 90 0 q 68 10 75 0 q 64 33 61 19 l 140 390 l 90 372 q 71 368 75 368 q 53 375 58 368 q 50 394 47 382 l 65 474 q 78 498 69 490 q 104 513 86 506 l 171 535 l 258 953 q 274 977 263 968 q 300 986 286 986 l 417 986 q 440 976 432 986 q 443 953 447 967 l 371 607 l 421 625 q 439 629 433 629 q 458 622 451 629 q 461 603 464 615 l 444 525 q 432 500 440 508 q 406 485 424 492 l 339 461 l 249 33 q 234 10 246 19 q 207 0 222 0 l 90 0 z "},"m":{"ha":1256,"x_min":8,"x_max":1185,"o":"m 39 0 q 16 10 24 0 q 11 33 8 19 l 151 689 q 166 713 154 704 q 192 722 178 722 l 301 722 q 322 713 315 722 q 326 689 329 704 l 317 642 q 410 712 363 688 q 525 736 457 736 q 657 703 604 736 q 729 613 710 671 q 967 736 829 736 q 1125 681 1065 736 q 1185 521 1185 626 q 1175 432 1185 476 l 1089 33 q 1075 9 1086 18 q 1050 0 1064 0 l 935 0 q 912 10 919 0 q 907 33 904 19 l 990 421 q 997 483 997 450 q 900 586 997 586 q 794 546 844 586 q 726 421 744 506 l 643 33 q 629 9 640 18 q 604 0 618 0 l 488 0 q 466 10 474 0 q 461 33 458 19 l 543 421 q 550 483 550 450 q 524 561 550 536 q 453 586 497 586 q 347 546 397 586 q 279 421 297 506 l 197 33 q 183 9 194 18 q 157 0 171 0 l 39 0 z "},"n":{"ha":868,"x_min":8,"x_max":797,"o":"m 39 0 q 16 10 24 0 q 11 33 8 19 l 151 689 q 166 713 154 704 q 192 722 178 722 l 307 722 q 329 713 322 722 q 333 689 336 703 l 321 632 q 428 708 367 679 q 563 736 489 736 q 737 679 676 736 q 797 519 797 622 q 786 424 797 479 l 703 33 q 688 9 700 18 q 663 0 676 0 l 539 0 q 516 10 524 0 q 511 33 508 19 l 592 415 q 601 488 601 464 q 574 562 601 538 q 488 586 547 586 q 356 541 410 586 q 283 415 301 496 l 203 33 q 188 9 200 18 q 163 0 176 0 l 39 0 z "},"ń":{"ha":868,"x_min":10,"x_max":807,"o":"m 39 0 q 16 10 24 0 q 11 33 8 19 l 151 689 q 166 713 154 704 q 192 722 178 722 l 307 722 q 329 713 322 722 q 333 689 336 703 l 321 632 q 428 708 367 679 q 563 736 489 736 q 737 679 676 736 q 797 519 797 622 q 786 424 797 479 l 703 33 q 688 9 700 18 q 663 0 676 0 l 539 0 q 516 10 524 0 q 511 33 508 19 l 592 415 q 601 488 601 464 q 574 562 601 538 q 488 586 547 586 q 356 541 410 586 q 283 415 301 496 l 203 33 q 188 9 200 18 q 163 0 176 0 l 39 0 m 450 826 q 435 833 440 826 q 433 849 431 839 q 444 867 436 860 l 588 1004 q 615 1026 604 1021 q 644 1031 626 1031 l 786 1031 q 803 1024 797 1031 q 807 1007 808 1017 q 796 986 804 993 l 592 844 q 566 831 578 835 q 539 826 554 826 l 450 826 z "},"ŉ":{"ha":868,"x_min":10,"x_max":797,"o":"m 39 0 q 16 10 24 0 q 11 33 8 19 l 151 689 q 166 713 154 704 q 192 722 178 722 l 307 722 q 329 713 322 722 q 333 689 336 703 l 321 632 q 428 708 367 679 q 563 736 489 736 q 737 679 676 736 q 797 519 797 622 q 786 424 797 479 l 703 33 q 688 9 700 18 q 663 0 676 0 l 539 0 q 516 10 524 0 q 511 33 508 19 l 592 415 q 601 488 601 464 q 574 562 601 538 q 488 586 547 586 q 356 541 410 586 q 283 415 301 496 l 203 33 q 188 9 200 18 q 163 0 176 0 l 39 0 m 288 815 q 272 821 278 815 q 267 835 267 826 l 269 846 l 331 1017 q 352 1049 338 1036 q 386 1061 367 1061 l 504 1061 q 519 1053 514 1061 q 522 1035 525 1046 q 514 1017 518 1022 l 415 851 q 363 815 393 815 l 288 815 z "},"ň":{"ha":868,"x_min":10,"x_max":797,"o":"m 39 0 q 16 10 24 0 q 11 33 8 19 l 151 689 q 166 713 154 704 q 192 722 178 722 l 307 722 q 329 713 322 722 q 333 689 336 703 l 321 632 q 428 708 367 679 q 563 736 489 736 q 737 679 676 736 q 797 519 797 622 q 786 424 797 479 l 703 33 q 688 9 700 18 q 663 0 676 0 l 539 0 q 516 10 524 0 q 511 33 508 19 l 592 415 q 601 488 601 464 q 574 562 601 538 q 488 586 547 586 q 356 541 410 586 q 283 415 301 496 l 203 33 q 188 9 200 18 q 163 0 176 0 l 39 0 m 478 826 q 455 831 464 826 q 436 849 446 835 l 326 992 q 321 1010 321 1003 q 329 1025 322 1019 q 346 1031 336 1031 l 396 1031 q 432 1021 417 1031 l 532 947 l 664 1021 q 704 1031 685 1031 l 774 1031 q 787 1026 782 1031 q 790 1013 792 1021 q 778 993 790 1001 l 608 849 q 581 831 592 835 q 556 826 569 826 l 478 826 z "},"ņ":{"ha":868,"x_min":10,"x_max":797,"o":"m 39 0 q 16 10 24 0 q 11 33 8 19 l 151 689 q 166 713 154 704 q 192 722 178 722 l 307 722 q 329 713 322 722 q 333 689 336 703 l 321 632 q 428 708 367 679 q 563 736 489 736 q 737 679 676 736 q 797 519 797 622 q 786 424 797 479 l 703 33 q 688 9 700 18 q 663 0 676 0 l 539 0 q 516 10 524 0 q 511 33 508 19 l 592 415 q 601 488 601 464 q 574 562 601 538 q 488 586 547 586 q 356 541 410 586 q 283 415 301 496 l 203 33 q 188 9 200 18 q 163 0 176 0 l 39 0 m 101 -315 q 86 -310 92 -315 q 81 -296 81 -304 l 83 -285 l 144 -114 q 166 -82 151 -94 q 200 -69 181 -69 l 318 -69 q 333 -77 328 -69 q 336 -96 339 -85 q 328 -114 332 -108 l 229 -279 q 176 -315 207 -315 l 101 -315 z "},"ŋ":{"ha":868,"x_min":8,"x_max":797,"o":"m 301 -312 q 278 -303 286 -312 q 274 -279 271 -293 l 294 -182 q 309 -158 297 -168 q 336 -149 321 -149 l 361 -149 q 455 -115 424 -149 q 501 -12 486 -81 l 592 415 q 601 488 601 464 q 574 562 601 538 q 488 586 547 586 q 356 541 410 586 q 283 415 301 496 l 203 33 q 188 9 200 18 q 163 0 176 0 l 39 0 q 16 10 24 0 q 11 33 8 19 l 151 689 q 166 713 154 704 q 192 722 178 722 l 307 722 q 329 713 322 722 q 333 689 336 703 l 321 632 q 428 708 367 679 q 563 736 489 736 q 737 679 676 736 q 797 519 797 622 q 786 424 797 479 l 692 -18 q 574 -238 660 -164 q 326 -312 488 -312 l 301 -312 z "},"ñ":{"ha":868,"x_min":10,"x_max":797,"o":"m 39 0 q 16 10 24 0 q 11 33 8 19 l 151 689 q 166 713 154 704 q 192 722 178 722 l 307 722 q 329 713 322 722 q 333 689 336 703 l 321 632 q 428 708 367 679 q 563 736 489 736 q 737 679 676 736 q 797 519 797 622 q 786 424 797 479 l 703 33 q 688 9 700 18 q 663 0 676 0 l 539 0 q 516 10 524 0 q 511 33 508 19 l 592 415 q 601 488 601 464 q 574 562 601 538 q 488 586 547 586 q 356 541 410 586 q 283 415 301 496 l 203 33 q 188 9 200 18 q 163 0 176 0 l 39 0 m 606 819 q 561 826 579 819 q 521 847 543 833 q 494 863 506 858 q 468 868 482 868 q 447 863 456 868 q 426 846 438 857 q 394 826 410 826 l 329 826 q 314 833 319 826 q 310 850 308 840 q 335 917 315 882 q 390 976 356 951 q 469 1000 425 1000 q 516 992 497 1000 q 556 971 535 985 q 575 960 560 968 q 608 951 590 951 q 629 957 621 951 q 647 974 638 963 q 663 987 654 981 q 681 993 671 993 l 746 993 q 762 986 757 993 q 765 969 767 979 q 740 903 760 938 q 685 844 719 868 q 606 819 650 819 z "},"o":{"ha":821,"x_min":33,"x_max":767,"o":"m 331 -14 q 112 53 190 -14 q 33 238 33 121 q 39 300 33 271 q 65 422 51 374 q 204 653 103 571 q 468 736 306 736 q 688 668 608 736 q 767 482 767 600 q 761 422 767 464 q 735 300 740 322 q 596 69 696 151 q 331 -14 496 -14 m 344 126 q 470 172 418 126 q 544 307 522 218 q 568 415 554 346 q 574 475 574 444 q 454 597 574 597 q 329 550 381 597 q 256 415 278 503 q 232 307 240 367 q 226 246 226 278 q 344 126 226 126 z "},"ó":{"ha":821,"x_min":33,"x_max":786,"o":"m 331 -14 q 112 53 190 -14 q 33 238 33 121 q 39 300 33 271 q 65 422 51 374 q 204 653 103 571 q 468 736 306 736 q 688 668 608 736 q 767 482 767 600 q 761 422 767 464 q 735 300 740 322 q 596 69 696 151 q 331 -14 496 -14 m 344 126 q 470 172 418 126 q 544 307 522 218 q 568 415 554 346 q 574 475 574 444 q 454 597 574 597 q 329 550 381 597 q 256 415 278 503 q 232 307 240 367 q 226 246 226 278 q 344 126 226 126 m 429 826 q 415 833 419 826 q 413 849 410 839 q 424 867 415 860 l 567 1004 q 594 1026 583 1021 q 624 1031 606 1031 l 765 1031 q 782 1024 776 1031 q 786 1007 788 1017 q 775 986 783 993 l 571 844 q 545 831 557 835 q 518 826 533 826 l 429 826 z "},"ŏ":{"ha":821,"x_min":33,"x_max":767,"o":"m 331 -14 q 112 53 190 -14 q 33 238 33 121 q 39 300 33 271 q 65 422 51 374 q 204 653 103 571 q 468 736 306 736 q 688 668 608 736 q 767 482 767 600 q 761 422 767 464 q 735 300 740 322 q 596 69 696 151 q 331 -14 496 -14 m 344 126 q 470 172 418 126 q 544 307 522 218 q 568 415 554 346 q 574 475 574 444 q 454 597 574 597 q 329 550 381 597 q 256 415 278 503 q 232 307 240 367 q 226 246 226 278 q 344 126 226 126 m 503 819 q 381 860 424 819 q 338 965 338 901 q 342 1004 338 983 q 353 1023 344 1015 q 374 1031 361 1031 l 440 1031 q 458 1023 453 1031 q 461 1004 464 1015 q 457 971 457 988 q 511 918 457 918 q 600 1004 578 918 q 611 1023 603 1015 q 632 1031 619 1031 l 699 1031 q 717 1023 711 1031 q 719 1004 722 1015 q 503 819 681 819 z "},"ô":{"ha":821,"x_min":33,"x_max":767,"o":"m 331 -14 q 112 53 190 -14 q 33 238 33 121 q 39 300 33 271 q 65 422 51 374 q 204 653 103 571 q 468 736 306 736 q 688 668 608 736 q 767 482 767 600 q 761 422 767 464 q 735 300 740 322 q 596 69 696 151 q 331 -14 496 -14 m 344 126 q 470 172 418 126 q 544 307 522 218 q 568 415 554 346 q 574 475 574 444 q 454 597 574 597 q 329 550 381 597 q 256 415 278 503 q 232 307 240 367 q 226 246 226 278 q 344 126 226 126 m 274 826 q 260 831 265 826 q 257 844 256 836 q 269 864 257 856 l 439 1008 q 467 1026 456 1022 q 492 1031 478 1031 l 569 1031 q 592 1026 583 1031 q 611 1008 601 1022 l 721 864 q 725 844 728 856 q 717 831 724 836 q 701 826 711 826 l 653 826 q 615 836 631 826 l 515 910 l 383 836 q 344 826 363 826 l 274 826 z "},"ö":{"ha":821,"x_min":33,"x_max":767,"o":"m 331 -14 q 112 53 190 -14 q 33 238 33 121 q 39 300 33 271 q 65 422 51 374 q 204 653 103 571 q 468 736 306 736 q 688 668 608 736 q 767 482 767 600 q 761 422 767 464 q 735 300 740 322 q 596 69 696 151 q 331 -14 496 -14 m 344 126 q 470 172 418 126 q 544 307 522 218 q 568 415 554 346 q 574 475 574 444 q 454 597 574 597 q 329 550 381 597 q 256 415 278 503 q 232 307 240 367 q 226 246 226 278 q 344 126 226 126 m 322 853 q 301 861 308 853 q 297 883 294 869 l 319 986 q 333 1009 322 1000 q 357 1018 343 1018 l 460 1018 q 481 1009 474 1018 q 485 986 488 1000 l 463 883 q 449 861 460 869 q 425 853 439 853 l 322 853 m 585 853 q 564 861 571 853 q 560 883 557 869 l 582 986 q 594 1009 583 1000 q 619 1018 606 1018 l 722 1018 q 743 1009 736 1018 q 747 986 750 1000 l 725 883 q 712 861 722 869 q 688 853 701 853 l 585 853 z "},"ò":{"ha":821,"x_min":33,"x_max":767,"o":"m 331 -14 q 112 53 190 -14 q 33 238 33 121 q 39 300 33 271 q 65 422 51 374 q 204 653 103 571 q 468 736 306 736 q 688 668 608 736 q 767 482 767 600 q 761 422 767 464 q 735 300 740 322 q 596 69 696 151 q 331 -14 496 -14 m 344 126 q 470 172 418 126 q 544 307 522 218 q 568 415 554 346 q 574 475 574 444 q 454 597 574 597 q 329 550 381 597 q 256 415 278 503 q 232 307 240 367 q 226 246 226 278 q 344 126 226 126 m 464 826 q 438 831 447 826 q 418 844 428 835 l 278 985 q 272 999 272 990 q 281 1022 272 1013 q 303 1031 290 1031 l 451 1031 q 478 1026 469 1031 q 497 1004 486 1021 l 581 868 q 583 847 586 858 q 574 833 581 839 q 557 826 567 826 l 464 826 z "},"ő":{"ha":821,"x_min":33,"x_max":854,"o":"m 331 -14 q 112 53 190 -14 q 33 238 33 121 q 39 300 33 271 q 65 422 51 374 q 204 653 103 571 q 468 736 306 736 q 688 668 608 736 q 767 482 767 600 q 761 422 767 464 q 735 300 740 322 q 596 69 696 151 q 331 -14 496 -14 m 344 126 q 470 172 418 126 q 544 307 522 218 q 568 415 554 346 q 574 475 574 444 q 454 597 574 597 q 329 550 381 597 q 256 415 278 503 q 232 307 240 367 q 226 246 226 278 q 344 126 226 126 m 314 826 q 294 844 294 826 q 304 864 296 853 l 397 1004 q 454 1031 414 1031 l 568 1031 q 585 1024 579 1031 q 590 1008 592 1018 q 579 988 588 996 l 424 846 q 376 826 401 826 l 314 826 m 578 826 q 560 844 557 826 q 568 864 560 853 l 661 1004 q 718 1031 678 1031 l 832 1031 q 849 1024 843 1031 q 854 1008 856 1018 q 843 988 851 996 l 688 846 q 640 826 665 826 l 578 826 z "},"ō":{"ha":821,"x_min":33,"x_max":767,"o":"m 331 -14 q 112 53 190 -14 q 33 238 33 121 q 39 300 33 271 q 65 422 51 374 q 204 653 103 571 q 468 736 306 736 q 688 668 608 736 q 767 482 767 600 q 761 422 767 464 q 735 300 740 322 q 596 69 696 151 q 331 -14 496 -14 m 344 126 q 470 172 418 126 q 544 307 522 218 q 568 415 554 346 q 574 475 574 444 q 454 597 574 597 q 329 550 381 597 q 256 415 278 503 q 232 307 240 367 q 226 246 226 278 q 344 126 226 126 m 324 849 q 303 857 310 849 q 299 879 296 865 l 314 951 q 327 974 317 965 q 351 982 338 982 l 703 982 q 723 974 717 982 q 726 951 729 965 l 711 879 q 699 857 710 865 q 674 849 688 849 l 324 849 z "},"ø":{"ha":867,"x_min":-15,"x_max":900,"o":"m 364 -14 q 167 37 236 -14 q 82 176 97 88 l 26 157 q 10 153 15 153 q -9 160 -3 153 q -12 179 -15 167 l -1 233 q 10 258 1 250 q 38 274 19 267 l 81 289 q 108 422 90 351 q 251 649 144 561 q 524 736 357 736 q 717 685 649 736 q 801 547 785 635 l 858 568 q 876 572 871 572 q 894 565 888 572 q 899 544 900 557 l 886 490 q 875 466 883 474 q 847 451 867 458 l 806 436 q 794 367 803 407 q 778 300 786 326 q 638 73 742 160 q 364 -14 533 -14 m 617 481 q 584 569 617 540 q 494 597 551 597 q 374 556 425 597 q 300 426 324 514 q 294 399 299 415 q 288 363 290 382 l 617 481 m 393 126 q 515 169 464 126 q 588 303 565 211 q 600 363 594 325 l 268 243 q 302 155 269 183 q 393 126 335 126 z "},"ǿ":{"ha":865,"x_min":-14,"x_max":899,"o":"m 451 826 q 437 833 442 826 q 435 849 432 839 q 446 867 438 860 l 589 1004 q 617 1026 606 1021 q 646 1031 628 1031 l 788 1031 q 804 1024 799 1031 q 808 1007 810 1017 q 797 986 806 993 l 593 844 q 567 831 579 835 q 540 826 556 826 l 451 826 m 364 -14 q 167 37 236 -14 q 82 176 97 88 l 26 157 q 10 153 15 153 q -9 160 -3 153 q -12 179 -15 167 l -1 233 q 10 258 1 250 q 38 274 19 267 l 81 289 q 108 422 90 351 q 251 649 144 561 q 524 736 357 736 q 717 685 649 736 q 801 547 785 635 l 858 568 q 876 572 871 572 q 894 565 888 572 q 899 544 900 557 l 886 490 q 875 466 883 474 q 847 451 867 458 l 806 436 q 794 367 803 407 q 778 300 786 326 q 638 73 742 160 q 364 -14 533 -14 m 617 481 q 584 569 617 540 q 494 597 551 597 q 374 556 425 597 q 300 426 324 514 q 294 399 299 415 q 288 363 290 382 l 617 481 m 393 126 q 515 169 464 126 q 588 303 565 211 q 600 363 594 325 l 268 243 q 302 155 269 183 q 393 126 335 126 z "},"õ":{"ha":821,"x_min":33,"x_max":767,"o":"m 331 -14 q 112 53 190 -14 q 33 238 33 121 q 39 300 33 271 q 65 422 51 374 q 204 653 103 571 q 468 736 306 736 q 688 668 608 736 q 767 482 767 600 q 761 422 767 464 q 735 300 740 322 q 596 69 696 151 q 331 -14 496 -14 m 344 126 q 470 172 418 126 q 544 307 522 218 q 568 415 554 346 q 574 475 574 444 q 454 597 574 597 q 329 550 381 597 q 256 415 278 503 q 232 307 240 367 q 226 246 226 278 q 344 126 226 126 m 585 819 q 540 826 558 819 q 500 847 522 833 q 473 863 485 858 q 447 868 461 868 q 426 863 435 868 q 406 846 417 857 q 374 826 389 826 l 308 826 q 293 833 299 826 q 289 850 288 840 q 315 917 294 882 q 369 976 335 951 q 449 1000 404 1000 q 495 992 476 1000 q 535 971 514 985 q 554 960 539 968 q 588 951 569 951 q 608 957 600 951 q 626 974 617 963 q 642 987 633 981 q 660 993 650 993 l 725 993 q 741 986 736 993 q 744 969 746 979 q 719 903 739 938 q 664 844 699 868 q 585 819 629 819 z "},"œ":{"ha":1311,"x_min":54,"x_max":1281,"o":"m 342 -14 q 126 50 199 -14 q 54 229 54 114 q 61 300 54 258 q 86 422 72 367 q 233 652 124 568 q 501 736 342 736 q 645 707 586 736 q 735 625 704 678 q 856 707 788 678 q 1003 736 924 736 q 1210 666 1140 736 q 1281 474 1281 596 q 1269 369 1281 428 l 1263 340 q 1248 317 1260 326 q 1221 307 1236 307 l 761 307 l 758 296 q 754 249 754 271 q 784 153 754 190 q 871 117 814 117 q 1010 181 946 117 q 1033 199 1025 196 q 1058 203 1042 203 l 1181 203 q 1200 194 1193 203 q 1204 174 1207 186 q 1145 96 1194 140 q 1017 19 1096 51 q 844 -14 939 -14 q 708 15 765 -14 q 621 94 651 43 q 342 -14 510 -14 m 1090 425 l 1090 428 q 1096 482 1096 454 q 1065 574 1096 540 q 976 608 1035 608 q 854 559 906 608 q 786 428 803 510 l 786 425 l 1090 425 m 371 126 q 494 172 444 126 q 567 307 544 218 q 589 415 582 367 q 594 471 594 443 q 563 565 594 532 q 472 597 532 597 q 350 551 400 597 q 276 415 300 504 q 254 307 261 356 q 249 250 249 279 q 371 126 249 126 z "},"p":{"ha":851,"x_min":-47,"x_max":796,"o":"m -17 -264 q -40 -254 -32 -264 q -44 -231 -47 -244 l 151 689 q 166 713 154 704 q 192 722 178 722 l 304 722 q 326 713 319 722 q 331 689 333 703 l 319 633 q 419 710 367 683 q 550 736 472 736 q 733 668 671 736 q 796 485 796 600 q 789 407 796 451 q 769 315 783 368 q 642 76 732 167 q 411 -14 551 -14 q 285 13 336 -14 q 211 85 235 39 l 144 -231 q 130 -255 142 -246 q 104 -264 118 -264 l -17 -264 m 379 136 q 504 187 456 136 q 578 319 553 238 q 596 403 589 357 q 600 460 600 432 q 486 586 600 586 q 351 534 406 586 q 281 410 297 482 q 257 303 267 360 q 253 263 253 282 q 283 172 253 207 q 379 136 314 136 z "},"þ":{"ha":851,"x_min":-47,"x_max":796,"o":"m -17 -264 q -40 -254 -32 -264 q -44 -231 -47 -244 l 208 953 q 223 977 211 968 q 249 986 235 986 l 369 986 q 392 976 385 986 q 396 953 399 967 l 329 639 q 422 710 369 685 q 550 736 474 736 q 733 668 671 736 q 796 485 796 600 q 789 407 796 451 q 769 315 783 368 q 642 76 732 167 q 411 -14 551 -14 q 285 13 336 -14 q 211 85 235 39 l 144 -231 q 130 -255 142 -246 q 104 -264 118 -264 l -17 -264 m 379 136 q 504 187 456 136 q 578 319 553 238 q 596 403 589 357 q 600 460 600 432 q 486 586 600 586 q 351 534 406 586 q 281 410 297 482 q 257 303 267 360 q 253 263 253 282 q 283 172 253 207 q 379 136 314 136 z "},"q":{"ha":853,"x_min":35,"x_max":821,"o":"m 463 -264 q 440 -254 447 -264 q 436 -231 433 -244 l 503 85 q 405 11 457 36 q 282 -14 353 -14 q 98 54 161 -14 q 35 236 35 122 q 42 311 35 267 q 63 411 49 354 q 191 649 101 561 q 419 736 281 736 q 549 708 496 736 q 628 633 603 681 l 639 689 q 653 713 642 703 q 681 722 665 722 l 793 722 q 814 713 807 722 q 818 689 821 703 l 624 -231 q 609 -254 621 -244 q 583 -264 597 -264 l 463 -264 m 346 136 q 478 185 424 136 q 549 303 533 235 q 571 410 565 360 q 575 458 575 435 q 546 551 575 515 q 451 586 517 586 q 326 535 374 586 q 253 403 278 485 q 235 319 242 365 q 229 258 229 278 q 346 136 229 136 z "},"r":{"ha":583,"x_min":8,"x_max":628,"o":"m 39 0 q 16 10 24 0 q 11 33 8 19 l 151 688 q 166 713 154 703 q 192 722 178 722 l 306 722 q 328 712 321 722 q 333 688 336 701 l 321 631 q 529 722 390 722 l 599 722 q 621 713 614 722 q 625 689 628 703 l 603 588 q 590 564 601 574 q 563 554 578 554 l 453 554 q 342 517 388 554 q 283 414 297 479 l 203 33 q 188 10 200 19 q 163 0 176 0 l 39 0 z "},"ŕ":{"ha":583,"x_min":10,"x_max":699,"o":"m 39 0 q 16 10 24 0 q 11 33 8 19 l 151 688 q 166 713 154 703 q 192 722 178 722 l 306 722 q 328 712 321 722 q 333 688 336 701 l 321 631 q 529 722 390 722 l 599 722 q 621 713 614 722 q 625 689 628 703 l 603 588 q 590 564 601 574 q 563 554 578 554 l 453 554 q 342 517 388 554 q 283 414 297 479 l 203 33 q 188 10 200 19 q 163 0 176 0 l 39 0 m 342 826 q 327 833 332 826 q 325 849 322 839 q 336 867 328 860 l 479 1004 q 507 1026 496 1021 q 536 1031 518 1031 l 678 1031 q 694 1024 689 1031 q 699 1007 700 1017 q 688 986 696 993 l 483 844 q 458 831 469 835 q 431 826 446 826 l 342 826 z "},"ř":{"ha":583,"x_min":10,"x_max":672,"o":"m 39 0 q 16 10 24 0 q 11 33 8 19 l 151 688 q 166 713 154 703 q 192 722 178 722 l 306 722 q 328 712 321 722 q 333 688 336 701 l 321 631 q 529 722 390 722 l 599 722 q 621 713 614 722 q 625 689 628 703 l 603 588 q 590 564 601 574 q 563 554 578 554 l 453 554 q 342 517 388 554 q 283 414 297 479 l 203 33 q 188 10 200 19 q 163 0 176 0 l 39 0 m 360 826 q 337 831 346 826 q 318 849 328 835 l 208 992 q 203 1010 203 1003 q 211 1025 204 1019 q 228 1031 218 1031 l 278 1031 q 314 1021 299 1031 l 414 947 l 546 1021 q 586 1031 567 1031 l 656 1031 q 669 1026 664 1031 q 672 1013 674 1021 q 660 993 672 1001 l 490 849 q 463 831 474 835 q 438 826 451 826 l 360 826 z "},"ŗ":{"ha":583,"x_min":-183,"x_max":626,"o":"m 39 0 q 16 10 24 0 q 11 33 8 19 l 151 688 q 166 713 154 703 q 192 722 178 722 l 306 722 q 328 712 321 722 q 333 688 336 701 l 321 631 q 529 722 390 722 l 599 722 q 621 713 614 722 q 625 689 628 703 l 603 588 q 590 564 601 574 q 563 554 578 554 l 453 554 q 342 517 388 554 q 283 414 297 479 l 203 33 q 188 10 200 19 q 163 0 176 0 l 39 0 m -162 -315 q -178 -310 -172 -315 q -183 -296 -183 -304 l -181 -285 l -119 -114 q -98 -82 -112 -94 q -64 -69 -83 -69 l 54 -69 q 69 -77 64 -69 q 72 -96 75 -85 q 64 -114 68 -108 l -35 -279 q -87 -315 -57 -315 l -162 -315 z "},"s":{"ha":740,"x_min":17,"x_max":718,"o":"m 296 -14 q 135 14 197 -14 q 44 81 72 42 q 17 153 17 119 q 29 184 17 172 q 56 196 42 196 l 169 196 q 186 185 179 196 q 213 158 193 179 q 261 126 233 138 q 326 114 289 114 q 430 140 389 114 q 471 215 471 167 q 435 265 471 246 q 296 307 399 283 q 152 370 199 329 q 106 475 106 411 q 111 519 106 489 q 168 624 124 575 q 285 705 213 674 q 449 736 357 736 q 603 707 542 736 q 692 637 665 678 q 713 564 718 596 q 700 540 711 550 q 676 531 689 531 l 572 531 q 551 542 558 531 q 525 568 543 550 q 483 597 507 586 q 421 608 458 608 q 329 580 364 608 q 294 510 294 551 q 330 465 294 483 q 463 425 365 446 q 671 250 671 383 q 667 207 671 228 q 547 47 646 108 q 296 -14 449 -14 z "},"ś":{"ha":740,"x_min":17,"x_max":736,"o":"m 296 -14 q 135 14 197 -14 q 44 81 72 42 q 17 153 17 119 q 29 184 17 172 q 56 196 42 196 l 169 196 q 186 185 179 196 q 213 158 193 179 q 261 126 233 138 q 326 114 289 114 q 430 140 389 114 q 471 215 471 167 q 435 265 471 246 q 296 307 399 283 q 152 370 199 329 q 106 475 106 411 q 111 519 106 489 q 168 624 124 575 q 285 705 213 674 q 449 736 357 736 q 603 707 542 736 q 692 637 665 678 q 713 564 718 596 q 700 540 711 550 q 676 531 689 531 l 572 531 q 551 542 558 531 q 525 568 543 550 q 483 597 507 586 q 421 608 458 608 q 329 580 364 608 q 294 510 294 551 q 330 465 294 483 q 463 425 365 446 q 671 250 671 383 q 667 207 671 228 q 547 47 646 108 q 296 -14 449 -14 m 379 826 q 365 833 369 826 q 363 849 360 839 q 374 867 365 860 l 517 1004 q 544 1026 533 1021 q 574 1031 556 1031 l 715 1031 q 732 1024 726 1031 q 736 1007 738 1017 q 725 986 733 993 l 521 844 q 495 831 507 835 q 468 826 483 826 l 379 826 z "},"š":{"ha":740,"x_min":17,"x_max":722,"o":"m 296 -14 q 135 14 197 -14 q 44 81 72 42 q 17 153 17 119 q 29 184 17 172 q 56 196 42 196 l 169 196 q 186 185 179 196 q 213 158 193 179 q 261 126 233 138 q 326 114 289 114 q 430 140 389 114 q 471 215 471 167 q 435 265 471 246 q 296 307 399 283 q 152 370 199 329 q 106 475 106 411 q 111 519 106 489 q 168 624 124 575 q 285 705 213 674 q 449 736 357 736 q 603 707 542 736 q 692 637 665 678 q 713 564 718 596 q 700 540 711 550 q 676 531 689 531 l 572 531 q 551 542 558 531 q 525 568 543 550 q 483 597 507 586 q 421 608 458 608 q 329 580 364 608 q 294 510 294 551 q 330 465 294 483 q 463 425 365 446 q 671 250 671 383 q 667 207 671 228 q 547 47 646 108 q 296 -14 449 -14 m 410 826 q 387 831 396 826 q 368 849 378 835 l 258 992 q 253 1010 253 1003 q 261 1025 254 1019 q 278 1031 268 1031 l 328 1031 q 364 1021 349 1031 l 464 947 l 596 1021 q 636 1031 617 1031 l 706 1031 q 719 1026 714 1031 q 722 1013 724 1021 q 710 993 722 1001 l 540 849 q 513 831 524 835 q 488 826 501 826 l 410 826 z "},"ş":{"ha":740,"x_min":17,"x_max":718,"o":"m 233 -306 q 157 -288 189 -306 q 125 -251 125 -271 q 135 -235 125 -242 l 164 -214 q 179 -207 171 -207 q 203 -219 185 -207 q 247 -231 221 -231 q 291 -214 272 -231 q 310 -174 310 -197 q 298 -149 310 -158 q 267 -139 286 -139 q 231 -145 253 -139 q 203 -151 210 -151 q 186 -143 193 -151 l 167 -117 q 164 -106 164 -112 q 179 -74 164 -97 l 221 -8 q 104 29 150 1 q 38 90 58 57 q 17 150 17 122 q 18 163 17 158 q 31 187 19 178 q 56 196 43 196 l 164 196 q 185 185 176 196 q 212 158 192 178 q 260 126 232 138 q 326 114 289 114 q 430 140 389 114 q 471 215 471 167 q 435 265 471 246 q 296 307 399 283 q 152 370 199 329 q 106 475 106 411 q 111 519 106 489 q 168 624 124 575 q 285 705 213 674 q 449 736 357 736 q 603 707 542 736 q 692 637 665 678 q 713 564 718 596 q 700 540 711 550 q 676 531 689 531 l 571 531 q 551 542 558 531 q 525 568 543 550 q 483 597 507 586 q 421 608 458 608 q 329 580 364 608 q 294 510 294 551 q 330 465 294 483 q 463 425 365 446 q 671 250 671 383 q 667 207 671 228 q 549 49 646 110 q 299 -14 451 -12 l 258 -74 q 308 -64 274 -64 q 372 -87 350 -64 q 394 -151 394 -111 q 349 -260 394 -215 q 233 -306 304 -306 z "},"ŝ":{"ha":740,"x_min":17,"x_max":714,"o":"m 296 -14 q 135 14 197 -14 q 44 81 72 42 q 17 153 17 119 q 29 184 17 172 q 56 196 42 196 l 169 196 q 186 185 179 196 q 213 158 193 179 q 261 126 233 138 q 326 114 289 114 q 430 140 389 114 q 471 215 471 167 q 435 265 471 246 q 296 307 399 283 q 152 370 199 329 q 106 475 106 411 q 111 519 106 489 q 168 624 124 575 q 285 705 213 674 q 449 736 357 736 q 603 707 542 736 q 692 637 665 678 q 713 564 718 596 q 700 540 711 550 q 676 531 689 531 l 572 531 q 551 542 558 531 q 525 568 543 550 q 483 597 507 586 q 421 608 458 608 q 329 580 364 608 q 294 510 294 551 q 330 465 294 483 q 463 425 365 446 q 671 250 671 383 q 667 207 671 228 q 547 47 646 108 q 296 -14 449 -14 m 219 826 q 206 831 211 826 q 203 844 201 836 q 215 864 203 856 l 385 1008 q 413 1026 401 1022 q 438 1031 424 1031 l 515 1031 q 538 1026 529 1031 q 557 1008 547 1022 l 667 864 q 671 844 674 856 q 663 831 669 836 q 647 826 657 826 l 599 826 q 561 836 576 826 l 461 910 l 329 836 q 290 826 308 826 l 219 826 z "},"ș":{"ha":740,"x_min":17,"x_max":714,"o":"m 296 -14 q 135 14 197 -14 q 44 81 72 42 q 17 153 17 119 q 29 184 17 172 q 56 196 42 196 l 169 196 q 186 185 179 196 q 213 158 193 179 q 261 126 233 138 q 326 114 289 114 q 430 140 389 114 q 471 215 471 167 q 435 265 471 246 q 296 307 399 283 q 152 370 199 329 q 106 475 106 411 q 111 519 106 489 q 168 624 124 575 q 285 705 213 674 q 449 736 357 736 q 603 707 542 736 q 692 637 665 678 q 713 564 718 596 q 700 540 711 550 q 676 531 689 531 l 572 531 q 551 542 558 531 q 525 568 543 550 q 483 597 507 586 q 421 608 458 608 q 329 580 364 608 q 294 510 294 551 q 330 465 294 483 q 463 425 365 446 q 671 250 671 383 q 667 207 671 228 q 547 47 646 108 q 296 -14 449 -14 m 54 -315 q 39 -310 44 -315 q 33 -296 33 -304 l 36 -285 l 97 -114 q 119 -82 104 -94 q 153 -69 133 -69 l 271 -69 q 286 -77 281 -69 q 289 -96 292 -85 q 281 -114 285 -108 l 182 -279 q 129 -315 160 -315 l 54 -315 z "},"ß":{"ha":856,"x_min":29,"x_max":847,"o":"m 58 0 q 36 10 43 0 q 32 33 29 19 l 167 668 q 298 897 196 808 q 568 986 400 986 q 779 926 711 986 q 847 776 847 867 q 840 718 847 750 q 786 599 826 647 q 692 522 746 550 q 799 361 799 479 q 790 289 799 326 q 725 152 775 218 q 590 43 675 86 q 392 0 504 0 l 311 0 q 287 9 294 0 q 282 33 279 18 l 299 111 q 313 135 301 126 q 343 144 325 144 l 396 144 q 531 187 476 144 q 600 294 586 229 q 604 329 604 314 q 567 415 604 383 q 458 447 529 447 l 404 447 q 381 456 388 447 q 376 481 374 465 l 392 549 q 432 582 396 582 l 479 582 q 602 617 556 583 q 661 711 649 650 q 664 739 664 721 q 630 813 664 785 q 538 842 596 842 q 418 798 468 842 q 351 668 368 754 l 215 33 q 201 9 213 18 q 175 0 189 0 l 58 0 z "},"ſ":{"ha":442,"x_min":58,"x_max":694,"o":"m 268 33 q 253 9 265 18 q 228 0 242 0 l 113 0 q 90 10 97 0 q 86 33 83 19 l 201 574 l 89 574 q 66 583 74 574 q 63 607 58 593 l 79 689 q 94 713 82 703 q 121 722 106 722 l 232 722 l 244 778 q 554 1028 299 1028 l 667 1028 q 688 1019 681 1028 q 692 994 694 1010 l 675 913 q 660 889 672 899 q 635 879 649 879 l 551 879 q 466 852 496 879 q 425 771 436 825 l 268 33 z "},"t":{"ha":590,"x_min":56,"x_max":610,"o":"m 342 0 q 172 44 226 0 q 117 175 117 88 q 126 260 117 217 l 194 574 l 85 574 q 63 583 69 574 q 58 607 56 593 l 75 689 q 90 713 78 703 q 117 722 101 722 l 225 722 l 275 953 q 289 977 278 968 q 314 986 300 986 l 429 986 q 452 976 444 986 q 457 953 460 967 l 407 722 l 581 722 q 603 713 596 722 q 607 689 610 703 l 589 607 q 576 583 588 593 q 549 574 564 574 l 376 574 l 311 275 q 303 211 303 238 q 318 168 303 182 q 371 154 333 154 l 472 154 q 494 144 488 154 q 499 121 501 135 l 481 33 q 466 9 478 18 q 440 0 454 0 l 342 0 z "},"ŧ":{"ha":599,"x_min":25,"x_max":615,"o":"m 342 0 q 175 42 228 0 q 122 169 122 85 q 133 260 122 207 l 163 400 l 54 400 q 32 410 39 400 q 28 433 25 419 l 36 474 q 51 498 39 489 q 76 507 63 507 l 185 507 l 208 614 l 100 614 q 78 624 86 614 q 72 649 69 633 l 81 689 q 95 713 83 703 q 122 722 107 722 l 231 722 l 281 953 q 294 976 283 967 q 319 986 306 986 l 435 986 q 458 976 450 986 q 463 953 465 967 l 413 722 l 586 722 q 608 713 601 722 q 613 689 615 703 l 604 649 q 590 624 601 633 q 564 614 578 614 l 390 614 l 367 507 l 540 507 q 563 497 556 507 q 567 474 571 488 l 558 433 q 544 409 556 418 q 518 400 532 400 l 344 400 l 318 275 q 310 210 310 238 q 325 167 310 181 q 378 154 340 154 l 479 154 q 500 144 493 154 q 504 121 507 135 l 486 33 q 472 9 483 18 q 446 0 460 0 l 342 0 z "},"ť":{"ha":647,"x_min":57,"x_max":833,"o":"m 342 0 q 172 44 226 0 q 117 175 117 88 q 126 260 117 217 l 194 574 l 85 574 q 63 583 69 574 q 58 607 56 593 l 75 689 q 90 713 78 703 q 117 722 101 722 l 225 722 l 275 953 q 289 977 278 968 q 314 986 300 986 l 429 986 q 452 976 444 986 q 457 953 460 967 l 407 722 l 581 722 q 603 713 596 722 q 607 689 610 703 l 589 607 q 576 583 588 593 q 549 574 564 574 l 376 574 l 311 275 q 303 211 303 238 q 318 168 303 182 q 371 154 333 154 l 472 154 q 494 144 488 154 q 499 121 501 135 l 481 33 q 466 9 478 18 q 440 0 454 0 l 342 0 m 599 764 q 583 769 589 764 q 578 783 578 775 l 581 794 l 642 965 q 663 997 649 985 q 697 1010 678 1010 l 815 1010 q 831 1002 825 1010 q 833 983 836 994 q 825 965 829 971 l 726 800 q 674 764 704 764 l 599 764 z "},"ț":{"ha":590,"x_min":-1,"x_max":608,"o":"m 342 0 q 172 44 226 0 q 117 175 117 88 q 126 260 117 217 l 194 574 l 85 574 q 63 583 69 574 q 58 607 56 593 l 75 689 q 90 713 78 703 q 117 722 101 722 l 225 722 l 275 953 q 289 977 278 968 q 314 986 300 986 l 429 986 q 452 976 444 986 q 457 953 460 967 l 407 722 l 581 722 q 603 713 596 722 q 607 689 610 703 l 589 607 q 576 583 588 593 q 549 574 564 574 l 376 574 l 311 275 q 303 211 303 238 q 318 168 303 182 q 371 154 333 154 l 472 154 q 494 144 488 154 q 499 121 501 135 l 481 33 q 466 9 478 18 q 440 0 454 0 l 342 0 m 19 -315 q 4 -310 10 -315 q -1 -296 -1 -304 l 1 -285 l 63 -114 q 84 -82 69 -94 q 118 -69 99 -69 l 236 -69 q 251 -77 246 -69 q 254 -96 257 -85 q 246 -114 250 -108 l 147 -279 q 94 -315 125 -315 l 19 -315 z "},"u":{"ha":864,"x_min":50,"x_max":833,"o":"m 283 -14 q 110 43 171 -14 q 50 204 50 100 q 61 299 50 246 l 143 689 q 158 713 146 703 q 185 722 169 722 l 308 722 q 331 713 324 722 q 335 689 338 703 l 254 307 q 244 233 244 258 q 271 160 244 185 q 357 136 297 136 q 487 182 432 136 q 560 307 542 228 l 640 689 q 655 713 643 703 q 681 722 667 722 l 806 722 q 826 713 819 722 q 831 689 833 703 l 692 33 q 678 10 689 19 q 653 0 667 0 l 538 0 q 515 10 522 0 q 510 33 507 19 l 522 90 q 419 10 471 35 q 283 -14 368 -14 z "},"ú":{"ha":864,"x_min":50,"x_max":832,"o":"m 283 -14 q 110 43 171 -14 q 50 204 50 100 q 61 299 50 246 l 143 689 q 158 713 146 703 q 185 722 169 722 l 308 722 q 331 713 324 722 q 335 689 338 703 l 254 307 q 244 233 244 258 q 271 160 244 185 q 357 136 297 136 q 487 182 432 136 q 560 307 542 228 l 640 689 q 655 713 643 703 q 681 722 667 722 l 806 722 q 826 713 819 722 q 831 689 833 703 l 692 33 q 678 10 689 19 q 653 0 667 0 l 538 0 q 515 10 522 0 q 510 33 507 19 l 522 90 q 419 10 471 35 q 283 -14 368 -14 m 440 826 q 426 833 431 826 q 424 849 421 839 q 435 867 426 860 l 578 1004 q 606 1026 594 1021 q 635 1031 617 1031 l 776 1031 q 793 1024 788 1031 q 797 1007 799 1017 q 786 986 794 993 l 582 844 q 556 831 568 835 q 529 826 544 826 l 440 826 z "},"ŭ":{"ha":864,"x_min":50,"x_max":832,"o":"m 283 -14 q 110 43 171 -14 q 50 204 50 100 q 61 299 50 246 l 143 689 q 158 713 146 703 q 185 722 169 722 l 308 722 q 331 713 324 722 q 335 689 338 703 l 254 307 q 244 233 244 258 q 271 160 244 185 q 357 136 297 136 q 487 182 432 136 q 560 307 542 228 l 640 689 q 655 713 643 703 q 681 722 667 722 l 806 722 q 826 713 819 722 q 831 689 833 703 l 692 33 q 678 10 689 19 q 653 0 667 0 l 538 0 q 515 10 522 0 q 510 33 507 19 l 522 90 q 419 10 471 35 q 283 -14 368 -14 m 510 819 q 388 860 431 819 q 344 965 344 901 q 349 1004 344 983 q 360 1023 351 1015 q 381 1031 368 1031 l 447 1031 q 465 1023 460 1031 q 468 1004 471 1015 q 464 971 464 988 q 518 918 464 918 q 607 1004 585 918 q 618 1023 610 1015 q 639 1031 626 1031 l 706 1031 q 724 1023 718 1031 q 726 1004 729 1015 q 510 819 688 819 z "},"û":{"ha":864,"x_min":50,"x_max":832,"o":"m 283 -14 q 110 43 171 -14 q 50 204 50 100 q 61 299 50 246 l 143 689 q 158 713 146 703 q 185 722 169 722 l 308 722 q 331 713 324 722 q 335 689 338 703 l 254 307 q 244 233 244 258 q 271 160 244 185 q 357 136 297 136 q 487 182 432 136 q 560 307 542 228 l 640 689 q 655 713 643 703 q 681 722 667 722 l 806 722 q 826 713 819 722 q 831 689 833 703 l 692 33 q 678 10 689 19 q 653 0 667 0 l 538 0 q 515 10 522 0 q 510 33 507 19 l 522 90 q 419 10 471 35 q 283 -14 368 -14 m 275 826 q 262 831 267 826 q 258 844 257 836 q 271 864 258 856 l 440 1008 q 468 1026 457 1022 q 493 1031 479 1031 l 571 1031 q 594 1026 585 1031 q 613 1008 603 1022 l 722 864 q 726 844 729 856 q 719 831 725 836 q 703 826 713 826 l 654 826 q 617 836 632 826 l 517 910 l 385 836 q 346 826 364 826 l 275 826 z "},"ü":{"ha":864,"x_min":50,"x_max":832,"o":"m 283 -14 q 110 43 171 -14 q 50 204 50 100 q 61 299 50 246 l 143 689 q 158 713 146 703 q 185 722 169 722 l 308 722 q 331 713 324 722 q 335 689 338 703 l 254 307 q 244 233 244 258 q 271 160 244 185 q 357 136 297 136 q 487 182 432 136 q 560 307 542 228 l 640 689 q 655 713 643 703 q 681 722 667 722 l 806 722 q 826 713 819 722 q 831 689 833 703 l 692 33 q 678 10 689 19 q 653 0 667 0 l 538 0 q 515 10 522 0 q 510 33 507 19 l 522 90 q 419 10 471 35 q 283 -14 368 -14 m 329 853 q 308 861 315 853 q 304 883 301 869 l 326 986 q 340 1009 329 1000 q 364 1018 350 1018 l 467 1018 q 488 1009 481 1018 q 492 986 494 1000 l 469 883 q 456 861 467 869 q 432 853 446 853 l 329 853 m 592 853 q 571 861 578 853 q 567 883 564 869 l 589 986 q 601 1009 590 1000 q 626 1018 613 1018 l 729 1018 q 750 1009 743 1018 q 754 986 757 1000 l 732 883 q 719 861 729 869 q 694 853 708 853 l 592 853 z "},"ù":{"ha":864,"x_min":50,"x_max":832,"o":"m 283 -14 q 110 43 171 -14 q 50 204 50 100 q 61 299 50 246 l 143 689 q 158 713 146 703 q 185 722 169 722 l 308 722 q 331 713 324 722 q 335 689 338 703 l 254 307 q 244 233 244 258 q 271 160 244 185 q 357 136 297 136 q 487 182 432 136 q 560 307 542 228 l 640 689 q 655 713 643 703 q 681 722 667 722 l 806 722 q 826 713 819 722 q 831 689 833 703 l 692 33 q 678 10 689 19 q 653 0 667 0 l 538 0 q 515 10 522 0 q 510 33 507 19 l 522 90 q 419 10 471 35 q 283 -14 368 -14 m 471 826 q 444 831 454 826 q 425 844 435 835 l 285 985 q 279 999 279 990 q 288 1022 279 1013 q 310 1031 297 1031 l 458 1031 q 485 1026 476 1031 q 504 1004 493 1021 l 588 868 q 590 847 593 858 q 581 833 588 839 q 564 826 574 826 l 471 826 z "},"ű":{"ha":864,"x_min":50,"x_max":864,"o":"m 283 -14 q 110 43 171 -14 q 50 204 50 100 q 61 299 50 246 l 143 689 q 158 713 146 703 q 185 722 169 722 l 308 722 q 331 713 324 722 q 335 689 338 703 l 254 307 q 244 233 244 258 q 271 160 244 185 q 357 136 297 136 q 487 182 432 136 q 560 307 542 228 l 640 689 q 655 713 643 703 q 681 722 667 722 l 806 722 q 826 713 819 722 q 831 689 833 703 l 692 33 q 678 10 689 19 q 653 0 667 0 l 538 0 q 515 10 522 0 q 510 33 507 19 l 522 90 q 419 10 471 35 q 283 -14 368 -14 m 324 826 q 304 844 304 826 q 314 864 306 853 l 407 1004 q 464 1031 424 1031 l 578 1031 q 595 1024 589 1031 q 600 1008 601 1018 q 589 988 597 996 l 433 846 q 386 826 411 826 l 324 826 m 588 826 q 569 844 567 826 q 578 864 569 853 l 671 1004 q 728 1031 688 1031 l 842 1031 q 859 1024 853 1031 q 864 1008 865 1018 q 853 988 861 996 l 697 846 q 650 826 675 826 l 588 826 z "},"ū":{"ha":864,"x_min":50,"x_max":832,"o":"m 283 -14 q 110 43 171 -14 q 50 204 50 100 q 61 299 50 246 l 143 689 q 158 713 146 703 q 185 722 169 722 l 308 722 q 331 713 324 722 q 335 689 338 703 l 254 307 q 244 233 244 258 q 271 160 244 185 q 357 136 297 136 q 487 182 432 136 q 560 307 542 228 l 640 689 q 655 713 643 703 q 681 722 667 722 l 806 722 q 826 713 819 722 q 831 689 833 703 l 692 33 q 678 10 689 19 q 653 0 667 0 l 538 0 q 515 10 522 0 q 510 33 507 19 l 522 90 q 419 10 471 35 q 283 -14 368 -14 m 333 849 q 313 857 319 849 q 308 879 306 865 l 324 951 q 337 974 326 965 q 361 982 347 982 l 713 982 q 733 974 726 982 q 736 951 739 965 l 721 879 q 708 857 719 865 q 683 849 697 849 l 333 849 z "},"ų":{"ha":864,"x_min":69,"x_max":854,"o":"m 590 -306 q 477 -267 517 -306 q 438 -160 438 -228 q 444 -101 438 -136 q 481 -26 453 -60 q 542 28 510 8 q 533 50 531 35 l 542 90 q 288 -14 446 -14 q 126 44 183 -14 q 69 204 69 101 q 81 299 69 246 l 164 689 q 178 713 167 704 q 204 722 190 722 l 329 722 q 350 713 343 722 q 354 689 357 703 l 274 307 q 267 247 267 269 q 386 136 267 136 q 510 182 458 136 q 579 307 563 228 l 660 689 q 674 713 663 703 q 701 722 686 722 l 825 722 q 847 713 840 722 q 851 689 854 703 l 713 33 q 700 13 710 22 q 676 0 690 3 l 664 -1 q 565 -101 583 -25 q 563 -131 563 -111 q 621 -189 563 -189 l 631 -189 q 653 -199 646 -189 q 658 -222 661 -208 l 647 -272 q 633 -296 644 -286 q 606 -306 621 -306 l 590 -306 z "},"ů":{"ha":864,"x_min":50,"x_max":832,"o":"m 283 -14 q 110 43 171 -14 q 50 204 50 100 q 61 299 50 246 l 143 689 q 158 713 146 703 q 185 722 169 722 l 308 722 q 331 713 324 722 q 335 689 338 703 l 254 307 q 244 233 244 258 q 271 160 244 185 q 357 136 297 136 q 487 182 432 136 q 560 307 542 228 l 640 689 q 655 713 643 703 q 681 722 667 722 l 806 722 q 826 713 819 722 q 831 689 833 703 l 692 33 q 678 10 689 19 q 653 0 667 0 l 538 0 q 515 10 522 0 q 510 33 507 19 l 522 90 q 419 10 471 35 q 283 -14 368 -14 m 503 819 q 429 845 458 819 q 400 911 400 871 q 403 935 400 918 q 456 1018 414 985 q 547 1051 497 1051 q 622 1026 593 1051 q 651 958 651 1000 q 649 935 651 951 q 596 852 638 885 q 503 819 554 819 m 514 893 q 552 908 536 893 q 568 946 568 924 q 560 968 568 960 q 536 976 551 976 q 498 961 514 976 q 482 924 482 946 q 491 901 482 910 q 514 893 500 893 z "},"ũ":{"ha":864,"x_min":50,"x_max":832,"o":"m 283 -14 q 110 43 171 -14 q 50 204 50 100 q 61 299 50 246 l 143 689 q 158 713 146 703 q 185 722 169 722 l 308 722 q 331 713 324 722 q 335 689 338 703 l 254 307 q 244 233 244 258 q 271 160 244 185 q 357 136 297 136 q 487 182 432 136 q 560 307 542 228 l 640 689 q 655 713 643 703 q 681 722 667 722 l 806 722 q 826 713 819 722 q 831 689 833 703 l 692 33 q 678 10 689 19 q 653 0 667 0 l 538 0 q 515 10 522 0 q 510 33 507 19 l 522 90 q 419 10 471 35 q 283 -14 368 -14 m 596 819 q 551 826 569 819 q 511 847 533 833 q 484 863 496 858 q 458 868 472 868 q 437 863 446 868 q 417 846 428 857 q 385 826 400 826 l 319 826 q 304 833 310 826 q 300 850 299 840 q 326 917 306 882 q 381 976 346 951 q 460 1000 415 1000 q 506 992 488 1000 q 546 971 525 985 q 565 960 550 968 q 599 951 581 951 q 619 957 611 951 q 638 974 628 963 q 653 987 644 981 q 671 993 661 993 l 736 993 q 752 986 747 993 q 756 969 757 979 q 730 903 750 938 q 675 844 710 868 q 596 819 640 819 z "},"v":{"ha":797,"x_min":90,"x_max":824,"o":"m 257 0 q 229 9 238 0 q 217 35 221 18 l 93 685 q 99 713 90 703 q 126 722 108 722 l 233 722 q 268 690 264 722 l 347 211 l 633 696 q 676 722 650 722 l 799 722 q 817 716 810 722 q 824 699 824 710 q 818 679 824 689 l 421 35 q 398 8 410 17 q 367 0 386 0 l 257 0 z "},"w":{"ha":1142,"x_min":96,"x_max":1158,"o":"m 199 0 q 161 35 164 0 l 99 685 q 107 711 96 700 q 135 722 118 722 l 235 722 q 258 715 250 722 q 267 696 265 707 l 307 239 l 544 692 q 592 722 560 722 l 664 722 q 699 692 696 722 l 747 239 l 981 696 q 995 714 985 706 q 1021 722 1006 722 l 1135 722 q 1158 700 1158 722 q 1154 682 1158 693 l 819 35 q 798 9 810 18 q 768 0 786 0 l 675 0 q 635 35 639 0 l 578 471 l 343 35 q 290 0 325 0 l 199 0 z "},"ẃ":{"ha":1142,"x_min":99,"x_max":1158,"o":"m 199 0 q 161 35 164 0 l 99 685 q 107 711 96 700 q 135 722 118 722 l 235 722 q 258 715 250 722 q 267 696 265 707 l 307 239 l 544 692 q 592 722 560 722 l 664 722 q 699 692 696 722 l 747 239 l 981 696 q 995 714 985 706 q 1021 722 1006 722 l 1135 722 q 1158 700 1158 722 q 1154 682 1158 693 l 819 35 q 798 9 810 18 q 768 0 786 0 l 675 0 q 635 35 639 0 l 578 471 l 343 35 q 290 0 325 0 l 199 0 m 589 826 q 574 833 579 826 q 572 849 569 839 q 583 867 575 860 l 726 1004 q 754 1026 743 1021 q 783 1031 765 1031 l 925 1031 q 942 1024 936 1031 q 946 1007 947 1017 q 935 986 943 993 l 731 844 q 705 831 717 835 q 678 826 693 826 l 589 826 z "},"ŵ":{"ha":1142,"x_min":99,"x_max":1158,"o":"m 199 0 q 161 35 164 0 l 99 685 q 107 711 96 700 q 135 722 118 722 l 235 722 q 258 715 250 722 q 267 696 265 707 l 307 239 l 544 692 q 592 722 560 722 l 664 722 q 699 692 696 722 l 747 239 l 981 696 q 995 714 985 706 q 1021 722 1006 722 l 1135 722 q 1158 700 1158 722 q 1154 682 1158 693 l 819 35 q 798 9 810 18 q 768 0 786 0 l 675 0 q 635 35 639 0 l 578 471 l 343 35 q 290 0 325 0 l 199 0 m 414 826 q 401 831 406 826 q 397 844 396 836 q 410 864 397 856 l 579 1008 q 607 1026 596 1022 q 632 1031 618 1031 l 710 1031 q 733 1026 724 1031 q 751 1008 742 1022 l 861 864 q 865 844 868 856 q 858 831 864 836 q 842 826 851 826 l 793 826 q 756 836 771 826 l 656 910 l 524 836 q 485 826 503 826 l 414 826 z "},"ẅ":{"ha":1142,"x_min":99,"x_max":1158,"o":"m 199 0 q 161 35 164 0 l 99 685 q 107 711 96 700 q 135 722 118 722 l 235 722 q 258 715 250 722 q 267 696 265 707 l 307 239 l 544 692 q 592 722 560 722 l 664 722 q 699 692 696 722 l 747 239 l 981 696 q 995 714 985 706 q 1021 722 1006 722 l 1135 722 q 1158 700 1158 722 q 1154 682 1158 693 l 819 35 q 798 9 810 18 q 768 0 786 0 l 675 0 q 635 35 639 0 l 578 471 l 343 35 q 290 0 325 0 l 199 0 m 458 853 q 438 861 444 853 q 433 883 431 869 l 456 986 q 469 1009 458 1000 q 493 1018 479 1018 l 596 1018 q 617 1009 610 1018 q 621 986 624 1000 l 599 883 q 585 861 596 869 q 561 853 575 853 l 458 853 m 721 853 q 700 861 707 853 q 696 883 693 869 l 718 986 q 731 1009 719 1000 q 756 1018 742 1018 l 858 1018 q 879 1009 872 1018 q 883 986 886 1000 l 861 883 q 848 861 858 869 q 824 853 838 853 l 721 853 z "},"ẁ":{"ha":1142,"x_min":99,"x_max":1158,"o":"m 199 0 q 161 35 164 0 l 99 685 q 107 711 96 700 q 135 722 118 722 l 235 722 q 258 715 250 722 q 267 696 265 707 l 307 239 l 544 692 q 592 722 560 722 l 664 722 q 699 692 696 722 l 747 239 l 981 696 q 995 714 985 706 q 1021 722 1006 722 l 1135 722 q 1158 700 1158 722 q 1154 682 1158 693 l 819 35 q 798 9 810 18 q 768 0 786 0 l 675 0 q 635 35 639 0 l 578 471 l 343 35 q 290 0 325 0 l 199 0 m 603 826 q 576 831 586 826 q 557 844 567 835 l 417 985 q 411 999 411 990 q 420 1022 411 1013 q 442 1031 429 1031 l 590 1031 q 617 1026 608 1031 q 636 1004 625 1021 l 719 868 q 722 847 725 858 q 713 833 719 839 q 696 826 706 826 l 603 826 z "},"x":{"ha":785,"x_min":-51,"x_max":808,"o":"m -24 0 q -44 8 -36 0 q -51 28 -51 17 q -43 49 -51 40 l 268 375 l 111 675 q 108 689 108 679 q 117 712 108 701 q 140 722 126 722 l 257 722 q 280 716 272 722 q 293 699 288 710 l 406 490 l 608 699 q 629 716 619 710 q 657 722 639 722 l 781 722 q 800 715 792 724 q 808 694 808 706 q 799 672 808 682 l 499 357 l 658 47 q 663 29 663 39 q 654 8 663 17 q 631 0 646 0 l 510 0 q 475 22 488 0 l 358 238 l 150 22 q 132 6 142 13 q 104 0 122 0 l -24 0 z "},"y":{"ha":807,"x_min":54,"x_max":839,"o":"m 76 -264 q 60 -258 67 -264 q 54 -242 54 -251 q 61 -219 54 -228 l 231 47 l 94 683 q 101 710 92 699 q 131 722 110 722 l 236 722 q 269 696 264 722 l 361 243 l 649 696 q 693 722 664 722 l 814 722 q 832 716 825 722 q 839 699 839 710 q 833 681 839 690 l 240 -237 q 196 -264 225 -264 l 76 -264 z "},"ý":{"ha":807,"x_min":54,"x_max":839,"o":"m 76 -264 q 60 -258 67 -264 q 54 -242 54 -251 q 61 -219 54 -228 l 231 47 l 94 683 q 101 710 92 699 q 131 722 110 722 l 236 722 q 269 696 264 722 l 361 243 l 649 696 q 693 722 664 722 l 814 722 q 832 716 825 722 q 839 699 839 710 q 833 681 839 690 l 240 -237 q 196 -264 225 -264 l 76 -264 m 414 826 q 399 833 404 826 q 397 849 394 839 q 408 867 400 860 l 551 1004 q 579 1026 568 1021 q 608 1031 590 1031 l 750 1031 q 767 1024 761 1031 q 771 1007 772 1017 q 760 986 768 993 l 556 844 q 530 831 542 835 q 503 826 518 826 l 414 826 z "},"ŷ":{"ha":807,"x_min":54,"x_max":839,"o":"m 76 -264 q 60 -258 67 -264 q 54 -242 54 -251 q 61 -219 54 -228 l 231 47 l 94 683 q 101 710 92 699 q 131 722 110 722 l 236 722 q 269 696 264 722 l 361 243 l 649 696 q 693 722 664 722 l 814 722 q 832 716 825 722 q 839 699 839 710 q 833 681 839 690 l 240 -237 q 196 -264 225 -264 l 76 -264 m 246 826 q 233 831 238 826 q 229 844 228 836 q 242 864 229 856 l 411 1008 q 439 1026 428 1022 q 464 1031 450 1031 l 542 1031 q 565 1026 556 1031 q 583 1008 574 1022 l 693 864 q 697 844 700 856 q 690 831 696 836 q 674 826 683 826 l 625 826 q 588 836 603 826 l 488 910 l 356 836 q 317 826 335 826 l 246 826 z "},"ÿ":{"ha":807,"x_min":54,"x_max":839,"o":"m 76 -264 q 60 -258 67 -264 q 54 -242 54 -251 q 61 -219 54 -228 l 231 47 l 94 683 q 101 710 92 699 q 131 722 110 722 l 236 722 q 269 696 264 722 l 361 243 l 649 696 q 693 722 664 722 l 814 722 q 832 716 825 722 q 839 699 839 710 q 833 681 839 690 l 240 -237 q 196 -264 225 -264 l 76 -264 m 294 853 q 274 861 281 853 q 269 883 267 869 l 292 986 q 305 1009 294 1000 q 329 1018 315 1018 l 432 1018 q 453 1009 446 1018 q 457 986 460 1000 l 435 883 q 422 861 432 869 q 397 853 411 853 l 294 853 m 557 853 q 536 861 543 853 q 532 883 529 869 l 554 986 q 567 1009 556 1000 q 592 1018 578 1018 l 694 1018 q 715 1009 708 1018 q 719 986 722 1000 l 697 883 q 684 861 694 869 q 660 853 674 853 l 557 853 z "},"ỳ":{"ha":807,"x_min":54,"x_max":839,"o":"m 76 -264 q 60 -258 67 -264 q 54 -242 54 -251 q 61 -219 54 -228 l 231 47 l 94 683 q 101 710 92 699 q 131 722 110 722 l 236 722 q 269 696 264 722 l 361 243 l 649 696 q 693 722 664 722 l 814 722 q 832 716 825 722 q 839 699 839 710 q 833 681 839 690 l 240 -237 q 196 -264 225 -264 l 76 -264 m 443 826 q 417 831 426 826 q 397 844 407 835 l 257 985 q 251 999 251 990 q 260 1022 251 1013 q 282 1031 269 1031 l 431 1031 q 457 1026 449 1031 q 476 1004 465 1021 l 560 868 q 563 847 565 858 q 553 833 560 839 q 536 826 546 826 l 443 826 z "},"z":{"ha":736,"x_min":-29,"x_max":722,"o":"m 0 0 q -22 10 -14 0 q -26 33 -29 19 l -8 114 q 11 150 -6 133 l 457 575 l 135 575 q 113 585 121 575 q 108 610 106 594 l 125 689 q 140 713 128 704 q 165 722 151 722 l 693 722 q 715 713 708 722 q 719 689 722 703 l 701 603 q 682 569 700 585 l 243 147 l 600 147 q 622 137 615 147 q 625 113 629 126 l 608 33 q 594 9 606 18 q 569 0 583 0 l 0 0 z "},"ź":{"ha":736,"x_min":-28,"x_max":743,"o":"m 0 0 q -22 10 -14 0 q -26 33 -29 19 l -8 114 q 11 150 -6 133 l 457 575 l 135 575 q 113 585 121 575 q 108 610 106 594 l 125 689 q 140 713 128 704 q 165 722 151 722 l 693 722 q 715 713 708 722 q 719 689 722 703 l 701 603 q 682 569 700 585 l 243 147 l 600 147 q 622 137 615 147 q 625 113 629 126 l 608 33 q 594 9 606 18 q 569 0 583 0 l 0 0 m 386 826 q 372 833 376 826 q 369 849 367 839 q 381 867 372 860 l 524 1004 q 551 1026 540 1021 q 581 1031 563 1031 l 722 1031 q 739 1024 733 1031 q 743 1007 744 1017 q 732 986 740 993 l 528 844 q 502 831 514 835 q 475 826 490 826 l 386 826 z "},"ž":{"ha":736,"x_min":-28,"x_max":721,"o":"m 0 0 q -22 10 -14 0 q -26 33 -29 19 l -8 114 q 11 150 -6 133 l 457 575 l 135 575 q 113 585 121 575 q 108 610 106 594 l 125 689 q 140 713 128 704 q 165 722 151 722 l 693 722 q 715 713 708 722 q 719 689 722 703 l 701 603 q 682 569 700 585 l 243 147 l 600 147 q 622 137 615 147 q 625 113 629 126 l 608 33 q 594 9 606 18 q 569 0 583 0 l 0 0 m 407 826 q 384 831 393 826 q 365 849 375 835 l 256 992 q 250 1010 250 1003 q 258 1025 251 1019 q 275 1031 265 1031 l 325 1031 q 361 1021 346 1031 l 461 947 l 593 1021 q 633 1031 614 1031 l 703 1031 q 716 1026 711 1031 q 719 1013 721 1021 q 707 993 719 1001 l 538 849 q 510 831 521 835 q 485 826 499 826 l 407 826 z "},"ż":{"ha":736,"x_min":-28,"x_max":721,"o":"m 0 0 q -22 10 -14 0 q -26 33 -29 19 l -8 114 q 11 150 -6 133 l 457 575 l 135 575 q 113 585 121 575 q 108 610 106 594 l 125 689 q 140 713 128 704 q 165 722 151 722 l 693 722 q 715 713 708 722 q 719 689 722 703 l 701 603 q 682 569 700 585 l 243 147 l 600 147 q 622 137 615 147 q 625 113 629 126 l 608 33 q 594 9 606 18 q 569 0 583 0 l 0 0 m 399 844 q 378 853 385 844 q 374 875 371 861 l 399 990 q 412 1013 401 1004 q 436 1022 422 1022 l 551 1022 q 572 1013 565 1022 q 576 990 579 1004 l 551 875 q 538 853 549 861 q 514 844 528 844 l 399 844 z "},"ﬀ":{"ha":1039,"x_min":61,"x_max":1164,"o":"m 1056 722 q 1078 713 1071 722 q 1082 689 1085 703 l 1065 607 q 1051 583 1063 593 q 1025 574 1039 574 l 851 574 l 736 33 q 722 9 733 18 q 696 0 710 0 l 582 0 q 559 10 567 0 q 554 33 551 19 l 669 574 l 385 574 l 269 33 q 255 9 267 18 q 229 0 243 0 l 114 0 q 92 10 100 0 q 88 33 85 19 l 203 574 l 90 574 q 68 583 75 574 q 64 607 61 593 l 81 689 q 95 713 83 703 q 122 722 107 722 l 233 722 l 246 778 q 556 1028 300 1028 l 668 1028 q 690 1018 683 1028 q 694 994 697 1008 l 676 913 q 662 889 674 899 q 636 879 650 879 l 553 879 q 468 852 499 879 q 426 771 438 825 l 415 722 l 701 722 l 713 778 q 1022 1028 767 1028 l 1135 1028 q 1157 1018 1150 1028 q 1161 994 1164 1008 l 1143 913 q 1128 889 1140 899 q 1103 879 1117 879 l 1019 879 q 935 852 965 879 q 893 771 904 825 l 883 722 l 1056 722 z "},"ﬃ":{"ha":1321,"x_min":61,"x_max":1356,"o":"m 114 0 q 92 10 100 0 q 88 33 85 19 l 203 574 l 90 574 q 68 583 75 574 q 64 607 61 593 l 81 689 q 95 713 83 703 q 122 722 107 722 l 233 722 l 246 778 q 556 1028 300 1028 l 668 1028 q 690 1018 683 1028 q 694 994 697 1008 l 676 913 q 662 889 674 899 q 636 879 650 879 l 553 879 q 468 852 499 879 q 426 771 438 825 l 415 722 l 701 722 l 713 778 q 1022 1028 767 1028 l 1326 1028 q 1349 1018 1342 1028 q 1353 994 1356 1008 l 1335 913 q 1320 889 1332 899 q 1294 879 1308 879 l 1019 879 q 935 852 965 879 q 893 771 904 825 l 883 722 l 1261 722 q 1283 713 1276 722 q 1288 689 1290 703 l 1149 33 q 1134 9 1146 18 q 1108 0 1122 0 l 993 0 q 972 10 979 0 q 967 33 964 19 l 1081 574 l 851 574 l 736 33 q 722 9 733 18 q 696 0 710 0 l 582 0 q 559 10 567 0 q 554 33 551 19 l 669 574 l 385 574 l 269 33 q 255 9 267 18 q 229 0 243 0 l 114 0 z "},"ﬄ":{"ha":1376,"x_min":61,"x_max":1410,"o":"m 114 0 q 92 10 100 0 q 88 33 85 19 l 203 574 l 90 574 q 68 583 75 574 q 64 607 61 593 l 81 689 q 95 713 83 703 q 122 722 107 722 l 233 722 l 246 778 q 556 1028 300 1028 l 668 1028 q 690 1018 683 1028 q 694 994 697 1008 l 676 913 q 662 889 674 899 q 636 879 650 879 l 553 879 q 468 852 499 879 q 426 771 438 825 l 415 722 l 701 722 l 713 778 q 1022 1028 767 1028 l 1124 1028 q 1144 1019 1138 1028 q 1149 994 1151 1010 l 1132 913 q 1117 889 1129 899 q 1092 879 1106 879 l 1019 879 q 935 852 965 879 q 893 771 904 825 l 883 722 l 1168 722 l 1225 994 q 1240 1019 1228 1010 q 1265 1028 1251 1028 l 1381 1028 q 1402 1018 1394 1028 q 1407 994 1410 1008 l 1203 33 q 1189 10 1200 19 q 1164 0 1178 0 l 1049 0 q 1026 10 1033 0 q 1021 33 1018 19 l 1135 574 l 851 574 l 736 33 q 722 9 733 18 q 696 0 710 0 l 582 0 q 559 10 567 0 q 554 33 551 19 l 669 574 l 385 574 l 269 33 q 255 9 267 18 q 229 0 243 0 l 114 0 z "},"ﬁ":{"ha":854,"x_min":61,"x_max":889,"o":"m 114 0 q 92 10 100 0 q 88 33 85 19 l 203 574 l 90 574 q 68 583 75 574 q 64 607 61 593 l 81 689 q 95 713 83 703 q 122 722 107 722 l 233 722 l 246 778 q 556 1028 300 1028 l 860 1028 q 882 1018 875 1028 q 886 994 889 1008 l 868 913 q 853 889 865 899 q 828 879 842 879 l 553 879 q 468 852 499 879 q 426 771 438 825 l 415 722 l 794 722 q 817 713 810 722 q 821 689 824 703 l 682 33 q 667 9 679 18 q 642 0 656 0 l 526 0 q 504 10 511 0 q 500 33 497 19 l 614 574 l 385 574 l 269 33 q 255 9 267 18 q 229 0 243 0 l 114 0 z "},"ﬂ":{"ha":910,"x_min":61,"x_max":943,"o":"m 114 0 q 92 10 100 0 q 88 33 85 19 l 203 574 l 92 574 q 69 583 78 574 q 64 607 61 592 l 82 689 q 97 713 85 704 q 122 722 108 722 l 233 722 l 246 778 q 556 1028 300 1028 l 657 1028 q 678 1018 671 1028 q 682 994 685 1008 l 665 913 q 651 889 663 899 q 625 879 639 879 l 553 879 q 468 852 499 879 q 426 771 438 825 l 415 722 l 701 722 l 758 994 q 773 1019 761 1010 q 799 1028 785 1028 l 913 1028 q 935 1018 928 1028 q 940 994 943 1008 l 736 33 q 722 9 733 18 q 696 0 710 0 l 582 0 q 559 10 567 0 q 554 33 551 19 l 668 574 l 385 574 l 269 33 q 255 9 267 18 q 229 0 243 0 l 114 0 z "},"ª":{"ha":497,"x_min":117,"x_max":510,"o":"m 238 596 q 150 622 183 596 q 117 689 117 647 q 118 704 117 699 q 176 789 126 756 q 306 833 225 822 l 388 846 q 392 867 392 863 q 354 890 392 890 q 294 875 322 890 q 265 865 278 865 l 201 865 q 181 886 176 865 q 235 949 192 919 q 358 979 278 979 q 470 949 431 979 q 510 863 510 918 q 506 828 510 847 l 463 629 q 451 610 461 618 q 431 603 442 603 l 365 603 q 348 610 354 603 q 344 629 342 618 l 347 643 q 301 609 331 622 q 238 596 272 596 m 267 683 q 335 707 307 683 q 371 768 364 731 l 313 758 q 258 740 276 753 q 236 711 239 726 l 236 706 q 244 690 236 696 q 267 683 251 683 z "},"º":{"ha":492,"x_min":129,"x_max":517,"o":"m 290 596 q 173 628 217 596 q 129 724 129 661 q 132 754 129 732 q 147 821 135 778 q 356 979 189 979 q 472 945 426 979 q 517 849 517 911 q 514 821 517 840 q 499 754 511 797 q 428 635 478 674 q 290 596 378 596 m 300 690 q 348 706 329 690 q 376 757 367 722 q 390 818 388 796 q 392 840 392 826 q 381 874 392 863 q 346 885 371 885 q 268 818 288 885 q 254 757 257 779 q 253 735 253 749 q 263 700 253 710 q 300 690 274 690 z "},"А":{"ha":969,"x_min":-62,"x_max":874,"o":"m -37 0 q -56 7 -49 0 q -62 25 -62 14 q -58 42 -62 33 l 465 938 q 522 972 486 972 l 685 972 q 726 938 721 972 l 871 42 q 865 11 874 22 q 840 0 856 0 l 719 0 q 682 32 686 0 l 651 194 l 240 194 l 139 26 q 94 0 124 0 l -37 0 m 324 356 l 638 356 l 571 783 l 324 356 z "},"Б":{"ha":901,"x_min":8,"x_max":913,"o":"m 39 0 q 17 9 25 0 q 11 33 8 18 l 204 938 q 218 963 207 953 q 244 972 229 972 l 881 972 q 904 963 896 972 q 910 938 913 953 l 888 839 q 873 815 885 824 q 846 806 861 806 l 372 806 l 324 581 l 557 581 q 767 523 694 581 q 839 364 839 465 q 832 296 839 325 q 762 149 815 217 q 624 41 708 82 q 433 0 540 0 l 39 0 m 444 149 q 542 175 499 149 q 611 244 586 201 q 636 333 636 286 q 603 411 636 382 q 507 440 571 440 l 294 440 l 232 149 l 444 149 z "},"В":{"ha":957,"x_min":26,"x_max":936,"o":"m 54 0 q 33 10 40 0 q 28 33 25 19 l 219 938 q 234 963 222 953 q 260 972 246 972 l 653 972 q 861 915 786 972 q 936 761 936 858 q 931 706 936 732 q 869 581 915 629 q 772 510 824 532 q 842 442 815 486 q 868 340 868 397 q 863 288 868 311 q 740 77 833 154 q 482 0 647 0 l 54 0 m 550 574 q 681 619 631 574 q 732 735 732 664 q 617 824 732 824 l 392 824 l 339 574 l 550 574 m 476 149 q 574 174 531 149 q 640 240 617 199 q 664 328 664 281 q 538 429 664 429 l 307 429 l 247 149 l 476 149 z "},"Г":{"ha":756,"x_min":8,"x_max":843,"o":"m 39 0 q 17 9 25 0 q 11 33 8 18 l 204 938 q 218 963 207 953 q 244 972 229 972 l 813 972 q 835 963 828 972 q 840 938 843 953 l 819 839 q 805 815 817 824 q 778 806 793 806 l 372 806 l 207 33 q 194 10 206 19 q 167 0 182 0 l 39 0 z "},"Ѓ":{"ha":757,"x_min":11,"x_max":851,"o":"m 39 0 q 17 9 25 0 q 11 33 8 18 l 204 938 q 218 963 207 953 q 244 972 229 972 l 813 972 q 835 963 828 972 q 840 938 843 953 l 819 839 q 805 815 817 824 q 778 806 793 806 l 372 806 l 207 33 q 194 10 206 19 q 167 0 182 0 l 39 0 m 485 1042 q 467 1061 464 1042 q 476 1081 467 1071 l 622 1219 q 649 1240 638 1235 q 679 1246 661 1246 l 829 1246 q 847 1239 842 1246 q 851 1222 853 1232 q 839 1201 849 1210 l 636 1060 q 610 1046 622 1050 q 582 1042 599 1042 l 485 1042 z "},"Ґ":{"ha":771,"x_min":24,"x_max":900,"o":"m 869 1167 q 892 1158 885 1167 q 897 1133 900 1149 l 835 839 q 820 815 832 824 q 793 806 808 806 l 388 806 l 222 33 q 209 10 221 19 q 182 0 197 0 l 54 0 q 32 9 40 0 q 26 33 24 18 l 219 938 q 234 963 222 953 q 261 972 246 972 l 668 972 l 703 1133 q 715 1157 704 1147 q 742 1167 726 1167 l 869 1167 z "},"Д":{"ha":1042,"x_min":-83,"x_max":1010,"o":"m -54 -193 q -76 -184 -68 -193 q -81 -160 -83 -175 l -17 143 q -1 167 -14 157 q 25 176 11 176 l 51 176 q 278 649 178 176 l 339 939 q 353 963 342 953 q 379 972 365 972 l 979 972 q 1002 963 994 972 q 1007 938 1010 953 l 844 176 l 911 176 q 933 167 925 176 q 939 143 942 157 l 875 -160 q 860 -183 872 -174 q 833 -193 849 -193 l 706 -193 q 683 -183 690 -193 q 679 -160 676 -174 l 713 0 l 149 0 l 115 -160 q 101 -184 113 -175 q 75 -193 89 -193 l -54 -193 m 649 176 l 781 796 l 499 796 l 463 624 q 292 176 393 296 l 649 176 z "},"Е":{"ha":864,"x_min":25,"x_max":903,"o":"m 54 0 q 33 10 40 0 q 28 33 25 19 l 219 938 q 234 963 222 953 q 260 972 246 972 l 874 972 q 896 963 889 972 q 900 938 903 953 l 881 844 q 866 820 878 829 q 840 811 854 811 l 383 811 l 331 568 l 757 568 q 779 558 772 568 q 783 533 786 549 l 765 446 q 751 422 763 431 q 724 413 739 413 l 299 413 l 244 161 l 713 161 q 735 151 728 161 q 739 128 742 142 l 719 33 q 705 9 717 18 q 679 0 693 0 l 54 0 z "},"Ѐ":{"ha":864,"x_min":26,"x_max":901,"o":"m 54 0 q 33 10 40 0 q 28 33 25 19 l 219 938 q 234 963 222 953 q 260 972 246 972 l 874 972 q 896 963 889 972 q 900 938 903 953 l 881 844 q 866 820 878 829 q 840 811 854 811 l 383 811 l 331 568 l 757 568 q 779 558 772 568 q 783 533 786 549 l 765 446 q 751 422 763 431 q 724 413 739 413 l 299 413 l 244 161 l 713 161 q 735 151 728 161 q 739 128 742 142 l 719 33 q 705 9 717 18 q 679 0 693 0 l 54 0 m 535 1042 q 508 1046 518 1042 q 489 1060 499 1050 l 349 1200 q 343 1214 343 1206 q 352 1237 343 1228 q 375 1246 361 1246 l 519 1246 q 547 1240 538 1246 q 565 1219 556 1235 l 650 1082 q 653 1068 653 1074 q 645 1049 653 1057 q 626 1042 638 1042 l 535 1042 z "},"Ё":{"ha":864,"x_min":26,"x_max":901,"o":"m 54 0 q 33 10 40 0 q 28 33 25 19 l 219 938 q 234 963 222 953 q 260 972 246 972 l 874 972 q 896 963 889 972 q 900 938 903 953 l 881 844 q 866 820 878 829 q 840 811 854 811 l 383 811 l 331 568 l 757 568 q 779 558 772 568 q 783 533 786 549 l 765 446 q 751 422 763 431 q 724 413 739 413 l 299 413 l 244 161 l 713 161 q 735 151 728 161 q 739 128 742 142 l 719 33 q 705 9 717 18 q 679 0 693 0 l 54 0 m 410 1103 q 389 1111 396 1103 q 385 1133 382 1119 l 407 1236 q 420 1259 410 1250 q 444 1268 431 1268 l 547 1268 q 568 1259 561 1268 q 572 1236 575 1250 l 550 1133 q 537 1111 547 1119 q 513 1103 526 1103 l 410 1103 m 672 1103 q 651 1111 658 1103 q 647 1133 644 1119 l 669 1236 q 682 1259 671 1250 q 707 1268 693 1268 l 810 1268 q 831 1259 824 1268 q 835 1236 838 1250 l 813 1133 q 799 1111 810 1119 q 775 1103 789 1103 l 672 1103 z "},"Ж":{"ha":1501,"x_min":-4,"x_max":1528,"o":"m 1501 972 q 1522 964 1515 972 q 1525 943 1528 956 q 1515 926 1524 938 l 1164 503 l 1363 47 q 1363 32 1365 40 q 1349 10 1360 19 q 1325 0 1339 0 l 1189 0 q 1151 24 1161 0 l 985 404 l 847 404 l 768 33 q 753 9 765 18 q 728 0 742 0 l 606 0 q 583 10 590 0 q 578 33 575 19 l 657 404 l 549 404 l 228 24 q 182 0 207 0 l 24 0 q 3 10 10 0 q -1 32 -4 19 q 6 47 1 43 l 390 503 l 218 926 q 215 943 214 936 q 227 964 218 956 q 250 972 236 972 l 382 972 q 426 947 417 972 l 574 579 l 693 581 l 771 939 q 784 963 772 953 q 811 972 796 972 l 933 972 q 956 963 947 972 q 961 939 964 954 l 883 581 l 1001 579 l 1301 947 q 1356 972 1319 972 l 1501 972 z "},"З":{"ha":892,"x_min":6,"x_max":863,"o":"m 346 -14 q 154 18 231 -14 q 42 103 78 50 q 6 219 6 156 q 7 244 6 236 q 19 265 8 257 q 43 272 31 272 l 169 272 q 193 267 185 272 q 206 244 201 261 q 253 172 213 199 q 368 146 294 146 q 532 192 465 146 q 599 314 599 238 q 557 394 599 367 q 440 422 515 422 l 339 422 q 317 432 325 422 q 313 457 310 442 l 331 539 q 345 565 333 554 q 371 575 357 575 l 468 575 q 592 606 543 575 q 654 701 642 638 q 657 726 657 718 q 619 798 657 771 q 517 825 581 825 q 392 799 443 825 q 318 725 340 774 q 299 704 308 710 q 275 699 289 699 l 144 699 q 125 707 132 699 q 121 728 118 715 q 261 914 156 842 q 546 986 367 986 q 717 956 646 986 q 826 876 789 926 q 863 763 863 825 q 857 717 863 747 q 704 511 825 574 q 801 338 801 458 q 796 278 801 304 q 717 126 778 192 q 560 23 656 60 q 346 -14 465 -14 z "},"И":{"ha":1057,"x_min":25,"x_max":1064,"o":"m 54 0 q 33 10 40 0 q 28 35 25 19 l 221 938 q 234 963 222 953 q 261 972 246 972 l 389 972 q 412 963 404 972 q 417 938 419 953 l 281 300 l 872 949 q 917 972 890 972 l 1035 972 q 1057 963 1050 972 q 1061 938 1064 953 l 868 33 q 856 10 867 19 q 829 0 844 0 l 701 0 q 678 10 686 0 q 672 33 669 19 l 806 657 l 218 24 q 172 0 197 0 l 54 0 z "},"Й":{"ha":1057,"x_min":26,"x_max":1063,"o":"m 54 0 q 33 10 40 0 q 28 35 25 19 l 221 938 q 234 963 222 953 q 261 972 246 972 l 389 972 q 412 963 404 972 q 417 938 419 953 l 281 300 l 872 949 q 917 972 890 972 l 1035 972 q 1057 963 1050 972 q 1061 938 1064 953 l 868 33 q 856 10 867 19 q 829 0 844 0 l 701 0 q 678 10 686 0 q 672 33 669 19 l 806 657 l 218 24 q 172 0 197 0 l 54 0 m 661 1028 q 510 1067 558 1028 q 463 1171 463 1106 q 468 1215 463 1185 q 479 1234 471 1226 q 500 1242 488 1242 l 581 1242 q 599 1234 593 1242 q 601 1215 604 1226 q 600 1194 600 1208 q 682 1136 600 1136 q 797 1215 783 1136 q 808 1234 800 1226 q 829 1242 817 1242 l 910 1242 q 928 1234 922 1242 q 931 1215 933 1226 q 848 1080 914 1132 q 661 1028 782 1028 z "},"Ѝ":{"ha":1057,"x_min":26,"x_max":1063,"o":"m 54 0 q 33 10 40 0 q 28 35 25 19 l 221 938 q 234 963 222 953 q 261 972 246 972 l 389 972 q 412 963 404 972 q 417 938 419 953 l 281 300 l 872 949 q 917 972 890 972 l 1035 972 q 1057 963 1050 972 q 1061 938 1064 953 l 868 33 q 856 10 867 19 q 829 0 844 0 l 701 0 q 678 10 686 0 q 672 33 669 19 l 806 657 l 218 24 q 172 0 197 0 l 54 0 m 619 1042 q 593 1046 603 1042 q 574 1060 583 1050 l 433 1200 q 428 1214 428 1206 q 437 1237 428 1228 q 460 1246 446 1246 l 604 1246 q 631 1240 622 1246 q 650 1219 640 1235 l 735 1082 q 738 1068 738 1074 q 730 1049 738 1057 q 711 1042 722 1042 l 619 1042 z "},"К":{"ha":949,"x_min":24,"x_max":983,"o":"m 957 972 q 977 964 971 972 q 981 943 983 956 q 969 926 979 936 l 618 503 l 810 47 q 810 32 813 40 q 797 10 807 19 q 772 0 786 0 l 636 0 q 611 6 619 0 q 597 24 603 13 l 438 404 l 301 404 l 222 33 q 209 10 221 19 q 182 0 197 0 l 54 0 q 32 9 40 0 q 26 33 24 18 l 219 938 q 233 963 222 953 q 260 972 244 972 l 388 972 q 410 963 403 972 q 415 938 418 953 l 339 581 l 456 579 l 756 947 q 811 972 776 972 l 957 972 z "},"Ќ":{"ha":933,"x_min":26,"x_max":981,"o":"m 957 972 q 977 964 971 972 q 981 943 983 956 q 969 926 979 936 l 618 503 l 810 47 q 810 32 813 40 q 797 10 807 19 q 772 0 786 0 l 636 0 q 611 6 619 0 q 597 24 603 13 l 438 404 l 301 404 l 222 33 q 209 10 221 19 q 182 0 197 0 l 54 0 q 32 9 40 0 q 26 33 24 18 l 219 938 q 233 963 222 953 q 260 972 244 972 l 388 972 q 410 963 403 972 q 415 938 418 953 l 339 581 l 456 579 l 756 947 q 811 972 776 972 l 957 972 m 485 1042 q 467 1061 464 1042 q 476 1081 467 1071 l 622 1219 q 649 1240 638 1235 q 679 1246 661 1246 l 829 1246 q 847 1239 842 1246 q 851 1222 853 1232 q 839 1201 849 1210 l 636 1060 q 610 1046 622 1050 q 582 1042 599 1042 l 485 1042 z "},"Л":{"ha":1011,"x_min":-57,"x_max":1018,"o":"m 654 0 q 632 9 640 0 q 626 33 624 18 l 789 796 l 490 796 l 453 624 q 344 262 404 394 q 197 67 285 129 q -26 1 108 6 q -49 10 -40 0 q -54 35 -57 19 l -31 142 q -19 164 -29 156 q 7 175 -8 172 q 156 303 92 188 q 268 649 219 419 l 331 939 q 344 963 332 953 q 369 972 356 972 l 988 972 q 1010 963 1003 972 q 1015 938 1018 953 l 822 33 q 808 9 819 18 q 782 0 796 0 l 654 0 z "},"М":{"ha":1128,"x_min":26,"x_max":1135,"o":"m 56 0 q 33 10 40 0 q 28 33 25 19 l 219 938 q 234 963 222 953 q 261 972 246 972 l 374 972 q 411 946 400 972 l 574 449 l 947 946 q 994 972 968 972 l 1106 972 q 1128 963 1121 972 q 1133 938 1136 953 l 940 33 q 926 9 938 18 q 900 0 914 0 l 781 0 q 758 10 765 0 q 753 33 750 19 l 876 618 l 614 264 q 588 241 600 249 q 561 233 576 233 l 503 233 q 463 264 472 233 l 343 639 l 215 33 q 201 10 213 19 q 176 0 190 0 l 56 0 z "},"Н":{"ha":1014,"x_min":26,"x_max":1019,"o":"m 54 0 q 33 10 40 0 q 28 33 25 19 l 219 938 q 234 963 222 953 q 260 972 246 972 l 389 972 q 411 963 404 972 q 415 938 418 953 l 339 581 l 746 581 l 822 938 q 836 963 825 953 q 863 972 847 972 l 990 972 q 1013 963 1006 972 q 1018 938 1021 953 l 825 33 q 811 9 822 18 q 785 0 800 0 l 657 0 q 634 10 642 0 q 629 33 626 19 l 708 404 l 303 404 l 224 33 q 209 9 221 18 q 183 0 197 0 l 54 0 z "}}}
